M48
; DRILL file {KiCad 9.0.6} date 2026-03-03T19:56:03-0600
; FORMAT={-:-/ absolute / metric / decimal}
; #@! TF.CreationDate,2026-03-03T19:56:03-06:00
; #@! TF.GenerationSoftware,Kicad,Pcbnew,9.0.6
; #@! TF.FileFunction,Plated,1,2,PTH
FMAT,2
METRIC
; #@! TA.AperFunction,Plated,PTH,ComponentDrill
T1C0.200
; #@! TA.AperFunction,Plated,PTH,ViaDrill
T2C0.300
; #@! TA.AperFunction,Plated,PTH,ComponentDrill
T3C0.600
; #@! TA.AperFunction,Plated,PTH,ComponentDrill
T4C0.800
; #@! TA.AperFunction,Plated,PTH,ComponentDrill
T5C1.250
%
G90
G05
T1
X225.7Y-77.916
X225.7Y-79.316
X226.4Y-77.216
X226.4Y-78.616
X226.4Y-80.016
X227.1Y-77.916
X227.1Y-79.316
X227.8Y-77.216
X227.8Y-78.616
X227.8Y-80.016
X228.5Y-77.916
X228.5Y-79.316
X239.325Y-123.91
X239.9Y-122.96
X239.9Y-124.86
X240.475Y-123.91
T2
X205.486Y-89.662
X205.486Y-91.44
X205.486Y-93.218
X207.264Y-89.662
X207.264Y-91.44
X207.264Y-93.218
X209.042Y-89.662
X209.042Y-91.44
X209.042Y-93.218
X211.328Y-106.172
X211.328Y-107.95
X211.328Y-109.728
X211.836Y-122.936
X213.106Y-106.172
X213.106Y-107.95
X213.106Y-109.728
X213.563Y-70.866
X214.884Y-58.928
X214.884Y-60.706
X214.884Y-62.484
X214.884Y-106.172
X214.884Y-107.95
X214.884Y-109.728
X216.662Y-58.928
X216.662Y-60.706
X216.662Y-62.484
X216.662Y-75.438
X216.662Y-76.2
X216.662Y-76.962
X217.17Y-120.142
X217.17Y-121.412
X218.44Y-58.928
X218.44Y-60.706
X218.44Y-62.484
X218.694Y-95.25
X218.694Y-97.155
X218.948Y-125.73
X220.45Y-95.25
X221.137Y-79.786
X221.488Y-97.155
X221.488Y-134.366
X221.615Y-91.694
X221.996Y-72.166
X221.996Y-99.568
X222.758Y-99.568
X223.52Y-99.568
X223.774Y-68.326
X224.282Y-142.494
X225.044Y-70.358
X225.044Y-73.66
X225.128Y-84.709
X225.128Y-86.19
X225.552Y-95.631
X226.441Y-90.297
X226.441Y-95.668
X226.568Y-93.599
X226.695Y-85.471
X227.203Y-94.869
X227.33Y-90.297
X227.628Y-132.632
X227.965Y-85.471
X228.6Y-96.52
X232.156Y-100.076
X233.172Y-94.488
X234.188Y-144.272
X234.696Y-95.631
X234.95Y-145.542
X235.204Y-131.318
X235.331Y-83.566
X235.331Y-86.106
X235.458Y-97.282
X236.662Y-104.013
X236.662Y-116.205
X237.236Y-97.155
X237.49Y-102.108
X237.617Y-93.98
X237.807Y-128.714
X238.252Y-103.886
X238.76Y-58.928
X238.76Y-60.706
X238.76Y-62.484
X238.76Y-64.262
X238.76Y-66.04
X238.76Y-67.818
X239.268Y-100.838
X239.395Y-93.98
X239.9Y-123.91
X239.933Y-84.866
X240.03Y-98.679
X240.538Y-58.928
X240.538Y-60.706
X240.538Y-62.484
X240.538Y-64.262
X240.538Y-66.04
X240.538Y-67.818
X241.3Y-78.232
X241.3Y-78.994
X241.3Y-79.756
X241.554Y-128.016
X242.316Y-58.928
X242.316Y-60.706
X242.316Y-62.484
X242.316Y-64.262
X242.316Y-66.04
X242.316Y-67.818
X242.316Y-106.172
X242.316Y-107.95
X242.316Y-109.728
X242.316Y-137.488
X242.824Y-101.092
X242.824Y-102.108
X243.586Y-90.932
X243.586Y-97.536
X244.094Y-103.124
X244.094Y-106.172
X244.094Y-107.95
X244.094Y-109.728
X245.237Y-100.965
X245.872Y-106.172
X245.872Y-107.95
X245.872Y-109.728
X248.158Y-89.662
X248.158Y-91.44
X248.158Y-93.218
X249.936Y-89.662
X249.936Y-91.44
X249.936Y-93.218
X251.714Y-89.662
X251.714Y-91.44
X251.714Y-93.218
T4
X216.44Y-139.7
X218.44Y-139.7
T5
X208.28Y-127.0
X208.28Y-129.54
X208.28Y-132.08
X248.92Y-127.0
X248.92Y-129.54
X248.92Y-132.08
T3
X224.28Y-145.13G85X224.28Y-146.23
G05
X224.28Y-149.46G85X224.28Y-150.26
G05
X232.92Y-145.13G85X232.92Y-146.23
G05
X232.92Y-149.46G85X232.92Y-150.26
G05
M30
