%TF.GenerationSoftware,KiCad,Pcbnew,9.0.6*%
%TF.CreationDate,2026-03-03T19:55:54-06:00*%
%TF.ProjectId,CASE,43415345-2e6b-4696-9361-645f70636258,rev?*%
%TF.SameCoordinates,Original*%
%TF.FileFunction,Copper,L1,Top*%
%TF.FilePolarity,Positive*%
%FSLAX46Y46*%
G04 Gerber Fmt 4.6, Leading zero omitted, Abs format (unit mm)*
G04 Created by KiCad (PCBNEW 9.0.6) date 2026-03-03 19:55:54*
%MOMM*%
%LPD*%
G01*
G04 APERTURE LIST*
G04 Aperture macros list*
%AMRoundRect*
0 Rectangle with rounded corners*
0 $1 Rounding radius*
0 $2 $3 $4 $5 $6 $7 $8 $9 X,Y pos of 4 corners*
0 Add a 4 corners polygon primitive as box body*
4,1,4,$2,$3,$4,$5,$6,$7,$8,$9,$2,$3,0*
0 Add four circle primitives for the rounded corners*
1,1,$1+$1,$2,$3*
1,1,$1+$1,$4,$5*
1,1,$1+$1,$6,$7*
1,1,$1+$1,$8,$9*
0 Add four rect primitives between the rounded corners*
20,1,$1+$1,$2,$3,$4,$5,0*
20,1,$1+$1,$4,$5,$6,$7,0*
20,1,$1+$1,$6,$7,$8,$9,0*
20,1,$1+$1,$8,$9,$2,$3,0*%
%AMFreePoly0*
4,1,21,-0.125000,1.200000,0.125000,1.200000,0.125000,1.700000,0.375000,1.700000,0.375000,1.200000,0.825000,1.200000,0.825000,-1.200000,0.375000,-1.200000,0.375000,-1.700000,0.125000,-1.700000,0.125000,-1.200000,-0.125000,-1.200000,-0.125000,-1.700000,-0.375000,-1.700000,-0.375000,-1.200000,-0.825000,-1.200000,-0.825000,1.200000,-0.375000,1.200000,-0.375000,1.700000,-0.125000,1.700000,
-0.125000,1.200000,-0.125000,1.200000,$1*%
G04 Aperture macros list end*
%TA.AperFunction,SMDPad,CuDef*%
%ADD10RoundRect,0.250000X0.250000X0.475000X-0.250000X0.475000X-0.250000X-0.475000X0.250000X-0.475000X0*%
%TD*%
%TA.AperFunction,SMDPad,CuDef*%
%ADD11R,0.800000X0.800000*%
%TD*%
%TA.AperFunction,SMDPad,CuDef*%
%ADD12RoundRect,0.250000X0.262500X0.450000X-0.262500X0.450000X-0.262500X-0.450000X0.262500X-0.450000X0*%
%TD*%
%TA.AperFunction,SMDPad,CuDef*%
%ADD13RoundRect,0.060000X-0.240000X-0.060000X0.240000X-0.060000X0.240000X0.060000X-0.240000X0.060000X0*%
%TD*%
%TA.AperFunction,ComponentPad*%
%ADD14C,0.500000*%
%TD*%
%TA.AperFunction,SMDPad,CuDef*%
%ADD15FreePoly0,0.000000*%
%TD*%
%TA.AperFunction,SMDPad,CuDef*%
%ADD16RoundRect,0.250000X-0.250000X-0.475000X0.250000X-0.475000X0.250000X0.475000X-0.250000X0.475000X0*%
%TD*%
%TA.AperFunction,SMDPad,CuDef*%
%ADD17R,2.220000X1.240000*%
%TD*%
%TA.AperFunction,ComponentPad*%
%ADD18R,1.308000X1.308000*%
%TD*%
%TA.AperFunction,ComponentPad*%
%ADD19C,1.308000*%
%TD*%
%TA.AperFunction,SMDPad,CuDef*%
%ADD20RoundRect,0.062500X0.062500X-0.350000X0.062500X0.350000X-0.062500X0.350000X-0.062500X-0.350000X0*%
%TD*%
%TA.AperFunction,SMDPad,CuDef*%
%ADD21R,0.279400X0.254000*%
%TD*%
%TA.AperFunction,SMDPad,CuDef*%
%ADD22R,0.254000X0.254000*%
%TD*%
%TA.AperFunction,SMDPad,CuDef*%
%ADD23R,1.600000X2.180000*%
%TD*%
%TA.AperFunction,SMDPad,CuDef*%
%ADD24RoundRect,0.250000X0.450000X-0.262500X0.450000X0.262500X-0.450000X0.262500X-0.450000X-0.262500X0*%
%TD*%
%TA.AperFunction,SMDPad,CuDef*%
%ADD25RoundRect,0.250000X-0.262500X-0.450000X0.262500X-0.450000X0.262500X0.450000X-0.262500X0.450000X0*%
%TD*%
%TA.AperFunction,SMDPad,CuDef*%
%ADD26R,1.500000X0.900000*%
%TD*%
%TA.AperFunction,SMDPad,CuDef*%
%ADD27R,0.900000X1.500000*%
%TD*%
%TA.AperFunction,HeatsinkPad*%
%ADD28C,0.600000*%
%TD*%
%TA.AperFunction,SMDPad,CuDef*%
%ADD29R,3.900000X3.900000*%
%TD*%
%TA.AperFunction,ComponentPad*%
%ADD30R,1.875000X1.875000*%
%TD*%
%TA.AperFunction,ComponentPad*%
%ADD31C,1.875000*%
%TD*%
%TA.AperFunction,SMDPad,CuDef*%
%ADD32R,1.500000X3.600000*%
%TD*%
%TA.AperFunction,SMDPad,CuDef*%
%ADD33RoundRect,0.250000X0.475000X-0.250000X0.475000X0.250000X-0.475000X0.250000X-0.475000X-0.250000X0*%
%TD*%
%TA.AperFunction,SMDPad,CuDef*%
%ADD34RoundRect,0.250000X-0.475000X0.250000X-0.475000X-0.250000X0.475000X-0.250000X0.475000X0.250000X0*%
%TD*%
%TA.AperFunction,SMDPad,CuDef*%
%ADD35R,0.482600X0.254000*%
%TD*%
%TA.AperFunction,SMDPad,CuDef*%
%ADD36R,0.254000X0.482600*%
%TD*%
%TA.AperFunction,SMDPad,CuDef*%
%ADD37RoundRect,0.087500X-0.487500X-0.087500X0.487500X-0.087500X0.487500X0.087500X-0.487500X0.087500X0*%
%TD*%
%TA.AperFunction,SMDPad,CuDef*%
%ADD38RoundRect,0.050000X-0.675000X-0.050000X0.675000X-0.050000X0.675000X0.050000X-0.675000X0.050000X0*%
%TD*%
%TA.AperFunction,SMDPad,CuDef*%
%ADD39RoundRect,0.062500X-0.162500X-0.062500X0.162500X-0.062500X0.162500X0.062500X-0.162500X0.062500X0*%
%TD*%
%TA.AperFunction,SMDPad,CuDef*%
%ADD40RoundRect,0.050000X-0.285000X-0.100000X0.285000X-0.100000X0.285000X0.100000X-0.285000X0.100000X0*%
%TD*%
%TA.AperFunction,SMDPad,CuDef*%
%ADD41RoundRect,0.150000X-0.150000X-0.425000X0.150000X-0.425000X0.150000X0.425000X-0.150000X0.425000X0*%
%TD*%
%TA.AperFunction,SMDPad,CuDef*%
%ADD42RoundRect,0.075000X-0.075000X-0.500000X0.075000X-0.500000X0.075000X0.500000X-0.075000X0.500000X0*%
%TD*%
%TA.AperFunction,HeatsinkPad*%
%ADD43O,1.000000X2.100000*%
%TD*%
%TA.AperFunction,HeatsinkPad*%
%ADD44O,1.000000X1.800000*%
%TD*%
%TA.AperFunction,SMDPad,CuDef*%
%ADD45R,3.000000X3.050000*%
%TD*%
%TA.AperFunction,ViaPad*%
%ADD46C,0.600000*%
%TD*%
%TA.AperFunction,Conductor*%
%ADD47C,0.200000*%
%TD*%
G04 APERTURE END LIST*
D10*
%TO.P,C114,1*%
%TO.N,/RESET_SW*%
X208483200Y-72796400D03*
%TO.P,C114,2*%
%TO.N,GND*%
X206583200Y-72796400D03*
%TD*%
D11*
%TO.P,D102,1*%
%TO.N,GND*%
X230293333Y-60325000D03*
%TO.P,D102,2*%
%TO.N,Net-(D102-Pad2)*%
X230293333Y-61975000D03*
%TD*%
D10*
%TO.P,C110,1*%
%TO.N,GND*%
X234122000Y-97155000D03*
%TO.P,C110,2*%
%TO.N,+3V3*%
X232222000Y-97155000D03*
%TD*%
D11*
%TO.P,D103,1*%
%TO.N,GND*%
X226906667Y-60325000D03*
%TO.P,D103,2*%
%TO.N,Net-(D103-Pad2)*%
X226906667Y-61975000D03*
%TD*%
D12*
%TO.P,R109,1*%
%TO.N,/USB_PWR*%
X224940500Y-132588000D03*
%TO.P,R109,2*%
%TO.N,Net-(U104-PR1)*%
X223115500Y-132588000D03*
%TD*%
D13*
%TO.P,U105,1,VOUT*%
%TO.N,+3V3*%
X238500000Y-122910000D03*
%TO.P,U105,2,L2*%
%TO.N,Net-(U105-L2)*%
X238500000Y-123410000D03*
%TO.P,U105,3,PGND*%
%TO.N,GND*%
X238500000Y-123910000D03*
%TO.P,U105,4,L1*%
%TO.N,Net-(U105-L1)*%
X238500000Y-124410000D03*
%TO.P,U105,5,VIN*%
%TO.N,/RAW_PWR*%
X238500000Y-124910000D03*
%TO.P,U105,6,EN*%
X241300000Y-124910000D03*
%TO.P,U105,7,PS/SYNC*%
X241300000Y-124410000D03*
%TO.P,U105,8,VINA*%
X241300000Y-123910000D03*
%TO.P,U105,9,GND*%
%TO.N,GND*%
X241300000Y-123410000D03*
%TO.P,U105,10,FB*%
%TO.N,Net-(U105-FB)*%
X241300000Y-122910000D03*
D14*
%TO.P,U105,11,PGND*%
%TO.N,GND*%
X239325000Y-123910000D03*
X239900000Y-122960000D03*
D15*
X239900000Y-123910000D03*
D14*
X239900000Y-124860000D03*
X240475000Y-123910000D03*
%TD*%
D12*
%TO.P,R128,1*%
%TO.N,/RESET_SW*%
X208430500Y-70578400D03*
%TO.P,R128,2*%
%TO.N,+3V3*%
X206605500Y-70578400D03*
%TD*%
D16*
%TO.P,C104,1*%
%TO.N,/RAW_PWR*%
X220538000Y-121412000D03*
%TO.P,C104,2*%
%TO.N,GND*%
X222438000Y-121412000D03*
%TD*%
D17*
%TO.P,L102,1,1*%
%TO.N,Net-(U105-L2)*%
X234442000Y-122862000D03*
%TO.P,L102,2,2*%
%TO.N,Net-(U105-L1)*%
X234442000Y-125042000D03*
%TD*%
D18*
%TO.P,J101,1,1*%
%TO.N,GND*%
X218440000Y-139700000D03*
D19*
%TO.P,J101,2,2*%
%TO.N,/BAT_PWR*%
X216440000Y-139700000D03*
%TD*%
D11*
%TO.P,D101,1*%
%TO.N,GND*%
X233680000Y-60325000D03*
%TO.P,D101,2*%
%TO.N,Net-(D101-Pad2)*%
X233680000Y-61975000D03*
%TD*%
D20*
%TO.P,U102,1,D+_in*%
%TO.N,Net-(U102-D+_in)*%
X239387000Y-138863500D03*
%TO.P,U102,2,D-_in*%
%TO.N,Net-(U102-D-_in)*%
X239887000Y-138863500D03*
%TO.P,U102,3,GND*%
%TO.N,unconnected-(U102-GND-Pad3)*%
X240387000Y-138863500D03*
%TO.P,U102,4,NC*%
%TO.N,GND*%
X240387000Y-137488500D03*
%TO.P,U102,5,D-_out*%
%TO.N,/USB_D-*%
X239887000Y-137488500D03*
%TO.P,U102,6,D+_out*%
%TO.N,/USB_D+*%
X239387000Y-137488500D03*
%TD*%
D10*
%TO.P,C111,1*%
%TO.N,+3V3*%
X236662000Y-100584000D03*
%TO.P,C111,2*%
%TO.N,GND*%
X234762000Y-100584000D03*
%TD*%
D21*
%TO.P,U107,1,VDDIO*%
%TO.N,+3V3*%
X238509398Y-100592000D03*
%TO.P,U107,2,SCK*%
%TO.N,/SCK*%
X238509398Y-101092000D03*
D22*
%TO.P,U107,3,VSS*%
%TO.N,GND*%
X238769700Y-101615001D03*
%TO.P,U107,4,SDI*%
%TO.N,/MOSI*%
X239269699Y-101615001D03*
%TO.P,U107,5,SDO*%
%TO.N,/MISO*%
X239769698Y-101615001D03*
D21*
%TO.P,U107,6,CSB*%
%TO.N,/BMP_CS*%
X240030000Y-101092000D03*
%TO.P,U107,7,INT*%
%TO.N,/BMP_INT*%
X240030000Y-100592000D03*
D22*
%TO.P,U107,8,VSS*%
%TO.N,GND*%
X239769698Y-100068999D03*
%TO.P,U107,9,VSS*%
X239269699Y-100068999D03*
%TO.P,U107,10,VDD*%
%TO.N,+3V3*%
X238769700Y-100068999D03*
%TD*%
D10*
%TO.P,C109,1*%
%TO.N,+3V3*%
X228026000Y-99568000D03*
%TO.P,C109,2*%
%TO.N,GND*%
X226126000Y-99568000D03*
%TD*%
D23*
%TO.P,SW103,1,1*%
%TO.N,/RESET_SW*%
X211328000Y-76690000D03*
%TO.P,SW103,2,2*%
%TO.N,GND*%
X211328000Y-85870000D03*
%TD*%
D24*
%TO.P,R104,1*%
%TO.N,/LED_RED*%
X230293333Y-66698500D03*
%TO.P,R104,2*%
%TO.N,Net-(D102-Pad2)*%
X230293333Y-64873500D03*
%TD*%
D12*
%TO.P,R112,1*%
%TO.N,+3V3*%
X245768500Y-119634000D03*
%TO.P,R112,2*%
%TO.N,Net-(U105-FB)*%
X243943500Y-119634000D03*
%TD*%
D11*
%TO.P,D105,1*%
%TO.N,GND*%
X236283000Y-133858000D03*
%TO.P,D105,2*%
%TO.N,Net-(D105-Pad2)*%
X234633000Y-133858000D03*
%TD*%
D25*
%TO.P,R114,1*%
%TO.N,/RAW_PWR*%
X230989500Y-133858000D03*
%TO.P,R114,2*%
%TO.N,Net-(D105-Pad2)*%
X232814500Y-133858000D03*
%TD*%
D16*
%TO.P,C107,1*%
%TO.N,/RAW_PWR*%
X243906000Y-126238000D03*
%TO.P,C107,2*%
%TO.N,GND*%
X245806000Y-126238000D03*
%TD*%
D24*
%TO.P,R106,1*%
%TO.N,/LED_YELLOW*%
X226906667Y-66698500D03*
%TO.P,R106,2*%
%TO.N,Net-(D103-Pad2)*%
X226906667Y-64873500D03*
%TD*%
%TO.P,R107,1*%
%TO.N,/LED_GREEN*%
X223520000Y-66698500D03*
%TO.P,R107,2*%
%TO.N,Net-(D104-Pad2)*%
X223520000Y-64873500D03*
%TD*%
D26*
%TO.P,U103,1,GND*%
%TO.N,GND*%
X219850000Y-70895999D03*
%TO.P,U103,2,3V3*%
%TO.N,+3V3*%
X219850000Y-72165999D03*
%TO.P,U103,3,EN*%
%TO.N,/RESET_SW*%
X219850000Y-73435999D03*
%TO.P,U103,4,IO4*%
%TO.N,unconnected-(U103-IO4-Pad4)*%
X219850000Y-74705999D03*
%TO.P,U103,5,IO5*%
%TO.N,unconnected-(U103-IO5-Pad5)*%
X219850000Y-75975999D03*
%TO.P,U103,6,IO6*%
%TO.N,unconnected-(U103-IO6-Pad6)*%
X219850000Y-77245999D03*
%TO.P,U103,7,IO7*%
%TO.N,/BMI_INT1*%
X219850000Y-78515999D03*
%TO.P,U103,8,IO15*%
%TO.N,/BMI_INT2*%
X219850000Y-79785999D03*
%TO.P,U103,9,IO16*%
%TO.N,/LED_GREEN*%
X219850000Y-81055999D03*
%TO.P,U103,10,IO17*%
%TO.N,/LED_YELLOW*%
X219850000Y-82325999D03*
%TO.P,U103,11,IO18*%
%TO.N,/LED_RED*%
X219850000Y-83595999D03*
%TO.P,U103,12,IO8*%
%TO.N,/LED_ORANGE*%
X219850000Y-84865999D03*
%TO.P,U103,13,IO19*%
%TO.N,/USB_D-*%
X219850000Y-86135999D03*
%TO.P,U103,14,IO20*%
%TO.N,/USB_D+*%
X219850000Y-87405999D03*
D27*
%TO.P,U103,15,IO3*%
%TO.N,/BMP_INT*%
X221615000Y-88655999D03*
%TO.P,U103,16,IO46*%
%TO.N,unconnected-(U103-IO46-Pad16)*%
X222885000Y-88655999D03*
%TO.P,U103,17,IO9*%
%TO.N,/BMP_CS*%
X224155000Y-88655999D03*
%TO.P,U103,18,IO10*%
%TO.N,/BMI_CS*%
X225425000Y-88655999D03*
%TO.P,U103,19,IO11*%
%TO.N,/TVC_X*%
X226695000Y-88655999D03*
%TO.P,U103,20,IO12*%
%TO.N,/TVC_Y*%
X227965000Y-88655999D03*
%TO.P,U103,21,IO13*%
%TO.N,/BUZZER*%
X229235000Y-88655999D03*
%TO.P,U103,22,IO14*%
%TO.N,unconnected-(U103-IO14-Pad22)*%
X230505000Y-88655999D03*
%TO.P,U103,23,IO21*%
%TO.N,unconnected-(U103-IO21-Pad23)*%
X231775000Y-88655999D03*
%TO.P,U103,24,IO47*%
%TO.N,unconnected-(U103-IO47-Pad24)*%
X233045000Y-88655999D03*
%TO.P,U103,25,IO48*%
%TO.N,unconnected-(U103-IO48-Pad25)*%
X234315000Y-88655999D03*
%TO.P,U103,26,IO45*%
%TO.N,unconnected-(U103-IO45-Pad26)*%
X235585000Y-88655999D03*
D26*
%TO.P,U103,27,IO0*%
%TO.N,/BOOT_SW*%
X237350000Y-87405999D03*
%TO.P,U103,28,IO35*%
%TO.N,/MOSI*%
X237350000Y-86135999D03*
%TO.P,U103,29,IO36*%
%TO.N,/SCK*%
X237350000Y-84865999D03*
%TO.P,U103,30,IO37*%
%TO.N,/MISO*%
X237350000Y-83595999D03*
%TO.P,U103,31,IO38*%
%TO.N,unconnected-(U103-IO38-Pad31)*%
X237350000Y-82325999D03*
%TO.P,U103,32,IO39*%
%TO.N,unconnected-(U103-IO39-Pad32)*%
X237350000Y-81055999D03*
%TO.P,U103,33,IO40*%
%TO.N,unconnected-(U103-IO40-Pad33)*%
X237350000Y-79785999D03*
%TO.P,U103,34,IO41*%
%TO.N,unconnected-(U103-IO41-Pad34)*%
X237350000Y-78515999D03*
%TO.P,U103,35,IO42*%
%TO.N,unconnected-(U103-IO42-Pad35)*%
X237350000Y-77245999D03*
%TO.P,U103,36,RXD0*%
%TO.N,unconnected-(U103-RXD0-Pad36)*%
X237350000Y-75975999D03*
%TO.P,U103,37,TXD0*%
%TO.N,unconnected-(U103-TXD0-Pad37)*%
X237350000Y-74705999D03*
%TO.P,U103,38,IO2*%
%TO.N,unconnected-(U103-IO2-Pad38)*%
X237350000Y-73435999D03*
%TO.P,U103,39,IO1*%
%TO.N,unconnected-(U103-IO1-Pad39)*%
X237350000Y-72165999D03*
%TO.P,U103,40,GND*%
%TO.N,GND*%
X237350000Y-70895999D03*
D28*
%TO.P,U103,41,EPAD*%
X225700000Y-77915999D03*
X225700000Y-79315999D03*
X226400000Y-77215999D03*
X226400000Y-78615999D03*
X226400000Y-80015999D03*
X227100000Y-77915999D03*
D29*
X227100000Y-78615999D03*
D28*
X227100000Y-79315999D03*
X227800000Y-77215999D03*
X227800000Y-78615999D03*
X227800000Y-80015999D03*
X228500000Y-77915999D03*
X228500000Y-79315999D03*
%TD*%
D23*
%TO.P,SW101,1,1*%
%TO.N,/BOOT_SW*%
X245618000Y-76690000D03*
%TO.P,SW101,2,2*%
%TO.N,GND*%
X245618000Y-85870000D03*
%TD*%
D30*
%TO.P,J102,1,1*%
%TO.N,+5V*%
X208280000Y-132080000D03*
D31*
%TO.P,J102,2,2*%
%TO.N,/TVC_X*%
X208280000Y-129540000D03*
%TO.P,J102,3,3*%
%TO.N,GND*%
X208280000Y-127000000D03*
%TD*%
D32*
%TO.P,L101,1,1*%
%TO.N,/RAW_PWR*%
X218763500Y-116840000D03*
%TO.P,L101,2,2*%
%TO.N,Net-(U101-SW)*%
X215713500Y-116840000D03*
%TD*%
D25*
%TO.P,R101,1*%
%TO.N,Net-(J104-CC1)*%
X227306500Y-139446000D03*
%TO.P,R101,2*%
%TO.N,GND*%
X229131500Y-139446000D03*
%TD*%
D33*
%TO.P,C103,1*%
%TO.N,+3V3*%
X215392000Y-69022000D03*
%TO.P,C103,2*%
%TO.N,GND*%
X215392000Y-67122000D03*
%TD*%
%TO.P,C108,1*%
%TO.N,+3V3*%
X235204000Y-119568000D03*
%TO.P,C108,2*%
%TO.N,GND*%
X235204000Y-117668000D03*
%TD*%
D34*
%TO.P,C113,1*%
%TO.N,GND*%
X245618000Y-70866000D03*
%TO.P,C113,2*%
%TO.N,/BOOT_SW*%
X245618000Y-72766000D03*
%TD*%
D12*
%TO.P,R108,1*%
%TO.N,Net-(U104-PR1)*%
X224940500Y-134874000D03*
%TO.P,R108,2*%
%TO.N,GND*%
X223115500Y-134874000D03*
%TD*%
D33*
%TO.P,C102,1*%
%TO.N,+3V3*%
X217678000Y-69022000D03*
%TO.P,C102,2*%
%TO.N,GND*%
X217678000Y-67122000D03*
%TD*%
D25*
%TO.P,R115,1*%
%TO.N,+5V*%
X216765500Y-127508000D03*
%TO.P,R115,2*%
%TO.N,Net-(D106-Pad2)*%
X218590500Y-127508000D03*
%TD*%
D35*
%TO.P,U106,1,SDO*%
%TO.N,/MISO*%
X227406200Y-95668399D03*
%TO.P,U106,2,NC*%
%TO.N,unconnected-(U106-NC-Pad2)*%
X227406200Y-96168400D03*
%TO.P,U106,3,NC*%
%TO.N,unconnected-(U106-NC-Pad3)*%
X227406200Y-96668400D03*
%TO.P,U106,4,INT1*%
%TO.N,/BMI_INT1*%
X227406200Y-97168401D03*
D36*
%TO.P,U106,5,VDDIO*%
%TO.N,+3V3*%
X228061901Y-97332800D03*
%TO.P,U106,6,GNDIO*%
%TO.N,GND*%
X228561900Y-97332800D03*
%TO.P,U106,7,GND*%
X229061899Y-97332800D03*
D35*
%TO.P,U106,8,VDD*%
%TO.N,+3V3*%
X229717600Y-97168401D03*
%TO.P,U106,9,INT2*%
%TO.N,/BMI_INT2*%
X229717600Y-96668400D03*
%TO.P,U106,10,NC*%
%TO.N,unconnected-(U106-NC-Pad10)*%
X229717600Y-96168400D03*
%TO.P,U106,11,NC*%
%TO.N,unconnected-(U106-NC-Pad11)*%
X229717600Y-95668399D03*
D36*
%TO.P,U106,12,CSB*%
%TO.N,/BMI_CS*%
X229061899Y-95504000D03*
%TO.P,U106,13,SCX*%
%TO.N,/SCK*%
X228561900Y-95504000D03*
%TO.P,U106,14,SDX*%
%TO.N,/MOSI*%
X228061901Y-95504000D03*
%TD*%
D34*
%TO.P,C101,1*%
%TO.N,GND*%
X211328000Y-70866000D03*
%TO.P,C101,2*%
%TO.N,/RESET_SW*%
X211328000Y-72766000D03*
%TD*%
D11*
%TO.P,D104,1*%
%TO.N,GND*%
X223520000Y-60325000D03*
%TO.P,D104,2*%
%TO.N,Net-(D104-Pad2)*%
X223520000Y-61975000D03*
%TD*%
D37*
%TO.P,U101,1,GND*%
%TO.N,GND*%
X216746000Y-123360000D03*
D38*
%TO.P,U101,2,SW*%
%TO.N,Net-(U101-SW)*%
X216896000Y-123910000D03*
D37*
%TO.P,U101,3,VOUT*%
%TO.N,+5V*%
X216746000Y-124460000D03*
D39*
%TO.P,U101,4,FB*%
%TO.N,Net-(U101-FB)*%
X218346000Y-124660000D03*
%TO.P,U101,5,EN*%
%TO.N,/RAW_PWR*%
X218346000Y-124160000D03*
%TO.P,U101,6,MODE*%
%TO.N,GND*%
X218346000Y-123660000D03*
%TO.P,U101,7,VIN*%
%TO.N,/RAW_PWR*%
X218346000Y-123160000D03*
%TD*%
D40*
%TO.P,U104,1,GND*%
%TO.N,GND*%
X227628000Y-133374000D03*
%TO.P,U104,2,VOUT*%
%TO.N,/RAW_PWR*%
X227628000Y-133874000D03*
%TO.P,U104,3,VIN1*%
%TO.N,/USB_PWR*%
X227628000Y-134374000D03*
%TO.P,U104,4,PR1*%
%TO.N,Net-(U104-PR1)*%
X227628000Y-134874000D03*
%TO.P,U104,5,MODE*%
%TO.N,/USB_PWR*%
X229108000Y-134874000D03*
%TO.P,U104,6,VIN2*%
%TO.N,/BAT_PWR*%
X229108000Y-134374000D03*
%TO.P,U104,7,VOUT*%
%TO.N,/RAW_PWR*%
X229108000Y-133874000D03*
%TO.P,U104,8,ST*%
%TO.N,unconnected-(U104-ST-Pad8)*%
X229108000Y-133374000D03*
%TD*%
D25*
%TO.P,R111,1*%
%TO.N,Net-(U101-FB)*%
X220575500Y-124714000D03*
%TO.P,R111,2*%
%TO.N,GND*%
X222400500Y-124714000D03*
%TD*%
D11*
%TO.P,D107,1*%
%TO.N,GND*%
X238506000Y-114428000D03*
%TO.P,D107,2*%
%TO.N,Net-(D107-Pad2)*%
X238506000Y-116078000D03*
%TD*%
D25*
%TO.P,R110,1*%
%TO.N,+5V*%
X216765500Y-130556000D03*
%TO.P,R110,2*%
%TO.N,Net-(U101-FB)*%
X218590500Y-130556000D03*
%TD*%
D41*
%TO.P,J104,A1,GND*%
%TO.N,GND*%
X225400000Y-145105000D03*
%TO.P,J104,A4,VBUS*%
%TO.N,/USB_PWR*%
X226200000Y-145105000D03*
D42*
%TO.P,J104,A5,CC1*%
%TO.N,Net-(J104-CC1)*%
X227350000Y-145105000D03*
%TO.P,J104,A6,D+*%
%TO.N,Net-(U102-D-_in)*%
X228350000Y-145105000D03*
%TO.P,J104,A7,D-*%
%TO.N,Net-(U102-D+_in)*%
X228850000Y-145105000D03*
%TO.P,J104,A8,SBU1*%
%TO.N,unconnected-(J104-SBU1-PadA8)*%
X229850000Y-145105000D03*
D41*
%TO.P,J104,A9,VBUS*%
%TO.N,/USB_PWR*%
X231000000Y-145105000D03*
%TO.P,J104,A12,GND*%
%TO.N,GND*%
X231800000Y-145105000D03*
%TO.P,J104,B1,GND*%
X231800000Y-145105000D03*
%TO.P,J104,B4,VBUS*%
%TO.N,/USB_PWR*%
X231000000Y-145105000D03*
D42*
%TO.P,J104,B5,CC2*%
%TO.N,Net-(J104-CC2)*%
X230350000Y-145105000D03*
%TO.P,J104,B6,D+*%
%TO.N,Net-(U102-D-_in)*%
X229350000Y-145105000D03*
%TO.P,J104,B7,D-*%
%TO.N,Net-(U102-D+_in)*%
X227850000Y-145105000D03*
%TO.P,J104,B8,SBU2*%
%TO.N,unconnected-(J104-SBU2-PadB8)*%
X226850000Y-145105000D03*
D41*
%TO.P,J104,B9,VBUS*%
%TO.N,/USB_PWR*%
X226200000Y-145105000D03*
%TO.P,J104,B12,GND*%
%TO.N,GND*%
X225400000Y-145105000D03*
D43*
%TO.P,J104,S1,SHIELD*%
X224280000Y-145680000D03*
D44*
X224280000Y-149860000D03*
D43*
X232920000Y-145680000D03*
D44*
X232920000Y-149860000D03*
%TD*%
D33*
%TO.P,C112,1*%
%TO.N,+3V3*%
X238760000Y-98232000D03*
%TO.P,C112,2*%
%TO.N,GND*%
X238760000Y-96332000D03*
%TD*%
D25*
%TO.P,R102,1*%
%TO.N,Net-(J104-CC2)*%
X236657500Y-143129000D03*
%TO.P,R102,2*%
%TO.N,GND*%
X238482500Y-143129000D03*
%TD*%
D10*
%TO.P,C106,1*%
%TO.N,+5V*%
X213802000Y-124460000D03*
%TO.P,C106,2*%
%TO.N,GND*%
X211902000Y-124460000D03*
%TD*%
%TO.P,C105,1*%
%TO.N,+5V*%
X213802000Y-121412000D03*
%TO.P,C105,2*%
%TO.N,GND*%
X211902000Y-121412000D03*
%TD*%
D45*
%TO.P,LS101,N*%
%TO.N,GND*%
X228349250Y-113445000D03*
%TO.P,LS101,P*%
%TO.N,/BUZZER*%
X228349250Y-104995000D03*
%TD*%
D30*
%TO.P,J103,1,1*%
%TO.N,+5V*%
X248920000Y-132080000D03*
D31*
%TO.P,J103,2,2*%
%TO.N,/TVC_Y*%
X248920000Y-129540000D03*
%TO.P,J103,3,3*%
%TO.N,GND*%
X248920000Y-127000000D03*
%TD*%
D11*
%TO.P,D106,1*%
%TO.N,GND*%
X222313000Y-127508000D03*
%TO.P,D106,2*%
%TO.N,Net-(D106-Pad2)*%
X220663000Y-127508000D03*
%TD*%
D24*
%TO.P,R105,1*%
%TO.N,/LED_ORANGE*%
X233680000Y-66698500D03*
%TO.P,R105,2*%
%TO.N,Net-(D101-Pad2)*%
X233680000Y-64873500D03*
%TD*%
D25*
%TO.P,R113,1*%
%TO.N,Net-(U105-FB)*%
X243943500Y-122936000D03*
%TO.P,R113,2*%
%TO.N,GND*%
X245768500Y-122936000D03*
%TD*%
D24*
%TO.P,R116,1*%
%TO.N,+3V3*%
X238506000Y-119530500D03*
%TO.P,R116,2*%
%TO.N,Net-(D107-Pad2)*%
X238506000Y-117705500D03*
%TD*%
D46*
%TO.N,GND*%
X245872000Y-109728000D03*
X227628000Y-132632000D03*
X207264000Y-91440000D03*
X238760000Y-58928000D03*
X216662000Y-76200000D03*
X214884000Y-109728000D03*
X242316000Y-106172000D03*
X242316000Y-137488500D03*
X240538000Y-64262000D03*
X232156000Y-100076000D03*
X211328000Y-109728000D03*
X243586000Y-97536000D03*
X251714000Y-93218000D03*
X248158000Y-91440000D03*
X209042000Y-93218000D03*
X251714000Y-91440000D03*
X225044000Y-73660000D03*
X234950000Y-145542000D03*
X244094000Y-107950000D03*
X249936000Y-93218000D03*
X217170000Y-121412000D03*
X222758000Y-99568000D03*
X249936000Y-89662000D03*
X238760000Y-62484000D03*
X223774000Y-68326000D03*
X240538000Y-66040000D03*
X242824000Y-101092000D03*
X209042000Y-89662000D03*
X218440000Y-58928000D03*
X205486000Y-89662000D03*
X242316000Y-58928000D03*
X242316000Y-107950000D03*
X242316000Y-64262000D03*
X213106000Y-107950000D03*
X224282000Y-142494000D03*
X223520000Y-99568000D03*
X213106000Y-109728000D03*
X214884000Y-62484000D03*
X221996000Y-99568000D03*
X213106000Y-106172000D03*
X216662000Y-76962000D03*
X217170000Y-120142000D03*
X221488000Y-134366000D03*
X238760000Y-66040000D03*
X238760000Y-64262000D03*
X241554000Y-128016000D03*
X238252000Y-103886000D03*
X211836000Y-122936000D03*
X241300000Y-78232000D03*
X245872000Y-107950000D03*
X218948000Y-125730000D03*
X211328000Y-107950000D03*
X240538000Y-67818000D03*
X242316000Y-60706000D03*
X216662000Y-60706000D03*
X240538000Y-58928000D03*
X249936000Y-91440000D03*
X240538000Y-62484000D03*
X248158000Y-93218000D03*
X242316000Y-67818000D03*
X214884000Y-107950000D03*
X235458000Y-97282000D03*
X214884000Y-106172000D03*
X209042000Y-91440000D03*
X239900000Y-123910000D03*
X225044000Y-70358000D03*
X241300000Y-79756000D03*
X244094000Y-109728000D03*
X241300000Y-78994000D03*
X243586000Y-90932000D03*
X218440000Y-60706000D03*
X240538000Y-60706000D03*
X216662000Y-62484000D03*
X238760000Y-67818000D03*
X242316000Y-66040000D03*
X207264000Y-93218000D03*
X244094000Y-103124000D03*
X238760000Y-60706000D03*
X216662000Y-75438000D03*
X234188000Y-144272000D03*
X205486000Y-91440000D03*
X244094000Y-106172000D03*
X242316000Y-62484000D03*
X213563200Y-70866000D03*
X214884000Y-58928000D03*
X214884000Y-60706000D03*
X248158000Y-89662000D03*
X216662000Y-58928000D03*
X205486000Y-93218000D03*
X228600000Y-96520000D03*
X245872000Y-106172000D03*
X218440000Y-62484000D03*
X211328000Y-106172000D03*
X242316000Y-109728000D03*
X239268000Y-100838000D03*
X251714000Y-89662000D03*
X207264000Y-89662000D03*
%TO.N,+3V3*%
X227330000Y-90297000D03*
X236662000Y-116205000D03*
X221996000Y-72165999D03*
X236662000Y-104013000D03*
%TO.N,/RAW_PWR*%
X237807500Y-128714500D03*
X235204000Y-131318000D03*
%TO.N,/TVC_X*%
X226695000Y-85471000D03*
%TO.N,/TVC_Y*%
X227965000Y-85471000D03*
%TO.N,/USB_D-*%
X220450000Y-95250000D03*
X218694000Y-95250000D03*
%TO.N,/MISO*%
X234696000Y-95631000D03*
X237617000Y-93980000D03*
X235331000Y-83566000D03*
X226441000Y-95668399D03*
%TO.N,/SCK*%
X242824000Y-102108000D03*
X239932998Y-84865998D03*
X225552000Y-95631000D03*
X237490000Y-102108000D03*
X245237000Y-100965000D03*
%TO.N,/BMP_CS*%
X226568000Y-93599000D03*
X237236000Y-97155000D03*
%TO.N,/MOSI*%
X233172000Y-94488000D03*
X235331000Y-86106000D03*
X227203000Y-94869000D03*
X239395000Y-93980000D03*
%TO.N,/BMP_INT*%
X240030000Y-98679000D03*
X221615000Y-91694000D03*
%TO.N,/BMI_INT1*%
X221488000Y-97155000D03*
X218694000Y-97155000D03*
%TO.N,/BMI_INT2*%
X221136999Y-79785999D03*
X226441000Y-90297000D03*
X225127735Y-86189735D03*
X225127735Y-84709000D03*
%TD*%
D47*
%TO.N,/RESET_SW*%
X208483200Y-72796400D02*
X208483200Y-70631100D01*
X208483200Y-70631100D02*
X208430500Y-70578400D01*
X208483200Y-72796400D02*
X211297600Y-72796400D01*
X211297600Y-72796400D02*
X211328000Y-72766000D01*
%TO.N,GND*%
X227628000Y-132632000D02*
X227628000Y-133374000D01*
X231800000Y-145105000D02*
X232633000Y-144272000D01*
X225400000Y-145105000D02*
X225400000Y-143612000D01*
X217894000Y-123660000D02*
X217594000Y-123360000D01*
X232633000Y-144272000D02*
X234188000Y-144272000D01*
X217594000Y-123360000D02*
X216746000Y-123360000D01*
X238500000Y-123910000D02*
X239900000Y-123910000D01*
X216746000Y-123360000D02*
X217170000Y-122936000D01*
X239769698Y-100068999D02*
X239269699Y-100068999D01*
X242316000Y-137488500D02*
X240387000Y-137488500D01*
X225400000Y-143612000D02*
X224282000Y-142494000D01*
X239269699Y-100068999D02*
X239269699Y-100836301D01*
X218346000Y-123660000D02*
X217894000Y-123660000D01*
X217170000Y-122936000D02*
X217170000Y-121412000D01*
X241300000Y-123410000D02*
X240400000Y-123410000D01*
X238769700Y-101615001D02*
X238769700Y-103368300D01*
X229061899Y-97332800D02*
X228561900Y-97332800D01*
X238769700Y-103368300D02*
X238252000Y-103886000D01*
X240400000Y-123410000D02*
X239900000Y-123910000D01*
X239269699Y-100836301D02*
X239268000Y-100838000D01*
%TO.N,/RESET_SW*%
X208430500Y-72758900D02*
X208468000Y-72796400D01*
X214582001Y-73435999D02*
X219850000Y-73435999D01*
X211328000Y-76690000D02*
X211328000Y-72766000D01*
X211328000Y-76690000D02*
X214582001Y-73435999D01*
%TO.N,+3V3*%
X216334499Y-72165999D02*
X221996000Y-72165999D01*
X229320999Y-98044000D02*
X229717600Y-97647399D01*
X228061901Y-97332800D02*
X228061901Y-98044000D01*
X236662000Y-100584000D02*
X236662000Y-100010000D01*
X233873000Y-98806000D02*
X232222000Y-97155000D01*
X238501398Y-100584000D02*
X238509398Y-100592000D01*
X235905000Y-119568000D02*
X235204000Y-119568000D01*
X236670000Y-100592000D02*
X236662000Y-100584000D01*
X235966000Y-99314000D02*
X235458000Y-98806000D01*
X241784500Y-119530500D02*
X243078000Y-118237000D01*
X238468500Y-119568000D02*
X238506000Y-119530500D01*
X236662000Y-100010000D02*
X235966000Y-99314000D01*
X238506000Y-119530500D02*
X241784500Y-119530500D01*
X238769700Y-99314000D02*
X235966000Y-99314000D01*
X243078000Y-118237000D02*
X245364000Y-118237000D01*
X238509398Y-100592000D02*
X236670000Y-100592000D01*
X228061901Y-99532099D02*
X228026000Y-99568000D01*
X232222000Y-97155000D02*
X232222000Y-95189000D01*
X208161900Y-69022000D02*
X215392000Y-69022000D01*
X235458000Y-98806000D02*
X233873000Y-98806000D01*
X238769700Y-100068999D02*
X238769700Y-99314000D01*
X232108401Y-97168401D02*
X232222000Y-97282000D01*
X238500000Y-122910000D02*
X238500000Y-119282500D01*
X218900000Y-72165999D02*
X221996000Y-72165999D01*
X245745000Y-119126000D02*
X245768500Y-119149500D01*
X232208599Y-97168401D02*
X232222000Y-97155000D01*
X236662000Y-116205000D02*
X236662000Y-118811000D01*
X235204000Y-119568000D02*
X238468500Y-119568000D01*
X206605500Y-70578400D02*
X208161900Y-69022000D01*
X238500000Y-119282500D02*
X238506000Y-119276500D01*
X245364000Y-118237000D02*
X245745000Y-118618000D01*
X238760000Y-100059299D02*
X238769700Y-100068999D01*
X217678000Y-69022000D02*
X217678000Y-70943999D01*
X215392000Y-71223500D02*
X216334499Y-72165999D01*
X228061901Y-98044000D02*
X228061901Y-99532099D01*
X232222000Y-95189000D02*
X227330000Y-90297000D01*
X245745000Y-118618000D02*
X245745000Y-119126000D01*
X236662000Y-104013000D02*
X236662000Y-100584000D01*
X229717600Y-97168401D02*
X232208599Y-97168401D01*
X238769700Y-99314000D02*
X238769700Y-98241700D01*
X229717600Y-97647399D02*
X229717600Y-97168401D01*
X238769700Y-98241700D02*
X238760000Y-98232000D01*
X245768500Y-119149500D02*
X245768500Y-119634000D01*
X217678000Y-70943999D02*
X218900000Y-72165999D01*
X215392000Y-69022000D02*
X215392000Y-71223500D01*
X228061901Y-98044000D02*
X229320999Y-98044000D01*
X236662000Y-118811000D02*
X235905000Y-119568000D01*
%TO.N,/RAW_PWR*%
X242578000Y-124910000D02*
X241300000Y-124910000D01*
X241578000Y-123910000D02*
X242078000Y-124410000D01*
X238500000Y-128022000D02*
X238500000Y-127000000D01*
X230989500Y-133858000D02*
X229124000Y-133858000D01*
X243906000Y-126238000D02*
X242578000Y-124910000D01*
X220980000Y-116840000D02*
X218763500Y-116840000D01*
X238500000Y-127000000D02*
X238500000Y-125724000D01*
X238500000Y-124910000D02*
X238500000Y-125724000D01*
X238500000Y-127000000D02*
X238500000Y-126752000D01*
X241300000Y-123910000D02*
X241578000Y-123910000D01*
X220538000Y-122208798D02*
X220538000Y-121412000D01*
X238500000Y-126752000D02*
X239014000Y-126238000D01*
X227628000Y-133874000D02*
X229108000Y-133874000D01*
X220538000Y-121412000D02*
X218790000Y-123160000D01*
X218763500Y-123090500D02*
X218763500Y-116840000D01*
X225044000Y-127912500D02*
X225044000Y-120904000D01*
X225044000Y-120904000D02*
X220980000Y-116840000D01*
X218694000Y-123160000D02*
X218763500Y-123090500D01*
X218346000Y-124160000D02*
X218586798Y-124160000D01*
X239014000Y-126238000D02*
X243906000Y-126238000D01*
X237807500Y-128714500D02*
X238500000Y-128022000D01*
X238500000Y-125724000D02*
X239014000Y-126238000D01*
X242078000Y-124410000D02*
X242578000Y-124910000D01*
X230989500Y-133858000D02*
X225044000Y-127912500D01*
X218586798Y-124160000D02*
X220538000Y-122208798D01*
X241300000Y-124410000D02*
X242078000Y-124410000D01*
X218346000Y-123160000D02*
X218694000Y-123160000D01*
X229124000Y-133858000D02*
X229108000Y-133874000D01*
X218790000Y-123160000D02*
X218346000Y-123160000D01*
X230989500Y-133858000D02*
X233529500Y-131318000D01*
X233529500Y-131318000D02*
X235204000Y-131318000D01*
%TO.N,+5V*%
X213802000Y-121412000D02*
X213802000Y-124460000D01*
X216746000Y-124460000D02*
X215900000Y-124460000D01*
X208280000Y-132080000D02*
X208280000Y-138176000D01*
X248920000Y-137414000D02*
X248920000Y-132080000D01*
X216765500Y-124479500D02*
X216746000Y-124460000D01*
X208280000Y-138176000D02*
X217932000Y-147828000D01*
X216765500Y-127508000D02*
X216765500Y-124479500D01*
X213802000Y-124460000D02*
X216746000Y-124460000D01*
X216765500Y-130556000D02*
X216765500Y-127508000D01*
X238506000Y-147828000D02*
X248920000Y-137414000D01*
X215900000Y-124460000D02*
X208280000Y-132080000D01*
X217932000Y-147828000D02*
X238506000Y-147828000D01*
%TO.N,Net-(D101-Pad2)*%
X233680000Y-64873500D02*
X233680000Y-61975000D01*
%TO.N,Net-(D102-Pad2)*%
X230293333Y-64873500D02*
X230293333Y-61975000D01*
%TO.N,Net-(D103-Pad2)*%
X226906667Y-64873500D02*
X226906667Y-61975000D01*
%TO.N,Net-(D104-Pad2)*%
X223520000Y-64873500D02*
X223520000Y-61975000D01*
%TO.N,/BAT_PWR*%
X220123000Y-136017000D02*
X216440000Y-139700000D01*
X229490774Y-134374000D02*
X229744000Y-134627226D01*
X228847774Y-136017000D02*
X220123000Y-136017000D01*
X229744000Y-135120774D02*
X228847774Y-136017000D01*
X229108000Y-134374000D02*
X229490774Y-134374000D01*
X229744000Y-134627226D02*
X229744000Y-135120774D01*
%TO.N,/TVC_X*%
X226695000Y-88655999D02*
X226695000Y-85471000D01*
%TO.N,/TVC_Y*%
X227965000Y-88655999D02*
X227965000Y-85471000D01*
%TO.N,Net-(U102-D-_in)*%
X229082824Y-145981000D02*
X228617176Y-145981000D01*
X228617176Y-145981000D02*
X228350000Y-145713824D01*
X229350000Y-144398176D02*
X229350000Y-145105000D01*
X238153500Y-141046840D02*
X234678260Y-141046840D01*
X231107176Y-142641000D02*
X230943088Y-142805088D01*
X228350000Y-145713824D02*
X228350000Y-145105000D01*
X233084100Y-142641000D02*
X231107176Y-142641000D01*
X229301000Y-144447176D02*
X229301000Y-145762824D01*
X229301000Y-145762824D02*
X229082824Y-145981000D01*
X239887000Y-139313340D02*
X238153500Y-141046840D01*
X230943088Y-142805088D02*
X229350000Y-144398176D01*
X239887000Y-138863500D02*
X239887000Y-139313340D01*
X234678260Y-141046840D02*
X233084100Y-142641000D01*
X230943088Y-142805088D02*
X229301000Y-144447176D01*
%TO.N,/USB_PWR*%
X226200000Y-145679999D02*
X226200000Y-145105000D01*
X231000000Y-145563824D02*
X230181824Y-146382000D01*
X224940500Y-132588000D02*
X226726500Y-134374000D01*
X213741000Y-143002000D02*
X217770000Y-147031000D01*
X223797500Y-131445000D02*
X222123000Y-131445000D01*
X228651100Y-134874000D02*
X228151100Y-134374000D01*
X226726500Y-134374000D02*
X227628000Y-134374000D01*
X222123000Y-131445000D02*
X213741000Y-139827000D01*
X226902001Y-146382000D02*
X226200000Y-145679999D01*
X230181824Y-146382000D02*
X226902001Y-146382000D01*
X228151100Y-134374000D02*
X227628000Y-134374000D01*
X213741000Y-139827000D02*
X213741000Y-143002000D01*
X226253001Y-147031000D02*
X226902001Y-146382000D01*
X231000000Y-145105000D02*
X231000000Y-145563824D01*
X217770000Y-147031000D02*
X226253001Y-147031000D01*
X229108000Y-134874000D02*
X228651100Y-134874000D01*
X224940500Y-132588000D02*
X223797500Y-131445000D01*
%TO.N,Net-(J104-CC2)*%
X231759032Y-143129000D02*
X230350000Y-144538032D01*
X231759032Y-143129000D02*
X236657500Y-143129000D01*
X230350000Y-144538032D02*
X230350000Y-145105000D01*
%TO.N,Net-(U102-D+_in)*%
X228850000Y-144276000D02*
X228850000Y-145105000D01*
X234512160Y-140645840D02*
X232918000Y-142240000D01*
X230106176Y-142240000D02*
X227850000Y-144496176D01*
X239387000Y-139246240D02*
X237987400Y-140645840D01*
X232918000Y-142240000D02*
X230886000Y-142240000D01*
X230886000Y-142240000D02*
X230106176Y-142240000D01*
X239387000Y-138863500D02*
X239387000Y-139246240D01*
X227850000Y-144496176D02*
X227850000Y-145105000D01*
X237987400Y-140645840D02*
X234512160Y-140645840D01*
X230886000Y-142240000D02*
X228850000Y-144276000D01*
%TO.N,Net-(J104-CC1)*%
X227350000Y-139489500D02*
X227306500Y-139446000D01*
X227350000Y-139449500D02*
X227353500Y-139446000D01*
X227350000Y-145105000D02*
X227350000Y-139489500D01*
%TO.N,Net-(U101-SW)*%
X216169152Y-123910000D02*
X215713500Y-123454348D01*
X215713500Y-123454348D02*
X215713500Y-116840000D01*
X216896000Y-123910000D02*
X216169152Y-123910000D01*
%TO.N,Net-(U105-L2)*%
X237416000Y-122862000D02*
X234442000Y-122862000D01*
X237964000Y-123410000D02*
X237416000Y-122862000D01*
X238500000Y-123410000D02*
X237964000Y-123410000D01*
%TO.N,Net-(U105-L1)*%
X238500000Y-124410000D02*
X238048000Y-124410000D01*
X237416000Y-125042000D02*
X234442000Y-125042000D01*
X238048000Y-124410000D02*
X237416000Y-125042000D01*
%TO.N,/BUZZER*%
X231577000Y-91948000D02*
X239522000Y-91948000D01*
X229235000Y-88656000D02*
X229235000Y-89606000D01*
X241935000Y-94361000D02*
X241935000Y-102743000D01*
X239522000Y-91948000D02*
X241935000Y-94361000D01*
X229235000Y-89606000D02*
X231577000Y-91948000D01*
X241935000Y-102743000D02*
X239683000Y-104995000D01*
X239683000Y-104995000D02*
X228349250Y-104995000D01*
%TO.N,/LED_RED*%
X230293333Y-66698500D02*
X230227500Y-66698500D01*
X223774000Y-73152000D02*
X223774000Y-80203999D01*
X220382000Y-83595999D02*
X219850000Y-83595999D01*
X223774000Y-80203999D02*
X220382000Y-83595999D01*
X230227500Y-66698500D02*
X223774000Y-73152000D01*
%TO.N,/LED_ORANGE*%
X224282000Y-75946000D02*
X224282000Y-81383999D01*
X224282000Y-81383999D02*
X220800000Y-84865999D01*
X233680000Y-66698500D02*
X233529500Y-66698500D01*
X220800000Y-84865999D02*
X219850000Y-84865999D01*
X233529500Y-66698500D02*
X224282000Y-75946000D01*
%TO.N,/LED_YELLOW*%
X220382000Y-82325999D02*
X219850000Y-82325999D01*
X223266000Y-79441999D02*
X220382000Y-82325999D01*
X223266000Y-70358000D02*
X223266000Y-79441999D01*
X226906667Y-66698500D02*
X226906667Y-66717333D01*
X226906667Y-66717333D02*
X223266000Y-70358000D01*
%TO.N,/LED_GREEN*%
X222758000Y-67460500D02*
X222758000Y-79097999D01*
X223520000Y-66698500D02*
X222758000Y-67460500D01*
X222758000Y-79097999D02*
X220800000Y-81055999D01*
X220800000Y-81055999D02*
X219850000Y-81055999D01*
%TO.N,Net-(U104-PR1)*%
X223115500Y-132588000D02*
X223115500Y-133049000D01*
X227628000Y-134874000D02*
X224940500Y-134874000D01*
X223115500Y-133049000D02*
X224940500Y-134874000D01*
%TO.N,Net-(U101-FB)*%
X218590500Y-130556000D02*
X217678000Y-129643500D01*
X218346000Y-124660000D02*
X220521500Y-124660000D01*
X217678000Y-125328000D02*
X218346000Y-124660000D01*
X217678000Y-129643500D02*
X217678000Y-125328000D01*
X220521500Y-124660000D02*
X220575500Y-124714000D01*
%TO.N,Net-(U105-FB)*%
X243943500Y-122936000D02*
X243943500Y-119634000D01*
X243917500Y-122910000D02*
X243943500Y-122936000D01*
X241300000Y-122910000D02*
X243917500Y-122910000D01*
%TO.N,/USB_D+*%
X236347000Y-130048000D02*
X239387000Y-133088000D01*
X239387000Y-133088000D02*
X239387000Y-137488500D01*
X219850000Y-110884000D02*
X228346000Y-119380000D01*
X228346000Y-119380000D02*
X228346000Y-127000000D01*
X219850000Y-87405999D02*
X219850000Y-110884000D01*
X228346000Y-127000000D02*
X231394000Y-130048000D01*
X231394000Y-130048000D02*
X236347000Y-130048000D01*
%TO.N,/USB_D-*%
X239887000Y-133020900D02*
X239887000Y-137488500D01*
X228883550Y-119350450D02*
X228883550Y-126970450D01*
X231453100Y-129540000D02*
X231775000Y-129540000D01*
X231775000Y-129540000D02*
X236406100Y-129540000D01*
X218694000Y-86341999D02*
X218900000Y-86135999D01*
X228883550Y-126970450D02*
X231453100Y-129540000D01*
X231521000Y-129540000D02*
X231775000Y-129540000D01*
X220450000Y-95250000D02*
X220450000Y-110916900D01*
X218900000Y-86135999D02*
X219850000Y-86135999D01*
X218694000Y-95250000D02*
X218694000Y-86341999D01*
X220450000Y-110916900D02*
X228883550Y-119350450D01*
X236406100Y-129540000D02*
X239887000Y-133020900D01*
%TO.N,/MISO*%
X237350000Y-83595999D02*
X235360999Y-83595999D01*
X237617000Y-93980000D02*
X239168000Y-95531000D01*
X239168000Y-95531000D02*
X239676000Y-95531000D01*
X239676000Y-95531000D02*
X241133000Y-96988000D01*
X240649999Y-101615001D02*
X239769698Y-101615001D01*
X226441000Y-95668399D02*
X227406200Y-95668399D01*
X234696000Y-95631000D02*
X236347000Y-93980000D01*
X235360999Y-83595999D02*
X235331000Y-83566000D01*
X236347000Y-93980000D02*
X237617000Y-93980000D01*
X241133000Y-101132000D02*
X240649999Y-101615001D01*
X241133000Y-96988000D02*
X241133000Y-101132000D01*
%TO.N,/SCK*%
X244094000Y-102108000D02*
X242824000Y-102108000D01*
X239932998Y-84865998D02*
X237350000Y-84865998D01*
X225552000Y-95631000D02*
X225552000Y-95250000D01*
X225552000Y-95250000D02*
X226568000Y-94234000D01*
X238509398Y-101092000D02*
X238506000Y-101092000D01*
X238506000Y-101092000D02*
X237490000Y-102108000D01*
X228561900Y-95033699D02*
X228561900Y-95504000D01*
X245237000Y-100965000D02*
X244094000Y-102108000D01*
X226568000Y-94234000D02*
X227762201Y-94234000D01*
X227762201Y-94234000D02*
X228561900Y-95033699D01*
%TO.N,/BMI_CS*%
X229061899Y-93806899D02*
X229061899Y-95504000D01*
X225425000Y-90170000D02*
X229061899Y-93806899D01*
X225425000Y-88655999D02*
X225425000Y-90170000D01*
%TO.N,/BMP_CS*%
X224155000Y-88655999D02*
X224155000Y-91186000D01*
X240411000Y-101092000D02*
X240030000Y-101092000D01*
X240732000Y-97877900D02*
X240732000Y-100771000D01*
X237236000Y-97155000D02*
X240009100Y-97155000D01*
X224155000Y-91186000D02*
X226568000Y-93599000D01*
X240009100Y-97155000D02*
X240732000Y-97877900D01*
X240732000Y-100771000D02*
X240411000Y-101092000D01*
%TO.N,/MOSI*%
X237350000Y-86135999D02*
X235360999Y-86135999D01*
X235360999Y-86135999D02*
X235331000Y-86106000D01*
X239269699Y-102871699D02*
X239269699Y-101615001D01*
X239395000Y-93980000D02*
X241534000Y-96119000D01*
X241534000Y-96119000D02*
X241534000Y-102576900D01*
X227203000Y-94869000D02*
X227426901Y-94869000D01*
X238794000Y-93379000D02*
X234281000Y-93379000D01*
X227426901Y-94869000D02*
X228061901Y-95504000D01*
X239649000Y-103251000D02*
X239269699Y-102871699D01*
X234281000Y-93379000D02*
X233172000Y-94488000D01*
X239395000Y-93980000D02*
X238794000Y-93379000D01*
X241534000Y-102576900D02*
X240859900Y-103251000D01*
X240859900Y-103251000D02*
X239649000Y-103251000D01*
%TO.N,/BMP_INT*%
X240197698Y-100424302D02*
X240197698Y-98846698D01*
X240197698Y-98846698D02*
X240030000Y-98679000D01*
X240030000Y-100592000D02*
X240197698Y-100424302D01*
X221615000Y-88655999D02*
X221615000Y-91694000D01*
%TO.N,/BMI_INT1*%
X217297000Y-80118999D02*
X218900000Y-78515999D01*
X217297000Y-95758000D02*
X217297000Y-80118999D01*
X227392799Y-97155000D02*
X227406200Y-97168401D01*
X218694000Y-97155000D02*
X217297000Y-95758000D01*
X218900000Y-78515999D02*
X219850000Y-78515999D01*
X221488000Y-97155000D02*
X227392799Y-97155000D01*
%TO.N,/BMI_INT2*%
X230259900Y-96596400D02*
X230259900Y-94115900D01*
X225127735Y-86189735D02*
X225127735Y-84709000D01*
X229717600Y-96668400D02*
X230187900Y-96668400D01*
X230259900Y-94115900D02*
X226441000Y-90297000D01*
X221136999Y-79785999D02*
X219850000Y-79785999D01*
X230187900Y-96668400D02*
X230259900Y-96596400D01*
%TO.N,Net-(D105-Pad2)*%
X234633000Y-133858000D02*
X232814500Y-133858000D01*
%TO.N,Net-(D106-Pad2)*%
X218590500Y-127508000D02*
X220663000Y-127508000D01*
%TO.N,Net-(D107-Pad2)*%
X238506000Y-117705500D02*
X238506000Y-116078000D01*
%TO.N,/BOOT_SW*%
X239492000Y-87406000D02*
X237350000Y-87406000D01*
X245618000Y-76690000D02*
X245618000Y-81280000D01*
X245618000Y-76690000D02*
X245618000Y-72766000D01*
X245618000Y-81280000D02*
X239492000Y-87406000D01*
%TD*%
%TA.AperFunction,Conductor*%
%TO.N,GND*%
G36*
X236113942Y-130668185D02*
G01*
X236134584Y-130684819D01*
X238750181Y-133300416D01*
X238783666Y-133361739D01*
X238786500Y-133388097D01*
X238786500Y-136941492D01*
X238777062Y-136988942D01*
X238775992Y-136991524D01*
X238775990Y-136991529D01*
X238761500Y-137101598D01*
X238761500Y-137875403D01*
X238775988Y-137985463D01*
X238775992Y-137985475D01*
X238835254Y-138128548D01*
X238842723Y-138198017D01*
X238835254Y-138223452D01*
X238775992Y-138366524D01*
X238775990Y-138366529D01*
X238763961Y-138457904D01*
X238761501Y-138476596D01*
X238761500Y-138476605D01*
X238761500Y-138971142D01*
X238741815Y-139038181D01*
X238725181Y-139058823D01*
X237774984Y-140009021D01*
X237713661Y-140042506D01*
X237687303Y-140045340D01*
X234598830Y-140045340D01*
X234598814Y-140045339D01*
X234591218Y-140045339D01*
X234433103Y-140045339D01*
X234378176Y-140060057D01*
X234280374Y-140086263D01*
X234280369Y-140086266D01*
X234143450Y-140165315D01*
X234143442Y-140165321D01*
X232705584Y-141603181D01*
X232644261Y-141636666D01*
X232617903Y-141639500D01*
X230965061Y-141639500D01*
X230965057Y-141639499D01*
X230806943Y-141639499D01*
X230806939Y-141639500D01*
X230192846Y-141639500D01*
X230192830Y-141639499D01*
X230185234Y-141639499D01*
X230027119Y-141639499D01*
X229950755Y-141659961D01*
X229874390Y-141680423D01*
X229874385Y-141680426D01*
X229737466Y-141759475D01*
X229737458Y-141759481D01*
X228162181Y-143334759D01*
X228100858Y-143368244D01*
X228031166Y-143363260D01*
X227975233Y-143321388D01*
X227950816Y-143255924D01*
X227950500Y-143247078D01*
X227950500Y-140611676D01*
X227970185Y-140544637D01*
X228009405Y-140506136D01*
X228037656Y-140488712D01*
X228161712Y-140364656D01*
X228253814Y-140215334D01*
X228308999Y-140048797D01*
X228319500Y-139946009D01*
X228319499Y-138945992D01*
X228308999Y-138843203D01*
X228253814Y-138676666D01*
X228161712Y-138527344D01*
X228037656Y-138403288D01*
X227888334Y-138311186D01*
X227721797Y-138256001D01*
X227721795Y-138256000D01*
X227619010Y-138245500D01*
X226993998Y-138245500D01*
X226993980Y-138245501D01*
X226891203Y-138256000D01*
X226891200Y-138256001D01*
X226724668Y-138311185D01*
X226724663Y-138311187D01*
X226575342Y-138403289D01*
X226451289Y-138527342D01*
X226359187Y-138676663D01*
X226359186Y-138676666D01*
X226304001Y-138843203D01*
X226304001Y-138843204D01*
X226304000Y-138843204D01*
X226293500Y-138945983D01*
X226293500Y-139946001D01*
X226293501Y-139946019D01*
X226304000Y-140048796D01*
X226304001Y-140048799D01*
X226335274Y-140143174D01*
X226359186Y-140215334D01*
X226451288Y-140364656D01*
X226575344Y-140488712D01*
X226690597Y-140559800D01*
X226737321Y-140611746D01*
X226749500Y-140665338D01*
X226749500Y-143919146D01*
X226741583Y-143946107D01*
X226736807Y-143973796D01*
X226731872Y-143979178D01*
X226729815Y-143986185D01*
X226708583Y-144004582D01*
X226689592Y-144025298D01*
X226681338Y-144028190D01*
X226677011Y-144031940D01*
X226657089Y-144039055D01*
X226649483Y-144041058D01*
X226624764Y-144044313D01*
X226603156Y-144053263D01*
X226595045Y-144055400D01*
X226568172Y-144054647D01*
X226541438Y-144057521D01*
X226528865Y-144054568D01*
X226475469Y-144039055D01*
X226452570Y-144032402D01*
X226452567Y-144032401D01*
X226415701Y-144029500D01*
X226415694Y-144029500D01*
X225984306Y-144029500D01*
X225984298Y-144029500D01*
X225947432Y-144032401D01*
X225947426Y-144032402D01*
X225789606Y-144078254D01*
X225789603Y-144078255D01*
X225648137Y-144161917D01*
X225648129Y-144161923D01*
X225531923Y-144278129D01*
X225531917Y-144278137D01*
X225448255Y-144419603D01*
X225448254Y-144419606D01*
X225402402Y-144577426D01*
X225402401Y-144577432D01*
X225399500Y-144614298D01*
X225399500Y-145595701D01*
X225400964Y-145614298D01*
X225386599Y-145682675D01*
X225361202Y-145712558D01*
X225362382Y-145713738D01*
X225249485Y-145826635D01*
X225173719Y-145957863D01*
X225134500Y-146104234D01*
X225134500Y-146255765D01*
X225139495Y-146274407D01*
X225137832Y-146344257D01*
X225098669Y-146402120D01*
X225034440Y-146429623D01*
X225019720Y-146430500D01*
X218070097Y-146430500D01*
X218003058Y-146410815D01*
X217982416Y-146394181D01*
X214377819Y-142789584D01*
X214344334Y-142728261D01*
X214341500Y-142701903D01*
X214341500Y-140127096D01*
X214361185Y-140060057D01*
X214377814Y-140039420D01*
X215106136Y-139311097D01*
X215167458Y-139277614D01*
X215237150Y-139282598D01*
X215293083Y-139324470D01*
X215317500Y-139389934D01*
X215314630Y-139424832D01*
X215314690Y-139424842D01*
X215314565Y-139425630D01*
X215314394Y-139427712D01*
X215313927Y-139429656D01*
X215285500Y-139609139D01*
X215285500Y-139790860D01*
X215313928Y-139970347D01*
X215313928Y-139970350D01*
X215370081Y-140143171D01*
X215370083Y-140143174D01*
X215452583Y-140305090D01*
X215559397Y-140452106D01*
X215687894Y-140580603D01*
X215834910Y-140687417D01*
X215996826Y-140769917D01*
X215996828Y-140769918D01*
X216158029Y-140822294D01*
X216169654Y-140826072D01*
X216349139Y-140854500D01*
X216349140Y-140854500D01*
X216530860Y-140854500D01*
X216530861Y-140854500D01*
X216710346Y-140826072D01*
X216710349Y-140826071D01*
X216710350Y-140826071D01*
X216883171Y-140769918D01*
X216883171Y-140769917D01*
X216883174Y-140769917D01*
X217045090Y-140687417D01*
X217192106Y-140580603D01*
X217320603Y-140452106D01*
X217427417Y-140305090D01*
X217509917Y-140143174D01*
X217515141Y-140127096D01*
X217566071Y-139970350D01*
X217566071Y-139970349D01*
X217566072Y-139970346D01*
X217594500Y-139790861D01*
X217594500Y-139609139D01*
X217575068Y-139486451D01*
X217584023Y-139417159D01*
X217609857Y-139379376D01*
X220335417Y-136653819D01*
X220396740Y-136620334D01*
X220423098Y-136617500D01*
X228761105Y-136617500D01*
X228761121Y-136617501D01*
X228768717Y-136617501D01*
X228926828Y-136617501D01*
X228926831Y-136617501D01*
X229079559Y-136576577D01*
X229129678Y-136547639D01*
X229216490Y-136497520D01*
X229328294Y-136385716D01*
X229328294Y-136385714D01*
X229338502Y-136375507D01*
X229338504Y-136375504D01*
X230112713Y-135601295D01*
X230112716Y-135601294D01*
X230224520Y-135489490D01*
X230274639Y-135402678D01*
X230303577Y-135352559D01*
X230344501Y-135199831D01*
X230344501Y-135143603D01*
X230364186Y-135076564D01*
X230416990Y-135030809D01*
X230486148Y-135020865D01*
X230507500Y-135025895D01*
X230574203Y-135047999D01*
X230676991Y-135058500D01*
X231302008Y-135058499D01*
X231302016Y-135058498D01*
X231302019Y-135058498D01*
X231358302Y-135052748D01*
X231404797Y-135047999D01*
X231571334Y-134992814D01*
X231720656Y-134900712D01*
X231814319Y-134807049D01*
X231875642Y-134773564D01*
X231945334Y-134778548D01*
X231989681Y-134807049D01*
X232083344Y-134900712D01*
X232232666Y-134992814D01*
X232399203Y-135047999D01*
X232501991Y-135058500D01*
X233127008Y-135058499D01*
X233127016Y-135058498D01*
X233127019Y-135058498D01*
X233183302Y-135052748D01*
X233229797Y-135047999D01*
X233396334Y-134992814D01*
X233545656Y-134900712D01*
X233669712Y-134776656D01*
X233731456Y-134676551D01*
X233783401Y-134629829D01*
X233852363Y-134618606D01*
X233911303Y-134642382D01*
X233990665Y-134701793D01*
X233990669Y-134701796D01*
X233990671Y-134701797D01*
X234125517Y-134752091D01*
X234125516Y-134752091D01*
X234132444Y-134752835D01*
X234185127Y-134758500D01*
X235080872Y-134758499D01*
X235140483Y-134752091D01*
X235275331Y-134701796D01*
X235390546Y-134615546D01*
X235476796Y-134500331D01*
X235527091Y-134365483D01*
X235533500Y-134305873D01*
X235533499Y-133410128D01*
X235527824Y-133357334D01*
X235527091Y-133350516D01*
X235476797Y-133215671D01*
X235476793Y-133215664D01*
X235390547Y-133100455D01*
X235390544Y-133100452D01*
X235275335Y-133014206D01*
X235275328Y-133014202D01*
X235140482Y-132963908D01*
X235140483Y-132963908D01*
X235080883Y-132957501D01*
X235080881Y-132957500D01*
X235080873Y-132957500D01*
X235080864Y-132957500D01*
X234185129Y-132957500D01*
X234185123Y-132957501D01*
X234125516Y-132963908D01*
X233990671Y-133014202D01*
X233990668Y-133014204D01*
X233911304Y-133073616D01*
X233845839Y-133098033D01*
X233777566Y-133083181D01*
X233731454Y-133039445D01*
X233715885Y-133014204D01*
X233669712Y-132939344D01*
X233545656Y-132815288D01*
X233406895Y-132729700D01*
X233396336Y-132723187D01*
X233396331Y-132723185D01*
X233269605Y-132681192D01*
X233212160Y-132641419D01*
X233185337Y-132576903D01*
X233197652Y-132508127D01*
X233220924Y-132475809D01*
X233741916Y-131954819D01*
X233803239Y-131921334D01*
X233829597Y-131918500D01*
X234624234Y-131918500D01*
X234691273Y-131938185D01*
X234693125Y-131939398D01*
X234824814Y-132027390D01*
X234824827Y-132027397D01*
X234970498Y-132087735D01*
X234970503Y-132087737D01*
X235125153Y-132118499D01*
X235125156Y-132118500D01*
X235125158Y-132118500D01*
X235282844Y-132118500D01*
X235282845Y-132118499D01*
X235437497Y-132087737D01*
X235583179Y-132027394D01*
X235714289Y-131939789D01*
X235825789Y-131828289D01*
X235913394Y-131697179D01*
X235916031Y-131690814D01*
X235973735Y-131551501D01*
X235973737Y-131551497D01*
X236004500Y-131396842D01*
X236004500Y-131239158D01*
X236004500Y-131239155D01*
X236004499Y-131239153D01*
X235988515Y-131158796D01*
X235973737Y-131084503D01*
X235973735Y-131084498D01*
X235913397Y-130938827D01*
X235913390Y-130938814D01*
X235848294Y-130841391D01*
X235845256Y-130831690D01*
X235838602Y-130824011D01*
X235834993Y-130798911D01*
X235827416Y-130774713D01*
X235830104Y-130764913D01*
X235828658Y-130754853D01*
X235839192Y-130731784D01*
X235845901Y-130707333D01*
X235853460Y-130700542D01*
X235857683Y-130691297D01*
X235879014Y-130677587D01*
X235897879Y-130660643D01*
X235909476Y-130658011D01*
X235916461Y-130653523D01*
X235951396Y-130648500D01*
X236046903Y-130648500D01*
X236113942Y-130668185D01*
G37*
%TD.AperFunction*%
%TA.AperFunction,Conductor*%
G36*
X220746942Y-117460185D02*
G01*
X220767584Y-117476819D01*
X224407181Y-121116416D01*
X224440666Y-121177739D01*
X224443500Y-121204097D01*
X224443500Y-127825830D01*
X224443499Y-127825848D01*
X224443499Y-127991554D01*
X224443498Y-127991554D01*
X224484422Y-128144282D01*
X224484424Y-128144287D01*
X224487915Y-128150334D01*
X224487916Y-128150335D01*
X224563477Y-128281212D01*
X224563481Y-128281217D01*
X224682349Y-128400085D01*
X224682355Y-128400090D01*
X228801167Y-132518903D01*
X228834652Y-132580226D01*
X228829668Y-132649918D01*
X228787796Y-132705851D01*
X228728270Y-132729699D01*
X228720694Y-132730609D01*
X228691437Y-132734122D01*
X228550656Y-132789639D01*
X228430077Y-132881077D01*
X228338639Y-133001656D01*
X228283121Y-133142440D01*
X228280977Y-133160297D01*
X228253438Y-133224510D01*
X228195555Y-133263641D01*
X228125704Y-133265266D01*
X228112372Y-133260863D01*
X228044565Y-133234123D01*
X228029820Y-133232352D01*
X227956102Y-133223500D01*
X227299898Y-133223500D01*
X227260853Y-133228188D01*
X227211438Y-133234122D01*
X227070656Y-133289639D01*
X226950076Y-133381078D01*
X226877611Y-133476637D01*
X226821418Y-133518160D01*
X226751697Y-133522711D01*
X226691127Y-133489392D01*
X225989818Y-132788083D01*
X225956333Y-132726760D01*
X225953499Y-132700402D01*
X225953499Y-132087998D01*
X225953498Y-132087981D01*
X225942999Y-131985203D01*
X225942998Y-131985200D01*
X225920896Y-131918500D01*
X225887814Y-131818666D01*
X225795712Y-131669344D01*
X225671656Y-131545288D01*
X225560210Y-131476548D01*
X225522336Y-131453187D01*
X225522331Y-131453185D01*
X225520862Y-131452698D01*
X225355797Y-131398001D01*
X225355795Y-131398000D01*
X225253016Y-131387500D01*
X224640597Y-131387500D01*
X224573558Y-131367815D01*
X224552916Y-131351181D01*
X224285090Y-131083355D01*
X224285088Y-131083352D01*
X224166217Y-130964481D01*
X224166216Y-130964480D01*
X224060302Y-130903331D01*
X224060301Y-130903330D01*
X224029283Y-130885422D01*
X223973381Y-130870443D01*
X223876557Y-130844499D01*
X223718443Y-130844499D01*
X223710847Y-130844499D01*
X223710831Y-130844500D01*
X222043943Y-130844500D01*
X221891213Y-130885423D01*
X221860198Y-130903331D01*
X221860197Y-130903331D01*
X221754287Y-130964477D01*
X221754282Y-130964481D01*
X213374376Y-139344387D01*
X213374366Y-139344397D01*
X213372286Y-139346478D01*
X213372284Y-139346480D01*
X213260480Y-139458284D01*
X213249083Y-139478025D01*
X213181423Y-139595215D01*
X213140499Y-139747943D01*
X213140499Y-139747945D01*
X213140499Y-139916046D01*
X213140500Y-139916059D01*
X213140500Y-141887903D01*
X213120815Y-141954942D01*
X213068011Y-142000697D01*
X212998853Y-142010641D01*
X212935297Y-141981616D01*
X212928819Y-141975584D01*
X208916819Y-137963584D01*
X208883334Y-137902261D01*
X208880500Y-137875903D01*
X208880500Y-133641999D01*
X208900185Y-133574960D01*
X208952989Y-133529205D01*
X209004500Y-133517999D01*
X209265371Y-133517999D01*
X209265372Y-133517999D01*
X209324983Y-133511591D01*
X209459831Y-133461296D01*
X209575046Y-133375046D01*
X209661296Y-133259831D01*
X209711591Y-133124983D01*
X209718000Y-133065373D01*
X209717999Y-131542595D01*
X209737684Y-131475557D01*
X209754313Y-131454920D01*
X215953319Y-125255915D01*
X216014642Y-125222430D01*
X216084334Y-125227414D01*
X216140267Y-125269286D01*
X216164684Y-125334750D01*
X216165000Y-125343596D01*
X216165000Y-126315491D01*
X216145315Y-126382530D01*
X216106098Y-126421029D01*
X216034344Y-126465287D01*
X215910289Y-126589342D01*
X215818187Y-126738663D01*
X215818185Y-126738668D01*
X215810117Y-126763016D01*
X215763001Y-126905203D01*
X215763001Y-126905204D01*
X215763000Y-126905204D01*
X215752500Y-127007983D01*
X215752500Y-128008001D01*
X215752501Y-128008019D01*
X215763000Y-128110796D01*
X215763001Y-128110799D01*
X215818185Y-128277331D01*
X215818187Y-128277336D01*
X215853069Y-128333888D01*
X215910288Y-128426656D01*
X216034344Y-128550712D01*
X216106096Y-128594968D01*
X216152821Y-128646915D01*
X216165000Y-128700507D01*
X216165000Y-129363491D01*
X216145315Y-129430530D01*
X216106098Y-129469029D01*
X216034344Y-129513287D01*
X215910289Y-129637342D01*
X215818187Y-129786663D01*
X215818186Y-129786666D01*
X215763001Y-129953203D01*
X215763001Y-129953204D01*
X215763000Y-129953204D01*
X215752500Y-130055983D01*
X215752500Y-131056001D01*
X215752501Y-131056019D01*
X215763000Y-131158796D01*
X215763001Y-131158799D01*
X215789628Y-131239153D01*
X215818186Y-131325334D01*
X215910288Y-131474656D01*
X216034344Y-131598712D01*
X216183666Y-131690814D01*
X216350203Y-131745999D01*
X216452991Y-131756500D01*
X217078008Y-131756499D01*
X217078016Y-131756498D01*
X217078019Y-131756498D01*
X217134302Y-131750748D01*
X217180797Y-131745999D01*
X217347334Y-131690814D01*
X217496656Y-131598712D01*
X217590319Y-131505049D01*
X217651642Y-131471564D01*
X217721334Y-131476548D01*
X217765681Y-131505049D01*
X217859344Y-131598712D01*
X218008666Y-131690814D01*
X218175203Y-131745999D01*
X218277991Y-131756500D01*
X218903008Y-131756499D01*
X218903016Y-131756498D01*
X218903019Y-131756498D01*
X218959302Y-131750748D01*
X219005797Y-131745999D01*
X219172334Y-131690814D01*
X219321656Y-131598712D01*
X219445712Y-131474656D01*
X219537814Y-131325334D01*
X219592999Y-131158797D01*
X219603500Y-131056009D01*
X219603499Y-130055992D01*
X219592999Y-129953203D01*
X219537814Y-129786666D01*
X219445712Y-129637344D01*
X219321656Y-129513288D01*
X219181470Y-129426821D01*
X219172336Y-129421187D01*
X219172331Y-129421185D01*
X219170862Y-129420698D01*
X219005797Y-129366001D01*
X219005795Y-129366000D01*
X218903016Y-129355500D01*
X218903009Y-129355500D01*
X218402500Y-129355500D01*
X218335461Y-129335815D01*
X218289706Y-129283011D01*
X218278500Y-129231500D01*
X218278500Y-128832499D01*
X218298185Y-128765460D01*
X218350989Y-128719705D01*
X218402500Y-128708499D01*
X218903002Y-128708499D01*
X218903008Y-128708499D01*
X219005797Y-128697999D01*
X219172334Y-128642814D01*
X219321656Y-128550712D01*
X219445712Y-128426656D01*
X219537814Y-128277334D01*
X219565595Y-128193495D01*
X219579465Y-128173463D01*
X219589588Y-128151297D01*
X219599000Y-128145248D01*
X219605368Y-128136051D01*
X219627866Y-128126697D01*
X219648366Y-128113523D01*
X219665467Y-128111064D01*
X219669884Y-128109228D01*
X219683301Y-128108500D01*
X219725820Y-128108500D01*
X219792859Y-128128185D01*
X219825085Y-128158187D01*
X219905454Y-128265546D01*
X219926388Y-128281217D01*
X220020664Y-128351793D01*
X220020671Y-128351797D01*
X220155517Y-128402091D01*
X220155516Y-128402091D01*
X220162444Y-128402835D01*
X220215127Y-128408500D01*
X221110872Y-128408499D01*
X221170483Y-128402091D01*
X221305331Y-128351796D01*
X221420546Y-128265546D01*
X221506796Y-128150331D01*
X221557091Y-128015483D01*
X221563500Y-127955873D01*
X221563499Y-127060128D01*
X221557894Y-127007983D01*
X221557091Y-127000516D01*
X221506797Y-126865671D01*
X221506793Y-126865664D01*
X221420547Y-126750455D01*
X221420544Y-126750452D01*
X221305335Y-126664206D01*
X221305328Y-126664202D01*
X221170482Y-126613908D01*
X221170483Y-126613908D01*
X221110883Y-126607501D01*
X221110881Y-126607500D01*
X221110873Y-126607500D01*
X221110864Y-126607500D01*
X220215129Y-126607500D01*
X220215123Y-126607501D01*
X220155516Y-126613908D01*
X220020671Y-126664202D01*
X220020664Y-126664206D01*
X219905456Y-126750452D01*
X219905455Y-126750453D01*
X219905454Y-126750454D01*
X219825087Y-126857811D01*
X219821430Y-126860548D01*
X219819533Y-126864703D01*
X219793718Y-126881293D01*
X219769153Y-126899682D01*
X219763523Y-126900697D01*
X219760755Y-126902477D01*
X219725820Y-126907500D01*
X219683301Y-126907500D01*
X219616262Y-126887815D01*
X219570507Y-126835011D01*
X219565595Y-126822504D01*
X219537814Y-126738666D01*
X219445712Y-126589344D01*
X219321656Y-126465288D01*
X219172334Y-126373186D01*
X219005797Y-126318001D01*
X219005795Y-126318000D01*
X218903016Y-126307500D01*
X218903009Y-126307500D01*
X218402500Y-126307500D01*
X218335461Y-126287815D01*
X218289706Y-126235011D01*
X218278500Y-126183500D01*
X218278500Y-125628097D01*
X218298185Y-125561058D01*
X218314819Y-125540416D01*
X218411572Y-125443663D01*
X218543663Y-125311571D01*
X218560255Y-125302511D01*
X218573865Y-125289379D01*
X218598688Y-125281525D01*
X218604984Y-125278088D01*
X218607149Y-125277637D01*
X218611117Y-125276847D01*
X218655472Y-125271009D01*
X218669336Y-125265266D01*
X218681316Y-125262883D01*
X218689740Y-125263636D01*
X218705509Y-125260500D01*
X219464805Y-125260500D01*
X219531844Y-125280185D01*
X219577599Y-125332989D01*
X219582510Y-125345494D01*
X219628186Y-125483334D01*
X219720288Y-125632656D01*
X219844344Y-125756712D01*
X219993666Y-125848814D01*
X220160203Y-125903999D01*
X220262991Y-125914500D01*
X220888008Y-125914499D01*
X220888016Y-125914498D01*
X220888019Y-125914498D01*
X220944302Y-125908748D01*
X220990797Y-125903999D01*
X221157334Y-125848814D01*
X221306656Y-125756712D01*
X221430712Y-125632656D01*
X221522814Y-125483334D01*
X221577999Y-125316797D01*
X221588500Y-125214009D01*
X221588499Y-124213992D01*
X221584992Y-124179664D01*
X221577999Y-124111203D01*
X221577998Y-124111200D01*
X221558138Y-124051266D01*
X221522814Y-123944666D01*
X221430712Y-123795344D01*
X221306656Y-123671288D01*
X221157334Y-123579186D01*
X220990797Y-123524001D01*
X220990795Y-123524000D01*
X220888016Y-123513500D01*
X220381893Y-123513500D01*
X220314854Y-123493815D01*
X220269099Y-123441011D01*
X220259155Y-123371853D01*
X220288180Y-123308297D01*
X220294198Y-123301833D01*
X220906713Y-122689319D01*
X220906716Y-122689318D01*
X220962252Y-122633780D01*
X220962266Y-122633773D01*
X221010924Y-122603760D01*
X221107334Y-122571814D01*
X221256656Y-122479712D01*
X221380712Y-122355656D01*
X221472814Y-122206334D01*
X221527999Y-122039797D01*
X221538500Y-121937009D01*
X221538499Y-120886992D01*
X221527999Y-120784203D01*
X221472814Y-120617666D01*
X221380712Y-120468344D01*
X221256656Y-120344288D01*
X221122689Y-120261657D01*
X221107336Y-120252187D01*
X221107331Y-120252185D01*
X221060887Y-120236795D01*
X220940797Y-120197001D01*
X220940795Y-120197000D01*
X220838010Y-120186500D01*
X220237998Y-120186500D01*
X220237980Y-120186501D01*
X220135203Y-120197000D01*
X220135200Y-120197001D01*
X219968668Y-120252185D01*
X219968663Y-120252187D01*
X219819342Y-120344289D01*
X219695289Y-120468342D01*
X219603183Y-120617670D01*
X219600383Y-120623677D01*
X219554212Y-120676117D01*
X219487019Y-120695271D01*
X219420138Y-120675057D01*
X219374802Y-120621893D01*
X219364000Y-120571275D01*
X219364000Y-119264499D01*
X219383685Y-119197460D01*
X219436489Y-119151705D01*
X219488000Y-119140499D01*
X219561371Y-119140499D01*
X219561372Y-119140499D01*
X219620983Y-119134091D01*
X219755831Y-119083796D01*
X219871046Y-118997546D01*
X219957296Y-118882331D01*
X220007591Y-118747483D01*
X220014000Y-118687873D01*
X220014000Y-117564500D01*
X220033685Y-117497461D01*
X220086489Y-117451706D01*
X220138000Y-117440500D01*
X220679903Y-117440500D01*
X220746942Y-117460185D01*
G37*
%TD.AperFunction*%
%TA.AperFunction,Conductor*%
G36*
X222021834Y-132497913D02*
G01*
X222077767Y-132539785D01*
X222102184Y-132605249D01*
X222102500Y-132614095D01*
X222102500Y-133088001D01*
X222102501Y-133088019D01*
X222113000Y-133190796D01*
X222113001Y-133190799D01*
X222168185Y-133357331D01*
X222168187Y-133357336D01*
X222179111Y-133375046D01*
X222260288Y-133506656D01*
X222384344Y-133630712D01*
X222533666Y-133722814D01*
X222700203Y-133777999D01*
X222802991Y-133788500D01*
X222954401Y-133788499D01*
X223021441Y-133808183D01*
X223042083Y-133824818D01*
X223891181Y-134673917D01*
X223924666Y-134735240D01*
X223927500Y-134761598D01*
X223927500Y-135041717D01*
X223927501Y-135292500D01*
X223907817Y-135359539D01*
X223855013Y-135405294D01*
X223803501Y-135416500D01*
X220209670Y-135416500D01*
X220209654Y-135416499D01*
X220202058Y-135416499D01*
X220043943Y-135416499D01*
X219967579Y-135436961D01*
X219891214Y-135457423D01*
X219891209Y-135457426D01*
X219754290Y-135536475D01*
X219754282Y-135536481D01*
X216760624Y-138530139D01*
X216699301Y-138563624D01*
X216653545Y-138564931D01*
X216560888Y-138550255D01*
X216530861Y-138545500D01*
X216349139Y-138545500D01*
X216315362Y-138550849D01*
X216169656Y-138573927D01*
X216167712Y-138574394D01*
X216166951Y-138574355D01*
X216164842Y-138574690D01*
X216164771Y-138574246D01*
X216097930Y-138570894D01*
X216041118Y-138530223D01*
X216015312Y-138465294D01*
X216028707Y-138396720D01*
X216051096Y-138366137D01*
X221890821Y-132526412D01*
X221952142Y-132492929D01*
X222021834Y-132497913D01*
G37*
%TD.AperFunction*%
%TA.AperFunction,Conductor*%
G36*
X238588533Y-101961215D02*
G01*
X238644466Y-102003087D01*
X238668883Y-102068551D01*
X238669199Y-102077397D01*
X238669199Y-102785029D01*
X238669198Y-102785047D01*
X238669198Y-102950753D01*
X238669197Y-102950753D01*
X238675938Y-102975909D01*
X238710122Y-103103484D01*
X238714875Y-103111716D01*
X238714876Y-103111718D01*
X238789176Y-103240411D01*
X238789178Y-103240414D01*
X238789179Y-103240415D01*
X238900983Y-103352219D01*
X238900984Y-103352220D01*
X239280284Y-103731520D01*
X239280286Y-103731521D01*
X239280290Y-103731524D01*
X239417209Y-103810573D01*
X239417216Y-103810577D01*
X239569943Y-103851501D01*
X239569945Y-103851501D01*
X239677902Y-103851501D01*
X239744941Y-103871186D01*
X239790696Y-103923990D01*
X239800640Y-103993148D01*
X239771615Y-104056704D01*
X239765583Y-104063182D01*
X239470584Y-104358181D01*
X239409261Y-104391666D01*
X239382903Y-104394500D01*
X237553392Y-104394500D01*
X237486353Y-104374815D01*
X237440598Y-104322011D01*
X237430654Y-104252853D01*
X237431775Y-104246309D01*
X237462499Y-104091846D01*
X237462500Y-104091844D01*
X237462500Y-103934155D01*
X237462499Y-103934153D01*
X237431738Y-103779510D01*
X237431737Y-103779503D01*
X237411861Y-103731518D01*
X237371397Y-103633827D01*
X237371390Y-103633814D01*
X237283398Y-103502125D01*
X237262520Y-103435447D01*
X237262500Y-103433234D01*
X237262500Y-103030024D01*
X237282185Y-102962985D01*
X237334989Y-102917230D01*
X237404147Y-102907286D01*
X237410702Y-102908409D01*
X237411158Y-102908500D01*
X237568844Y-102908500D01*
X237568845Y-102908499D01*
X237723497Y-102877737D01*
X237869179Y-102817394D01*
X238000289Y-102729789D01*
X238111789Y-102618289D01*
X238199394Y-102487179D01*
X238259737Y-102341497D01*
X238279580Y-102241740D01*
X238290638Y-102186150D01*
X238299402Y-102169393D01*
X238303423Y-102150914D01*
X238322167Y-102125875D01*
X238323023Y-102124239D01*
X238324523Y-102122710D01*
X238457519Y-101989715D01*
X238518841Y-101956231D01*
X238588533Y-101961215D01*
G37*
%TD.AperFunction*%
%TA.AperFunction,Conductor*%
G36*
X235265941Y-93999185D02*
G01*
X235311696Y-94051989D01*
X235321640Y-94121147D01*
X235292615Y-94184703D01*
X235286583Y-94191181D01*
X234681339Y-94796425D01*
X234620016Y-94829910D01*
X234617850Y-94830361D01*
X234462508Y-94861261D01*
X234462498Y-94861264D01*
X234316827Y-94921602D01*
X234316814Y-94921609D01*
X234185711Y-95009210D01*
X234185707Y-95009213D01*
X234074213Y-95120707D01*
X234074210Y-95120711D01*
X233986609Y-95251814D01*
X233986602Y-95251827D01*
X233926264Y-95397498D01*
X233926261Y-95397510D01*
X233895500Y-95552153D01*
X233895500Y-95709846D01*
X233926261Y-95864489D01*
X233926264Y-95864501D01*
X233986602Y-96010172D01*
X233986609Y-96010185D01*
X234074210Y-96141288D01*
X234074213Y-96141292D01*
X234185707Y-96252786D01*
X234185711Y-96252789D01*
X234316814Y-96340390D01*
X234316827Y-96340397D01*
X234457696Y-96398746D01*
X234462503Y-96400737D01*
X234617153Y-96431499D01*
X234617156Y-96431500D01*
X234617158Y-96431500D01*
X234774844Y-96431500D01*
X234774845Y-96431499D01*
X234929497Y-96400737D01*
X235062623Y-96345595D01*
X235075172Y-96340397D01*
X235075172Y-96340396D01*
X235075179Y-96340394D01*
X235206289Y-96252789D01*
X235317789Y-96141289D01*
X235405394Y-96010179D01*
X235465737Y-95864497D01*
X235486465Y-95760289D01*
X235496638Y-95709150D01*
X235529023Y-95647239D01*
X235530516Y-95645718D01*
X236559417Y-94616819D01*
X236620740Y-94583334D01*
X236647098Y-94580500D01*
X237037234Y-94580500D01*
X237104273Y-94600185D01*
X237106125Y-94601398D01*
X237237814Y-94689390D01*
X237237827Y-94689397D01*
X237359288Y-94739707D01*
X237383503Y-94749737D01*
X237448147Y-94762595D01*
X237538849Y-94780638D01*
X237600760Y-94813023D01*
X237602339Y-94814574D01*
X238683139Y-95895374D01*
X238683149Y-95895385D01*
X238799285Y-96011521D01*
X238813516Y-96019737D01*
X238861273Y-96047309D01*
X238936215Y-96090577D01*
X239088942Y-96131500D01*
X239088943Y-96131500D01*
X239375903Y-96131500D01*
X239405343Y-96140144D01*
X239435330Y-96146668D01*
X239440345Y-96150422D01*
X239442942Y-96151185D01*
X239463584Y-96167819D01*
X239638584Y-96342819D01*
X239672069Y-96404142D01*
X239667085Y-96473834D01*
X239625213Y-96529767D01*
X239559749Y-96554184D01*
X239550903Y-96554500D01*
X237815766Y-96554500D01*
X237748727Y-96534815D01*
X237746875Y-96533602D01*
X237615185Y-96445609D01*
X237615172Y-96445602D01*
X237469501Y-96385264D01*
X237469489Y-96385261D01*
X237314845Y-96354500D01*
X237314842Y-96354500D01*
X237157158Y-96354500D01*
X237157155Y-96354500D01*
X237002510Y-96385261D01*
X237002498Y-96385264D01*
X236856827Y-96445602D01*
X236856814Y-96445609D01*
X236725711Y-96533210D01*
X236725707Y-96533213D01*
X236614213Y-96644707D01*
X236614210Y-96644711D01*
X236526609Y-96775814D01*
X236526602Y-96775827D01*
X236466264Y-96921498D01*
X236466261Y-96921510D01*
X236435500Y-97076153D01*
X236435500Y-97233846D01*
X236466261Y-97388489D01*
X236466264Y-97388501D01*
X236526602Y-97534172D01*
X236526609Y-97534185D01*
X236614210Y-97665288D01*
X236614213Y-97665292D01*
X236725707Y-97776786D01*
X236725711Y-97776789D01*
X236856814Y-97864390D01*
X236856827Y-97864397D01*
X236990825Y-97919900D01*
X237002503Y-97924737D01*
X237116995Y-97947511D01*
X237157153Y-97955499D01*
X237157156Y-97955500D01*
X237157158Y-97955500D01*
X237314843Y-97955500D01*
X237345845Y-97949333D01*
X237386309Y-97941284D01*
X237455899Y-97947511D01*
X237511077Y-97990373D01*
X237534322Y-98056262D01*
X237534500Y-98062901D01*
X237534500Y-98532001D01*
X237534502Y-98532022D01*
X237539086Y-98576900D01*
X237526316Y-98645593D01*
X237478434Y-98696476D01*
X237415728Y-98713500D01*
X236266097Y-98713500D01*
X236199058Y-98693815D01*
X236178416Y-98677181D01*
X235945590Y-98444355D01*
X235945588Y-98444352D01*
X235826717Y-98325481D01*
X235826712Y-98325477D01*
X235692341Y-98247899D01*
X235689785Y-98246423D01*
X235537057Y-98205499D01*
X235378943Y-98205499D01*
X235371347Y-98205499D01*
X235371331Y-98205500D01*
X234173098Y-98205500D01*
X234106059Y-98185815D01*
X234085417Y-98169181D01*
X233258818Y-97342582D01*
X233225333Y-97281259D01*
X233222499Y-97254901D01*
X233222499Y-96629998D01*
X233222498Y-96629981D01*
X233211999Y-96527203D01*
X233211998Y-96527200D01*
X233197873Y-96484574D01*
X233156814Y-96360666D01*
X233064712Y-96211344D01*
X232940656Y-96087288D01*
X232940655Y-96087287D01*
X232881402Y-96050739D01*
X232834678Y-95998791D01*
X232822500Y-95945201D01*
X232822500Y-95385757D01*
X232842185Y-95318718D01*
X232894989Y-95272963D01*
X232964147Y-95263019D01*
X232970692Y-95264140D01*
X233093155Y-95288500D01*
X233093158Y-95288500D01*
X233250844Y-95288500D01*
X233250845Y-95288499D01*
X233405497Y-95257737D01*
X233551179Y-95197394D01*
X233682289Y-95109789D01*
X233793789Y-94998289D01*
X233881394Y-94867179D01*
X233883845Y-94861263D01*
X233896831Y-94829910D01*
X233941737Y-94721497D01*
X233969220Y-94583334D01*
X233972638Y-94566150D01*
X234005023Y-94504239D01*
X234006518Y-94502716D01*
X234493416Y-94015819D01*
X234554739Y-93982334D01*
X234581097Y-93979500D01*
X235198902Y-93979500D01*
X235265941Y-93999185D01*
G37*
%TD.AperFunction*%
%TA.AperFunction,Conductor*%
G36*
X228327414Y-96239389D02*
G01*
X228327417Y-96239391D01*
X228387027Y-96245800D01*
X228736772Y-96245799D01*
X228796383Y-96239391D01*
X228796386Y-96239389D01*
X228798643Y-96239147D01*
X228825155Y-96239148D01*
X228866885Y-96243635D01*
X228895237Y-96255379D01*
X228924349Y-96265069D01*
X228927214Y-96268624D01*
X228931435Y-96270373D01*
X228948934Y-96295577D01*
X228968190Y-96319472D01*
X228969739Y-96325542D01*
X228971283Y-96327766D01*
X228976917Y-96353666D01*
X228976918Y-96353670D01*
X228982452Y-96405149D01*
X228982452Y-96431657D01*
X228982209Y-96433916D01*
X228982209Y-96433917D01*
X228975800Y-96493527D01*
X228975800Y-96493532D01*
X228975800Y-96493533D01*
X228975800Y-96843269D01*
X228975801Y-96843279D01*
X228982452Y-96905152D01*
X228982452Y-96931658D01*
X228982209Y-96933917D01*
X228982209Y-96933918D01*
X228975800Y-96993528D01*
X228975800Y-96993533D01*
X228975800Y-96993534D01*
X228975800Y-96993537D01*
X228975801Y-97319500D01*
X228973250Y-97328186D01*
X228974539Y-97337147D01*
X228963561Y-97361183D01*
X228956117Y-97386539D01*
X228949274Y-97392467D01*
X228945514Y-97400703D01*
X228923282Y-97414989D01*
X228903313Y-97432294D01*
X228892797Y-97434581D01*
X228886736Y-97438477D01*
X228851801Y-97443500D01*
X228813401Y-97443500D01*
X228746362Y-97423815D01*
X228700607Y-97371011D01*
X228689401Y-97319500D01*
X228689400Y-97043630D01*
X228689399Y-97043623D01*
X228682992Y-96984016D01*
X228632698Y-96849171D01*
X228632694Y-96849164D01*
X228546448Y-96733955D01*
X228546445Y-96733952D01*
X228431236Y-96647706D01*
X228431229Y-96647702D01*
X228296383Y-96597408D01*
X228296384Y-96597408D01*
X228256915Y-96593165D01*
X228228567Y-96581422D01*
X228199451Y-96571732D01*
X228196584Y-96568175D01*
X228192364Y-96566427D01*
X228174860Y-96541216D01*
X228155610Y-96517328D01*
X228154060Y-96511259D01*
X228152516Y-96509034D01*
X228146881Y-96483130D01*
X228143943Y-96455799D01*
X228141591Y-96433917D01*
X228141589Y-96433914D01*
X228141347Y-96431654D01*
X228141348Y-96405143D01*
X228146883Y-96353666D01*
X228173621Y-96289116D01*
X228231014Y-96249268D01*
X228256911Y-96243634D01*
X228296384Y-96239391D01*
X228296387Y-96239389D01*
X228298644Y-96239147D01*
X228325154Y-96239147D01*
X228327414Y-96239389D01*
G37*
%TD.AperFunction*%
%TA.AperFunction,Conductor*%
G36*
X214249241Y-69642185D02*
G01*
X214287739Y-69681401D01*
X214324288Y-69740656D01*
X214448344Y-69864712D01*
X214597666Y-69956814D01*
X214706505Y-69992879D01*
X214763949Y-70032652D01*
X214790772Y-70097167D01*
X214791500Y-70110585D01*
X214791500Y-71136830D01*
X214791499Y-71136848D01*
X214791499Y-71302554D01*
X214791498Y-71302554D01*
X214832423Y-71455286D01*
X214835474Y-71460569D01*
X214843037Y-71473668D01*
X214911479Y-71592214D01*
X214911481Y-71592217D01*
X215030349Y-71711085D01*
X215030355Y-71711090D01*
X215853977Y-72534712D01*
X215853979Y-72534715D01*
X215943083Y-72623819D01*
X215976567Y-72685140D01*
X215976566Y-72685141D01*
X215976567Y-72685142D01*
X215971583Y-72754833D01*
X215929711Y-72810767D01*
X215899814Y-72821917D01*
X215864248Y-72835183D01*
X215855401Y-72835499D01*
X214502942Y-72835499D01*
X214467272Y-72845056D01*
X214467273Y-72845057D01*
X214350215Y-72876422D01*
X214350210Y-72876425D01*
X214213291Y-72955474D01*
X214213283Y-72955480D01*
X212140181Y-75028583D01*
X212078858Y-75062068D01*
X212009166Y-75057084D01*
X211953233Y-75015212D01*
X211928816Y-74949748D01*
X211928500Y-74940902D01*
X211928500Y-73854585D01*
X211948185Y-73787546D01*
X212000989Y-73741791D01*
X212013489Y-73736881D01*
X212122334Y-73700814D01*
X212271656Y-73608712D01*
X212395712Y-73484656D01*
X212487814Y-73335334D01*
X212542999Y-73168797D01*
X212553500Y-73066009D01*
X212553499Y-72465992D01*
X212542999Y-72363203D01*
X212487814Y-72196666D01*
X212395712Y-72047344D01*
X212271656Y-71923288D01*
X212122334Y-71831186D01*
X211955797Y-71776001D01*
X211955795Y-71776000D01*
X211853010Y-71765500D01*
X210802998Y-71765500D01*
X210802980Y-71765501D01*
X210700203Y-71776000D01*
X210700200Y-71776001D01*
X210533668Y-71831185D01*
X210533663Y-71831187D01*
X210384342Y-71923289D01*
X210260289Y-72047342D01*
X210204990Y-72136997D01*
X210153042Y-72183721D01*
X210099451Y-72195900D01*
X209571785Y-72195900D01*
X209504746Y-72176215D01*
X209458991Y-72123411D01*
X209454079Y-72110904D01*
X209418014Y-72002066D01*
X209325912Y-71852744D01*
X209215649Y-71742481D01*
X209182164Y-71681158D01*
X209187148Y-71611466D01*
X209215649Y-71567119D01*
X209242002Y-71540766D01*
X209285712Y-71497056D01*
X209377814Y-71347734D01*
X209432999Y-71181197D01*
X209443500Y-71078409D01*
X209443499Y-70078392D01*
X209439939Y-70043546D01*
X209432999Y-69975603D01*
X209432998Y-69975600D01*
X209396253Y-69864712D01*
X209377814Y-69809066D01*
X209377810Y-69809059D01*
X209374760Y-69802518D01*
X209376648Y-69801637D01*
X209360935Y-69744195D01*
X209381863Y-69677533D01*
X209435508Y-69632768D01*
X209484914Y-69622500D01*
X214182202Y-69622500D01*
X214249241Y-69642185D01*
G37*
%TD.AperFunction*%
%TA.AperFunction,Conductor*%
G36*
X253442539Y-51320185D02*
G01*
X253488294Y-51372989D01*
X253499500Y-51424500D01*
X253499500Y-151775500D01*
X253479815Y-151842539D01*
X253427011Y-151888294D01*
X253375500Y-151899500D01*
X203824500Y-151899500D01*
X203757461Y-151879815D01*
X203711706Y-151827011D01*
X203700500Y-151775500D01*
X203700500Y-147198711D01*
X206429500Y-147198711D01*
X206429500Y-147441288D01*
X206461161Y-147681785D01*
X206523947Y-147916104D01*
X206616773Y-148140205D01*
X206616776Y-148140212D01*
X206738064Y-148350289D01*
X206738065Y-148350290D01*
X206738067Y-148350293D01*
X206885733Y-148542736D01*
X206885739Y-148542743D01*
X207057256Y-148714260D01*
X207057262Y-148714265D01*
X207249711Y-148861936D01*
X207459788Y-148983224D01*
X207683900Y-149076054D01*
X207918211Y-149138838D01*
X208098586Y-149162584D01*
X208158711Y-149170500D01*
X208158712Y-149170500D01*
X208401289Y-149170500D01*
X208449388Y-149164167D01*
X208641789Y-149138838D01*
X208876100Y-149076054D01*
X209100212Y-148983224D01*
X209310289Y-148861936D01*
X209502738Y-148714265D01*
X209674265Y-148542738D01*
X209821936Y-148350289D01*
X209943224Y-148140212D01*
X210036054Y-147916100D01*
X210098838Y-147681789D01*
X210130500Y-147441288D01*
X210130500Y-147198712D01*
X210098838Y-146958211D01*
X210036054Y-146723900D01*
X209943224Y-146499788D01*
X209821936Y-146289711D01*
X209761018Y-146210321D01*
X209674266Y-146097263D01*
X209674260Y-146097256D01*
X209502743Y-145925739D01*
X209502736Y-145925733D01*
X209310293Y-145778067D01*
X209310292Y-145778066D01*
X209310289Y-145778064D01*
X209100212Y-145656776D01*
X209100205Y-145656773D01*
X208876104Y-145563947D01*
X208641785Y-145501161D01*
X208401289Y-145469500D01*
X208401288Y-145469500D01*
X208158712Y-145469500D01*
X208158711Y-145469500D01*
X207918214Y-145501161D01*
X207683895Y-145563947D01*
X207459794Y-145656773D01*
X207459785Y-145656777D01*
X207249706Y-145778067D01*
X207057263Y-145925733D01*
X207057256Y-145925739D01*
X206885739Y-146097256D01*
X206885733Y-146097263D01*
X206738067Y-146289706D01*
X206616777Y-146499785D01*
X206616773Y-146499794D01*
X206523947Y-146723895D01*
X206461161Y-146958214D01*
X206429500Y-147198711D01*
X203700500Y-147198711D01*
X203700500Y-70078383D01*
X205592500Y-70078383D01*
X205592500Y-71078401D01*
X205592501Y-71078419D01*
X205603000Y-71181196D01*
X205603001Y-71181199D01*
X205658185Y-71347731D01*
X205658187Y-71347736D01*
X205664796Y-71358451D01*
X205750288Y-71497056D01*
X205874344Y-71621112D01*
X206023666Y-71713214D01*
X206190203Y-71768399D01*
X206292991Y-71778900D01*
X206918008Y-71778899D01*
X206918016Y-71778898D01*
X206918019Y-71778898D01*
X206974302Y-71773148D01*
X207020797Y-71768399D01*
X207187334Y-71713214D01*
X207336656Y-71621112D01*
X207430319Y-71527449D01*
X207438264Y-71523110D01*
X207443690Y-71515863D01*
X207468449Y-71506628D01*
X207491642Y-71493964D01*
X207500671Y-71494609D01*
X207509154Y-71491446D01*
X207534974Y-71497062D01*
X207561334Y-71498948D01*
X207570387Y-71504766D01*
X207577427Y-71506298D01*
X207605681Y-71527449D01*
X207698050Y-71619818D01*
X207731535Y-71681141D01*
X207726551Y-71750833D01*
X207698052Y-71795179D01*
X207640488Y-71852744D01*
X207548387Y-72002063D01*
X207548386Y-72002066D01*
X207493201Y-72168603D01*
X207493201Y-72168604D01*
X207493200Y-72168604D01*
X207482700Y-72271383D01*
X207482700Y-73321401D01*
X207482701Y-73321419D01*
X207493200Y-73424196D01*
X207493201Y-73424199D01*
X207548385Y-73590731D01*
X207548387Y-73590736D01*
X207559475Y-73608712D01*
X207640488Y-73740056D01*
X207764544Y-73864112D01*
X207913866Y-73956214D01*
X208080403Y-74011399D01*
X208183191Y-74021900D01*
X208783208Y-74021899D01*
X208783216Y-74021898D01*
X208783219Y-74021898D01*
X208839502Y-74016148D01*
X208885997Y-74011399D01*
X209052534Y-73956214D01*
X209201856Y-73864112D01*
X209325912Y-73740056D01*
X209418014Y-73590734D01*
X209454079Y-73481894D01*
X209493852Y-73424451D01*
X209558367Y-73397628D01*
X209571785Y-73396900D01*
X210136953Y-73396900D01*
X210203992Y-73416585D01*
X210242492Y-73455804D01*
X210258585Y-73481896D01*
X210260288Y-73484656D01*
X210384344Y-73608712D01*
X210533666Y-73700814D01*
X210642505Y-73736879D01*
X210699949Y-73776652D01*
X210726772Y-73841167D01*
X210727500Y-73854585D01*
X210727500Y-74975500D01*
X210707815Y-75042539D01*
X210655011Y-75088294D01*
X210603501Y-75099500D01*
X210480130Y-75099500D01*
X210480123Y-75099501D01*
X210420516Y-75105908D01*
X210285671Y-75156202D01*
X210285664Y-75156206D01*
X210170455Y-75242452D01*
X210170452Y-75242455D01*
X210084206Y-75357664D01*
X210084202Y-75357671D01*
X210033908Y-75492517D01*
X210027501Y-75552116D01*
X210027501Y-75552123D01*
X210027500Y-75552135D01*
X210027500Y-77827870D01*
X210027501Y-77827876D01*
X210033908Y-77887483D01*
X210084202Y-78022328D01*
X210084206Y-78022335D01*
X210170452Y-78137544D01*
X210170455Y-78137547D01*
X210285664Y-78223793D01*
X210285671Y-78223797D01*
X210420517Y-78274091D01*
X210420516Y-78274091D01*
X210427444Y-78274835D01*
X210480127Y-78280500D01*
X212175872Y-78280499D01*
X212235483Y-78274091D01*
X212370331Y-78223796D01*
X212485546Y-78137546D01*
X212571796Y-78022331D01*
X212622091Y-77887483D01*
X212628500Y-77827873D01*
X212628499Y-76290095D01*
X212648184Y-76223057D01*
X212664813Y-76202420D01*
X214794417Y-74072818D01*
X214855740Y-74039333D01*
X214882098Y-74036499D01*
X218479906Y-74036499D01*
X218546945Y-74056184D01*
X218592700Y-74108988D01*
X218603195Y-74173751D01*
X218599500Y-74208126D01*
X218599500Y-74208127D01*
X218599500Y-74208131D01*
X218599500Y-75203869D01*
X218599501Y-75203875D01*
X218605908Y-75263480D01*
X218618659Y-75297668D01*
X218623642Y-75367360D01*
X218618659Y-75384330D01*
X218605908Y-75418517D01*
X218599501Y-75478115D01*
X218599501Y-75478122D01*
X218599500Y-75478134D01*
X218599500Y-76473869D01*
X218599501Y-76473875D01*
X218605908Y-76533480D01*
X218618659Y-76567668D01*
X218623642Y-76637360D01*
X218618659Y-76654330D01*
X218605908Y-76688517D01*
X218599501Y-76748115D01*
X218599501Y-76748122D01*
X218599500Y-76748134D01*
X218599500Y-77743869D01*
X218599501Y-77743875D01*
X218605908Y-77803482D01*
X218618658Y-77837666D01*
X218620542Y-77864021D01*
X218626160Y-77889841D01*
X218623322Y-77902888D01*
X218623642Y-77907358D01*
X218618659Y-77924329D01*
X218605384Y-77959923D01*
X218563514Y-78015858D01*
X218551204Y-78023978D01*
X218531284Y-78035479D01*
X218531281Y-78035481D01*
X216816479Y-79750283D01*
X216791955Y-79792760D01*
X216781590Y-79810715D01*
X216737423Y-79887214D01*
X216696499Y-80039942D01*
X216696499Y-80039944D01*
X216696499Y-80208045D01*
X216696500Y-80208058D01*
X216696500Y-95671330D01*
X216696499Y-95671348D01*
X216696499Y-95837054D01*
X216696498Y-95837054D01*
X216712125Y-95895374D01*
X216737423Y-95989785D01*
X216737424Y-95989786D01*
X216749971Y-96011520D01*
X216749972Y-96011521D01*
X216816475Y-96126709D01*
X216816481Y-96126717D01*
X216935349Y-96245585D01*
X216935355Y-96245590D01*
X217859425Y-97169660D01*
X217892910Y-97230983D01*
X217893361Y-97233149D01*
X217924261Y-97388491D01*
X217924264Y-97388501D01*
X217984602Y-97534172D01*
X217984609Y-97534185D01*
X218072210Y-97665288D01*
X218072213Y-97665292D01*
X218183707Y-97776786D01*
X218183711Y-97776789D01*
X218314814Y-97864390D01*
X218314827Y-97864397D01*
X218448825Y-97919900D01*
X218460503Y-97924737D01*
X218574995Y-97947511D01*
X218615153Y-97955499D01*
X218615156Y-97955500D01*
X218615158Y-97955500D01*
X218772844Y-97955500D01*
X218772845Y-97955499D01*
X218927497Y-97924737D01*
X219073179Y-97864394D01*
X219073181Y-97864392D01*
X219078047Y-97862377D01*
X219147517Y-97854908D01*
X219209996Y-97886183D01*
X219245648Y-97946272D01*
X219249500Y-97976938D01*
X219249500Y-110797330D01*
X219249499Y-110797348D01*
X219249499Y-110963054D01*
X219249498Y-110963054D01*
X219290424Y-111115787D01*
X219309417Y-111148683D01*
X219309418Y-111148686D01*
X219369475Y-111252709D01*
X219369481Y-111252717D01*
X219488349Y-111371585D01*
X219488355Y-111371590D01*
X227709181Y-119592416D01*
X227742666Y-119653739D01*
X227745500Y-119680097D01*
X227745500Y-126913330D01*
X227745499Y-126913348D01*
X227745499Y-127079054D01*
X227745498Y-127079054D01*
X227786424Y-127231787D01*
X227786847Y-127232519D01*
X227786861Y-127232544D01*
X227865477Y-127368712D01*
X227865481Y-127368717D01*
X227984349Y-127487585D01*
X227984355Y-127487590D01*
X230909139Y-130412374D01*
X230909149Y-130412385D01*
X230913479Y-130416715D01*
X230913480Y-130416716D01*
X231025284Y-130528520D01*
X231107467Y-130575967D01*
X231112095Y-130578639D01*
X231112097Y-130578641D01*
X231150151Y-130600611D01*
X231162215Y-130607577D01*
X231314943Y-130648501D01*
X231314946Y-130648501D01*
X231480653Y-130648501D01*
X231480669Y-130648500D01*
X233050402Y-130648500D01*
X233071647Y-130654738D01*
X233093736Y-130656318D01*
X233104519Y-130664390D01*
X233117441Y-130668185D01*
X233131940Y-130684918D01*
X233149669Y-130698190D01*
X233154376Y-130710810D01*
X233163196Y-130720989D01*
X233166347Y-130742906D01*
X233174086Y-130763654D01*
X233171223Y-130776814D01*
X233173140Y-130790147D01*
X233163940Y-130810290D01*
X233159234Y-130831927D01*
X233145965Y-130849652D01*
X233144115Y-130853703D01*
X233138083Y-130860181D01*
X233048978Y-130949286D01*
X231377082Y-132621181D01*
X231315759Y-132654666D01*
X231289401Y-132657500D01*
X230689598Y-132657500D01*
X230622559Y-132637815D01*
X230601917Y-132621181D01*
X225680819Y-127700083D01*
X225647334Y-127638760D01*
X225644500Y-127612402D01*
X225644500Y-120993059D01*
X225644501Y-120993046D01*
X225644501Y-120824945D01*
X225644501Y-120824943D01*
X225603577Y-120672215D01*
X225572083Y-120617666D01*
X225572083Y-120617665D01*
X225524524Y-120535290D01*
X225524521Y-120535286D01*
X225524520Y-120535284D01*
X225412716Y-120423480D01*
X225412715Y-120423479D01*
X225408385Y-120419149D01*
X225408374Y-120419139D01*
X221467590Y-116478355D01*
X221467588Y-116478352D01*
X221348717Y-116359481D01*
X221348716Y-116359480D01*
X221261904Y-116309360D01*
X221261904Y-116309359D01*
X221261900Y-116309358D01*
X221211785Y-116280423D01*
X221059057Y-116239499D01*
X220900943Y-116239499D01*
X220893347Y-116239499D01*
X220893331Y-116239500D01*
X220137999Y-116239500D01*
X220070960Y-116219815D01*
X220025205Y-116167011D01*
X220013999Y-116115500D01*
X220013999Y-114992129D01*
X220013998Y-114992123D01*
X220013997Y-114992116D01*
X220007591Y-114932517D01*
X219957296Y-114797669D01*
X219957295Y-114797668D01*
X219957293Y-114797664D01*
X219871047Y-114682455D01*
X219871044Y-114682452D01*
X219755835Y-114596206D01*
X219755828Y-114596202D01*
X219620982Y-114545908D01*
X219620983Y-114545908D01*
X219561383Y-114539501D01*
X219561381Y-114539500D01*
X219561373Y-114539500D01*
X219561364Y-114539500D01*
X217965629Y-114539500D01*
X217965623Y-114539501D01*
X217906016Y-114545908D01*
X217771171Y-114596202D01*
X217771164Y-114596206D01*
X217655955Y-114682452D01*
X217655952Y-114682455D01*
X217569706Y-114797664D01*
X217569702Y-114797671D01*
X217519408Y-114932517D01*
X217513001Y-114992116D01*
X217513001Y-114992123D01*
X217513000Y-114992135D01*
X217513000Y-118687870D01*
X217513001Y-118687876D01*
X217519408Y-118747483D01*
X217569702Y-118882328D01*
X217569706Y-118882335D01*
X217655952Y-118997544D01*
X217655955Y-118997547D01*
X217771164Y-119083793D01*
X217771171Y-119083797D01*
X217816118Y-119100561D01*
X217906017Y-119134091D01*
X217965627Y-119140500D01*
X218039000Y-119140499D01*
X218106038Y-119160183D01*
X218151794Y-119212986D01*
X218163000Y-119264499D01*
X218163000Y-122423595D01*
X218143315Y-122490634D01*
X218090511Y-122536389D01*
X218055185Y-122546534D01*
X218036535Y-122548989D01*
X218036527Y-122548991D01*
X217899574Y-122605719D01*
X217899571Y-122605720D01*
X217899571Y-122605721D01*
X217781964Y-122695964D01*
X217691961Y-122813259D01*
X217691719Y-122813574D01*
X217634991Y-122950527D01*
X217634990Y-122950529D01*
X217627590Y-123006741D01*
X217620500Y-123060599D01*
X217620500Y-123154251D01*
X217620501Y-123185499D01*
X217600817Y-123252539D01*
X217548013Y-123298294D01*
X217496501Y-123309500D01*
X216469249Y-123309500D01*
X216439808Y-123300855D01*
X216409822Y-123294332D01*
X216404806Y-123290577D01*
X216402210Y-123289815D01*
X216381568Y-123273181D01*
X216350319Y-123241932D01*
X216316834Y-123180609D01*
X216314000Y-123154251D01*
X216314000Y-119264499D01*
X216333685Y-119197460D01*
X216386489Y-119151705D01*
X216438000Y-119140499D01*
X216511371Y-119140499D01*
X216511372Y-119140499D01*
X216570983Y-119134091D01*
X216705831Y-119083796D01*
X216821046Y-118997546D01*
X216907296Y-118882331D01*
X216957591Y-118747483D01*
X216964000Y-118687873D01*
X216963999Y-114992128D01*
X216957591Y-114932517D01*
X216907296Y-114797669D01*
X216907295Y-114797668D01*
X216907293Y-114797664D01*
X216821047Y-114682455D01*
X216821044Y-114682452D01*
X216705835Y-114596206D01*
X216705828Y-114596202D01*
X216570982Y-114545908D01*
X216570983Y-114545908D01*
X216511383Y-114539501D01*
X216511381Y-114539500D01*
X216511373Y-114539500D01*
X216511364Y-114539500D01*
X214915629Y-114539500D01*
X214915623Y-114539501D01*
X214856016Y-114545908D01*
X214721171Y-114596202D01*
X214721164Y-114596206D01*
X214605955Y-114682452D01*
X214605952Y-114682455D01*
X214519706Y-114797664D01*
X214519702Y-114797671D01*
X214469408Y-114932517D01*
X214463001Y-114992116D01*
X214463001Y-114992123D01*
X214463000Y-114992135D01*
X214463000Y-118687870D01*
X214463001Y-118687876D01*
X214469408Y-118747483D01*
X214519702Y-118882328D01*
X214519706Y-118882335D01*
X214605952Y-118997544D01*
X214605955Y-118997547D01*
X214721164Y-119083793D01*
X214721171Y-119083797D01*
X214766118Y-119100561D01*
X214856017Y-119134091D01*
X214915627Y-119140500D01*
X214989000Y-119140499D01*
X215056038Y-119160183D01*
X215101794Y-119212986D01*
X215113000Y-119264499D01*
X215113000Y-123367678D01*
X215112999Y-123367696D01*
X215112999Y-123533402D01*
X215112998Y-123533402D01*
X215153923Y-123686134D01*
X215154717Y-123688049D01*
X215154904Y-123689794D01*
X215156027Y-123693983D01*
X215155373Y-123694158D01*
X215158225Y-123720685D01*
X215162893Y-123753147D01*
X215161939Y-123755234D01*
X215162185Y-123757518D01*
X215147496Y-123786860D01*
X215133868Y-123816703D01*
X215131936Y-123817944D01*
X215130909Y-123819997D01*
X215102686Y-123836742D01*
X215075090Y-123854477D01*
X215072061Y-123854912D01*
X215070820Y-123855649D01*
X215040155Y-123859500D01*
X214890585Y-123859500D01*
X214823546Y-123839815D01*
X214777791Y-123787011D01*
X214772879Y-123774504D01*
X214772836Y-123774374D01*
X214736814Y-123665666D01*
X214644712Y-123516344D01*
X214520656Y-123392288D01*
X214520655Y-123392287D01*
X214461402Y-123355739D01*
X214414678Y-123303791D01*
X214402500Y-123250201D01*
X214402500Y-122621797D01*
X214422185Y-122554758D01*
X214461403Y-122516258D01*
X214520656Y-122479712D01*
X214644712Y-122355656D01*
X214736814Y-122206334D01*
X214791999Y-122039797D01*
X214802500Y-121937009D01*
X214802499Y-120886992D01*
X214791999Y-120784203D01*
X214736814Y-120617666D01*
X214644712Y-120468344D01*
X214520656Y-120344288D01*
X214386689Y-120261657D01*
X214371336Y-120252187D01*
X214371331Y-120252185D01*
X214324887Y-120236795D01*
X214204797Y-120197001D01*
X214204795Y-120197000D01*
X214102010Y-120186500D01*
X213501998Y-120186500D01*
X213501980Y-120186501D01*
X213399203Y-120197000D01*
X213399200Y-120197001D01*
X213232668Y-120252185D01*
X213232663Y-120252187D01*
X213083342Y-120344289D01*
X212959289Y-120468342D01*
X212867187Y-120617663D01*
X212867187Y-120617664D01*
X212867186Y-120617666D01*
X212812001Y-120784203D01*
X212812001Y-120784204D01*
X212812000Y-120784204D01*
X212801500Y-120886983D01*
X212801500Y-121937001D01*
X212801501Y-121937019D01*
X212812000Y-122039796D01*
X212812001Y-122039799D01*
X212867185Y-122206331D01*
X212867187Y-122206336D01*
X212901212Y-122261499D01*
X212959288Y-122355656D01*
X213083344Y-122479712D01*
X213142596Y-122516258D01*
X213189321Y-122568204D01*
X213201500Y-122621797D01*
X213201500Y-123250201D01*
X213181815Y-123317240D01*
X213142598Y-123355739D01*
X213083344Y-123392287D01*
X212959289Y-123516342D01*
X212867187Y-123665663D01*
X212867185Y-123665668D01*
X212849322Y-123719577D01*
X212812001Y-123832203D01*
X212812001Y-123832204D01*
X212812000Y-123832204D01*
X212801500Y-123934983D01*
X212801500Y-124985001D01*
X212801501Y-124985019D01*
X212812000Y-125087796D01*
X212812001Y-125087799D01*
X212867185Y-125254331D01*
X212867187Y-125254336D01*
X212888802Y-125289379D01*
X212959288Y-125403656D01*
X213083344Y-125527712D01*
X213232666Y-125619814D01*
X213399203Y-125674999D01*
X213501991Y-125685500D01*
X213525900Y-125685499D01*
X213592938Y-125705181D01*
X213638694Y-125757983D01*
X213648641Y-125827142D01*
X213619618Y-125890698D01*
X213613583Y-125897180D01*
X209929681Y-129581083D01*
X209868358Y-129614568D01*
X209798666Y-129609584D01*
X209742733Y-129567712D01*
X209718316Y-129502248D01*
X209718000Y-129493402D01*
X209718000Y-129426821D01*
X209682592Y-129203266D01*
X209620202Y-129011252D01*
X209612647Y-128987999D01*
X209612645Y-128987996D01*
X209612645Y-128987994D01*
X209533415Y-128832499D01*
X209509888Y-128786324D01*
X209376845Y-128603206D01*
X209216794Y-128443155D01*
X209033676Y-128310112D01*
X208832005Y-128207354D01*
X208616733Y-128137407D01*
X208393178Y-128102000D01*
X208393173Y-128102000D01*
X208166827Y-128102000D01*
X208166822Y-128102000D01*
X207943266Y-128137407D01*
X207727994Y-128207354D01*
X207526323Y-128310112D01*
X207343203Y-128443157D01*
X207183157Y-128603203D01*
X207050112Y-128786323D01*
X206947354Y-128987994D01*
X206877407Y-129203266D01*
X206842000Y-129426821D01*
X206842000Y-129653178D01*
X206877407Y-129876733D01*
X206947354Y-130092005D01*
X207050112Y-130293676D01*
X207183155Y-130476794D01*
X207183157Y-130476796D01*
X207185802Y-130479441D01*
X207219287Y-130540764D01*
X207214303Y-130610456D01*
X207172431Y-130666389D01*
X207141457Y-130683303D01*
X207100172Y-130698702D01*
X207100164Y-130698706D01*
X206984955Y-130784952D01*
X206984952Y-130784955D01*
X206898706Y-130900164D01*
X206898702Y-130900171D01*
X206848408Y-131035017D01*
X206842001Y-131094616D01*
X206842001Y-131094623D01*
X206842000Y-131094635D01*
X206842000Y-133065370D01*
X206842001Y-133065376D01*
X206848408Y-133124983D01*
X206898702Y-133259828D01*
X206898706Y-133259835D01*
X206984952Y-133375044D01*
X206984955Y-133375047D01*
X207100164Y-133461293D01*
X207100171Y-133461297D01*
X207141300Y-133476637D01*
X207235017Y-133511591D01*
X207294627Y-133518000D01*
X207555501Y-133517999D01*
X207622539Y-133537683D01*
X207668294Y-133590487D01*
X207679500Y-133641999D01*
X207679500Y-138089330D01*
X207679499Y-138089348D01*
X207679499Y-138255054D01*
X207679498Y-138255054D01*
X207720423Y-138407785D01*
X207749358Y-138457900D01*
X207749359Y-138457904D01*
X207749360Y-138457904D01*
X207789450Y-138527344D01*
X207799479Y-138544714D01*
X207799481Y-138544717D01*
X207918349Y-138663585D01*
X207918355Y-138663590D01*
X217447139Y-148192374D01*
X217447149Y-148192385D01*
X217451479Y-148196715D01*
X217451480Y-148196716D01*
X217563284Y-148308520D01*
X217635631Y-148350289D01*
X217635632Y-148350290D01*
X217675156Y-148373109D01*
X217700215Y-148387577D01*
X217852942Y-148428500D01*
X217852943Y-148428500D01*
X238419331Y-148428500D01*
X238419347Y-148428501D01*
X238426943Y-148428501D01*
X238585054Y-148428501D01*
X238585057Y-148428501D01*
X238737785Y-148387577D01*
X238802369Y-148350289D01*
X238874716Y-148308520D01*
X238986520Y-148196716D01*
X238986520Y-148196714D01*
X238996724Y-148186511D01*
X238996728Y-148186506D01*
X239984523Y-147198711D01*
X247069500Y-147198711D01*
X247069500Y-147441288D01*
X247101161Y-147681785D01*
X247163947Y-147916104D01*
X247256773Y-148140205D01*
X247256776Y-148140212D01*
X247378064Y-148350289D01*
X247378065Y-148350290D01*
X247378067Y-148350293D01*
X247525733Y-148542736D01*
X247525739Y-148542743D01*
X247697256Y-148714260D01*
X247697262Y-148714265D01*
X247889711Y-148861936D01*
X248099788Y-148983224D01*
X248323900Y-149076054D01*
X248558211Y-149138838D01*
X248738586Y-149162584D01*
X248798711Y-149170500D01*
X248798712Y-149170500D01*
X249041289Y-149170500D01*
X249089388Y-149164167D01*
X249281789Y-149138838D01*
X249516100Y-149076054D01*
X249740212Y-148983224D01*
X249950289Y-148861936D01*
X250142738Y-148714265D01*
X250314265Y-148542738D01*
X250461936Y-148350289D01*
X250583224Y-148140212D01*
X250676054Y-147916100D01*
X250738838Y-147681789D01*
X250770500Y-147441288D01*
X250770500Y-147198712D01*
X250738838Y-146958211D01*
X250676054Y-146723900D01*
X250583224Y-146499788D01*
X250461936Y-146289711D01*
X250401018Y-146210321D01*
X250314266Y-146097263D01*
X250314260Y-146097256D01*
X250142743Y-145925739D01*
X250142736Y-145925733D01*
X249950293Y-145778067D01*
X249950292Y-145778066D01*
X249950289Y-145778064D01*
X249740212Y-145656776D01*
X249740205Y-145656773D01*
X249516104Y-145563947D01*
X249281785Y-145501161D01*
X249041289Y-145469500D01*
X249041288Y-145469500D01*
X248798712Y-145469500D01*
X248798711Y-145469500D01*
X248558214Y-145501161D01*
X248323895Y-145563947D01*
X248099794Y-145656773D01*
X248099785Y-145656777D01*
X247889706Y-145778067D01*
X247697263Y-145925733D01*
X247697256Y-145925739D01*
X247525739Y-146097256D01*
X247525733Y-146097263D01*
X247378067Y-146289706D01*
X247256777Y-146499785D01*
X247256773Y-146499794D01*
X247163947Y-146723895D01*
X247101161Y-146958214D01*
X247069500Y-147198711D01*
X239984523Y-147198711D01*
X249278506Y-137904728D01*
X249278511Y-137904724D01*
X249288714Y-137894520D01*
X249288716Y-137894520D01*
X249400520Y-137782716D01*
X249450885Y-137695481D01*
X249479577Y-137645785D01*
X249520501Y-137493057D01*
X249520501Y-137334943D01*
X249520501Y-137327348D01*
X249520500Y-137327330D01*
X249520500Y-133641999D01*
X249540185Y-133574960D01*
X249592989Y-133529205D01*
X249644500Y-133517999D01*
X249905371Y-133517999D01*
X249905372Y-133517999D01*
X249964983Y-133511591D01*
X250099831Y-133461296D01*
X250215046Y-133375046D01*
X250301296Y-133259831D01*
X250351591Y-133124983D01*
X250358000Y-133065373D01*
X250357999Y-131094628D01*
X250351591Y-131035017D01*
X250325282Y-130964480D01*
X250301297Y-130900171D01*
X250301293Y-130900164D01*
X250215047Y-130784955D01*
X250215044Y-130784952D01*
X250099835Y-130698706D01*
X250099825Y-130698701D01*
X250058543Y-130683303D01*
X250002610Y-130641431D01*
X249978194Y-130575967D01*
X249993046Y-130507694D01*
X250014201Y-130479437D01*
X250016845Y-130476794D01*
X250149888Y-130293676D01*
X250252647Y-130092001D01*
X250322592Y-129876733D01*
X250336858Y-129786663D01*
X250358000Y-129653178D01*
X250358000Y-129426821D01*
X250322592Y-129203266D01*
X250260202Y-129011252D01*
X250252647Y-128987999D01*
X250252645Y-128987996D01*
X250252645Y-128987994D01*
X250173415Y-128832499D01*
X250149888Y-128786324D01*
X250016845Y-128603206D01*
X249856794Y-128443155D01*
X249673676Y-128310112D01*
X249472005Y-128207354D01*
X249256733Y-128137407D01*
X249033178Y-128102000D01*
X249033173Y-128102000D01*
X248806827Y-128102000D01*
X248806822Y-128102000D01*
X248583266Y-128137407D01*
X248367994Y-128207354D01*
X248166323Y-128310112D01*
X247983203Y-128443157D01*
X247823157Y-128603203D01*
X247690112Y-128786323D01*
X247587354Y-128987994D01*
X247517407Y-129203266D01*
X247482000Y-129426821D01*
X247482000Y-129653178D01*
X247517407Y-129876733D01*
X247587354Y-130092005D01*
X247690112Y-130293676D01*
X247823155Y-130476794D01*
X247823157Y-130476796D01*
X247825802Y-130479441D01*
X247859287Y-130540764D01*
X247854303Y-130610456D01*
X247812431Y-130666389D01*
X247781457Y-130683303D01*
X247740172Y-130698702D01*
X247740164Y-130698706D01*
X247624955Y-130784952D01*
X247624952Y-130784955D01*
X247538706Y-130900164D01*
X247538702Y-130900171D01*
X247488408Y-131035017D01*
X247482001Y-131094616D01*
X247482001Y-131094623D01*
X247482000Y-131094635D01*
X247482000Y-133065370D01*
X247482001Y-133065376D01*
X247488408Y-133124983D01*
X247538702Y-133259828D01*
X247538706Y-133259835D01*
X247624952Y-133375044D01*
X247624955Y-133375047D01*
X247740164Y-133461293D01*
X247740171Y-133461297D01*
X247781300Y-133476637D01*
X247875017Y-133511591D01*
X247934627Y-133518000D01*
X248195501Y-133517999D01*
X248262539Y-133537683D01*
X248308294Y-133590487D01*
X248319500Y-133641999D01*
X248319500Y-137113903D01*
X248299815Y-137180942D01*
X248283181Y-137201584D01*
X238293584Y-147191181D01*
X238232261Y-147224666D01*
X238205903Y-147227500D01*
X230288404Y-147227500D01*
X230221365Y-147207815D01*
X230175610Y-147155011D01*
X230165666Y-147085853D01*
X230194691Y-147022297D01*
X230253469Y-146984523D01*
X230256310Y-146983725D01*
X230260878Y-146982501D01*
X230260881Y-146982501D01*
X230413609Y-146941577D01*
X230463728Y-146912639D01*
X230550540Y-146862520D01*
X230662344Y-146750716D01*
X230662344Y-146750714D01*
X230672552Y-146740507D01*
X230672554Y-146740504D01*
X230866908Y-146546150D01*
X230928231Y-146512665D01*
X230997923Y-146517649D01*
X231042270Y-146546150D01*
X231136635Y-146640515D01*
X231267865Y-146716281D01*
X231414234Y-146755500D01*
X231414236Y-146755500D01*
X231565764Y-146755500D01*
X231565766Y-146755500D01*
X231712135Y-146716281D01*
X231843365Y-146640515D01*
X231950515Y-146533365D01*
X232026281Y-146402135D01*
X232065500Y-146255766D01*
X232065500Y-146104234D01*
X232026281Y-145957865D01*
X231950515Y-145826635D01*
X231843365Y-145719485D01*
X231843364Y-145719484D01*
X231837618Y-145713738D01*
X231839480Y-145711875D01*
X231805965Y-145665977D01*
X231799036Y-145614292D01*
X231800500Y-145595694D01*
X231800500Y-144614306D01*
X231797598Y-144577431D01*
X231751744Y-144419602D01*
X231668081Y-144278135D01*
X231668079Y-144278133D01*
X231668076Y-144278129D01*
X231651287Y-144261340D01*
X231617802Y-144200017D01*
X231622786Y-144130325D01*
X231651283Y-144085983D01*
X231971450Y-143765816D01*
X232032771Y-143732334D01*
X232059129Y-143729500D01*
X235564699Y-143729500D01*
X235631738Y-143749185D01*
X235677493Y-143801989D01*
X235682403Y-143814492D01*
X235710186Y-143898334D01*
X235802288Y-144047656D01*
X235926344Y-144171712D01*
X236075666Y-144263814D01*
X236242203Y-144318999D01*
X236344991Y-144329500D01*
X236970008Y-144329499D01*
X236970016Y-144329498D01*
X236970019Y-144329498D01*
X237026302Y-144323748D01*
X237072797Y-144318999D01*
X237239334Y-144263814D01*
X237388656Y-144171712D01*
X237512712Y-144047656D01*
X237604814Y-143898334D01*
X237659999Y-143731797D01*
X237670500Y-143629009D01*
X237670499Y-142628992D01*
X237659999Y-142526203D01*
X237604814Y-142359666D01*
X237512712Y-142210344D01*
X237388656Y-142086288D01*
X237239334Y-141994186D01*
X237072797Y-141939001D01*
X237072795Y-141939000D01*
X236970010Y-141928500D01*
X236344998Y-141928500D01*
X236344980Y-141928501D01*
X236242203Y-141939000D01*
X236242200Y-141939001D01*
X236075668Y-141994185D01*
X236075663Y-141994187D01*
X235926342Y-142086289D01*
X235802289Y-142210342D01*
X235710187Y-142359663D01*
X235710185Y-142359668D01*
X235682405Y-142443504D01*
X235642632Y-142500949D01*
X235578116Y-142527772D01*
X235564699Y-142528500D01*
X234345197Y-142528500D01*
X234278158Y-142508815D01*
X234232403Y-142456011D01*
X234222459Y-142386853D01*
X234251484Y-142323297D01*
X234257516Y-142316819D01*
X234488047Y-142086289D01*
X234890677Y-141683659D01*
X234952000Y-141650174D01*
X234978358Y-141647340D01*
X238066831Y-141647340D01*
X238066847Y-141647341D01*
X238074443Y-141647341D01*
X238232554Y-141647341D01*
X238232557Y-141647341D01*
X238385285Y-141606417D01*
X238435404Y-141577479D01*
X238522216Y-141527360D01*
X238634020Y-141415556D01*
X238634020Y-141415554D01*
X238644228Y-141405347D01*
X238644230Y-141405344D01*
X240236757Y-139812816D01*
X240298078Y-139779333D01*
X240324428Y-139776499D01*
X240486400Y-139776499D01*
X240486403Y-139776499D01*
X240596463Y-139762011D01*
X240596467Y-139762009D01*
X240596472Y-139762009D01*
X240733429Y-139705279D01*
X240851036Y-139615036D01*
X240941279Y-139497429D01*
X240998009Y-139360472D01*
X241012500Y-139250401D01*
X241012499Y-138476600D01*
X241012499Y-138476599D01*
X241012499Y-138476596D01*
X240998011Y-138366536D01*
X240998009Y-138366529D01*
X240998009Y-138366528D01*
X240941279Y-138229571D01*
X240851036Y-138111964D01*
X240733429Y-138021721D01*
X240733425Y-138021719D01*
X240589046Y-137961915D01*
X240534643Y-137918074D01*
X240512578Y-137851780D01*
X240512499Y-137847407D01*
X240512499Y-137101600D01*
X240512499Y-137101598D01*
X240512499Y-137101596D01*
X240498011Y-136991536D01*
X240498009Y-136991531D01*
X240498009Y-136991528D01*
X240496938Y-136988942D01*
X240487500Y-136941492D01*
X240487500Y-133109959D01*
X240487501Y-133109946D01*
X240487501Y-132941845D01*
X240487501Y-132941843D01*
X240446577Y-132789115D01*
X240408694Y-132723500D01*
X240367520Y-132652184D01*
X240255716Y-132540380D01*
X240255715Y-132540379D01*
X240251385Y-132536049D01*
X240251374Y-132536039D01*
X237375612Y-129660277D01*
X237342127Y-129598954D01*
X237347111Y-129529262D01*
X237388983Y-129473329D01*
X237454447Y-129448912D01*
X237510744Y-129458034D01*
X237574003Y-129484237D01*
X237720046Y-129513287D01*
X237728653Y-129514999D01*
X237728656Y-129515000D01*
X237728658Y-129515000D01*
X237886344Y-129515000D01*
X237886345Y-129514999D01*
X238040997Y-129484237D01*
X238186679Y-129423894D01*
X238317789Y-129336289D01*
X238429289Y-129224789D01*
X238516894Y-129093679D01*
X238577237Y-128947997D01*
X238600211Y-128832499D01*
X238608138Y-128792650D01*
X238640523Y-128730739D01*
X238642025Y-128729209D01*
X238858506Y-128512727D01*
X238858511Y-128512724D01*
X238868714Y-128502520D01*
X238868716Y-128502520D01*
X238980520Y-128390716D01*
X239032992Y-128299831D01*
X239059577Y-128253785D01*
X239100501Y-128101057D01*
X239100501Y-127942943D01*
X239100501Y-127935348D01*
X239100500Y-127935330D01*
X239100500Y-127052098D01*
X239109144Y-127022658D01*
X239115668Y-126992671D01*
X239119422Y-126987655D01*
X239120185Y-126985059D01*
X239136819Y-126964416D01*
X239226418Y-126874818D01*
X239287742Y-126841334D01*
X239314099Y-126838500D01*
X242817415Y-126838500D01*
X242884454Y-126858185D01*
X242930209Y-126910989D01*
X242935118Y-126923489D01*
X242971186Y-127032334D01*
X243063288Y-127181656D01*
X243187344Y-127305712D01*
X243336666Y-127397814D01*
X243503203Y-127452999D01*
X243605991Y-127463500D01*
X244206008Y-127463499D01*
X244206016Y-127463498D01*
X244206019Y-127463498D01*
X244262302Y-127457748D01*
X244308797Y-127452999D01*
X244475334Y-127397814D01*
X244624656Y-127305712D01*
X244748712Y-127181656D01*
X244840814Y-127032334D01*
X244895999Y-126865797D01*
X244906500Y-126763009D01*
X244906499Y-125712992D01*
X244906180Y-125709873D01*
X244895999Y-125610203D01*
X244895998Y-125610200D01*
X244883551Y-125572639D01*
X244840814Y-125443666D01*
X244748712Y-125294344D01*
X244624656Y-125170288D01*
X244531888Y-125113069D01*
X244475336Y-125078187D01*
X244475331Y-125078185D01*
X244473862Y-125077698D01*
X244308797Y-125023001D01*
X244308795Y-125023000D01*
X244206010Y-125012500D01*
X243605999Y-125012500D01*
X243605985Y-125012501D01*
X243595415Y-125013581D01*
X243526723Y-125000807D01*
X243495139Y-124977903D01*
X243065590Y-124548355D01*
X243065588Y-124548352D01*
X242239417Y-123722181D01*
X242205932Y-123660858D01*
X242210916Y-123591166D01*
X242252788Y-123535233D01*
X242318252Y-123510816D01*
X242327098Y-123510500D01*
X242842084Y-123510500D01*
X242909123Y-123530185D01*
X242954878Y-123582989D01*
X242959785Y-123595483D01*
X242989824Y-123686134D01*
X242996185Y-123705331D01*
X242996187Y-123705336D01*
X243007903Y-123724331D01*
X243088288Y-123854656D01*
X243212344Y-123978712D01*
X243361666Y-124070814D01*
X243528203Y-124125999D01*
X243630991Y-124136500D01*
X244256008Y-124136499D01*
X244256016Y-124136498D01*
X244256019Y-124136498D01*
X244312302Y-124130748D01*
X244358797Y-124125999D01*
X244525334Y-124070814D01*
X244674656Y-123978712D01*
X244798712Y-123854656D01*
X244890814Y-123705334D01*
X244945999Y-123538797D01*
X244956500Y-123436009D01*
X244956499Y-122435992D01*
X244945999Y-122333203D01*
X244890814Y-122166666D01*
X244798712Y-122017344D01*
X244674656Y-121893288D01*
X244674655Y-121893287D01*
X244602902Y-121849029D01*
X244556178Y-121797081D01*
X244544000Y-121743491D01*
X244544000Y-120826507D01*
X244544400Y-120825144D01*
X244544030Y-120823772D01*
X244554214Y-120791720D01*
X244563685Y-120759468D01*
X244564897Y-120758098D01*
X244565189Y-120757183D01*
X244568675Y-120753834D01*
X244588884Y-120731026D01*
X244595542Y-120725509D01*
X244674656Y-120676712D01*
X244772420Y-120578947D01*
X244776884Y-120575249D01*
X244803863Y-120563640D01*
X244829642Y-120549564D01*
X244835588Y-120549989D01*
X244841065Y-120547633D01*
X244870036Y-120552452D01*
X244899334Y-120554548D01*
X244905167Y-120558297D01*
X244909987Y-120559099D01*
X244918708Y-120566999D01*
X244943681Y-120583049D01*
X245037344Y-120676712D01*
X245186666Y-120768814D01*
X245353203Y-120823999D01*
X245455991Y-120834500D01*
X246081008Y-120834499D01*
X246081016Y-120834498D01*
X246081019Y-120834498D01*
X246159245Y-120826507D01*
X246183797Y-120823999D01*
X246350334Y-120768814D01*
X246499656Y-120676712D01*
X246623712Y-120552656D01*
X246715814Y-120403334D01*
X246770999Y-120236797D01*
X246781500Y-120134009D01*
X246781499Y-119133992D01*
X246779933Y-119118665D01*
X246770999Y-119031203D01*
X246770998Y-119031200D01*
X246759845Y-118997544D01*
X246715814Y-118864666D01*
X246623712Y-118715344D01*
X246499656Y-118591288D01*
X246499655Y-118591287D01*
X246373709Y-118513604D01*
X246326984Y-118461656D01*
X246319028Y-118440150D01*
X246317247Y-118433501D01*
X246304577Y-118386216D01*
X246304573Y-118386209D01*
X246225524Y-118249290D01*
X246225521Y-118249286D01*
X246225520Y-118249284D01*
X246113716Y-118137480D01*
X246113715Y-118137479D01*
X246109385Y-118133149D01*
X246109374Y-118133139D01*
X245851590Y-117875355D01*
X245851588Y-117875352D01*
X245732717Y-117756481D01*
X245732716Y-117756480D01*
X245645904Y-117706360D01*
X245645904Y-117706359D01*
X245645900Y-117706358D01*
X245595785Y-117677423D01*
X245443057Y-117636499D01*
X245284943Y-117636499D01*
X245277347Y-117636499D01*
X245277331Y-117636500D01*
X243157057Y-117636500D01*
X242998942Y-117636500D01*
X242846215Y-117677423D01*
X242846214Y-117677423D01*
X242846212Y-117677424D01*
X242846209Y-117677425D01*
X242796096Y-117706359D01*
X242796095Y-117706360D01*
X242752689Y-117731420D01*
X242709285Y-117756479D01*
X242709282Y-117756481D01*
X242597480Y-117868284D01*
X242597478Y-117868286D01*
X242079549Y-118386216D01*
X241572084Y-118893681D01*
X241510761Y-118927166D01*
X241484403Y-118930000D01*
X239698508Y-118930000D01*
X239697145Y-118929599D01*
X239695773Y-118929970D01*
X239663701Y-118919779D01*
X239631469Y-118910315D01*
X239630101Y-118909103D01*
X239629184Y-118908812D01*
X239625829Y-118905318D01*
X239603027Y-118885116D01*
X239597508Y-118878456D01*
X239548712Y-118799344D01*
X239450947Y-118701579D01*
X239447249Y-118697116D01*
X239435639Y-118670134D01*
X239421564Y-118644358D01*
X239421989Y-118638411D01*
X239419633Y-118632936D01*
X239424452Y-118603964D01*
X239426548Y-118574666D01*
X239430297Y-118568832D01*
X239431099Y-118564013D01*
X239438999Y-118555291D01*
X239455049Y-118530319D01*
X239491814Y-118493554D01*
X239548712Y-118436656D01*
X239640814Y-118287334D01*
X239695999Y-118120797D01*
X239706500Y-118018009D01*
X239706499Y-117392992D01*
X239695999Y-117290203D01*
X239640814Y-117123666D01*
X239548712Y-116974344D01*
X239424656Y-116850288D01*
X239424655Y-116850287D01*
X239411062Y-116841903D01*
X239364338Y-116789955D01*
X239353117Y-116720992D01*
X239359978Y-116693032D01*
X239400091Y-116585482D01*
X239406500Y-116525873D01*
X239406499Y-115630128D01*
X239400091Y-115570517D01*
X239349796Y-115435669D01*
X239349795Y-115435668D01*
X239349793Y-115435664D01*
X239263547Y-115320455D01*
X239263544Y-115320452D01*
X239148335Y-115234206D01*
X239148328Y-115234202D01*
X239013482Y-115183908D01*
X239013483Y-115183908D01*
X238953883Y-115177501D01*
X238953881Y-115177500D01*
X238953873Y-115177500D01*
X238953864Y-115177500D01*
X238058129Y-115177500D01*
X238058123Y-115177501D01*
X237998516Y-115183908D01*
X237863671Y-115234202D01*
X237863664Y-115234206D01*
X237748455Y-115320452D01*
X237748452Y-115320455D01*
X237662206Y-115435664D01*
X237662202Y-115435671D01*
X237611908Y-115570517D01*
X237605501Y-115630116D01*
X237605501Y-115630123D01*
X237605500Y-115630135D01*
X237605500Y-115768766D01*
X237585815Y-115835805D01*
X237533011Y-115881560D01*
X237463853Y-115891504D01*
X237400297Y-115862479D01*
X237374969Y-115830758D01*
X237374779Y-115830886D01*
X237373283Y-115828647D01*
X237372141Y-115827217D01*
X237371395Y-115825822D01*
X237283789Y-115694711D01*
X237283786Y-115694707D01*
X237172292Y-115583213D01*
X237172288Y-115583210D01*
X237041185Y-115495609D01*
X237041172Y-115495602D01*
X236895501Y-115435264D01*
X236895489Y-115435261D01*
X236740845Y-115404500D01*
X236740842Y-115404500D01*
X236583158Y-115404500D01*
X236583155Y-115404500D01*
X236428510Y-115435261D01*
X236428498Y-115435264D01*
X236282827Y-115495602D01*
X236282814Y-115495609D01*
X236151711Y-115583210D01*
X236151707Y-115583213D01*
X236040213Y-115694707D01*
X236040210Y-115694711D01*
X235952609Y-115825814D01*
X235952602Y-115825827D01*
X235892264Y-115971498D01*
X235892261Y-115971510D01*
X235861500Y-116126153D01*
X235861500Y-116283846D01*
X235892261Y-116438489D01*
X235892264Y-116438501D01*
X235952602Y-116584172D01*
X235952609Y-116584185D01*
X236040602Y-116715874D01*
X236061480Y-116782551D01*
X236061500Y-116784765D01*
X236061500Y-118482396D01*
X236041815Y-118549435D01*
X235989011Y-118595190D01*
X235919853Y-118605134D01*
X235898497Y-118600102D01*
X235831800Y-118578001D01*
X235729010Y-118567500D01*
X234678998Y-118567500D01*
X234678980Y-118567501D01*
X234576203Y-118578000D01*
X234576200Y-118578001D01*
X234409668Y-118633185D01*
X234409663Y-118633187D01*
X234260342Y-118725289D01*
X234136289Y-118849342D01*
X234044187Y-118998663D01*
X234044186Y-118998666D01*
X233989001Y-119165203D01*
X233989001Y-119165204D01*
X233989000Y-119165204D01*
X233978500Y-119267983D01*
X233978500Y-119868001D01*
X233978501Y-119868019D01*
X233989000Y-119970796D01*
X233989001Y-119970799D01*
X234044185Y-120137331D01*
X234044186Y-120137334D01*
X234136288Y-120286656D01*
X234260344Y-120410712D01*
X234409666Y-120502814D01*
X234576203Y-120557999D01*
X234678991Y-120568500D01*
X235729008Y-120568499D01*
X235729016Y-120568498D01*
X235729019Y-120568498D01*
X235785302Y-120562748D01*
X235831797Y-120557999D01*
X235998334Y-120502814D01*
X236147656Y-120410712D01*
X236271712Y-120286656D01*
X236308259Y-120227402D01*
X236360207Y-120180679D01*
X236413798Y-120168500D01*
X237336622Y-120168500D01*
X237403661Y-120188185D01*
X237442159Y-120227401D01*
X237463288Y-120261656D01*
X237587344Y-120385712D01*
X237736666Y-120477814D01*
X237814504Y-120503606D01*
X237871948Y-120543377D01*
X237898772Y-120607892D01*
X237899500Y-120621312D01*
X237899500Y-122232976D01*
X237897790Y-122238797D01*
X237898939Y-122244754D01*
X237888061Y-122271930D01*
X237879815Y-122300015D01*
X237875230Y-122303987D01*
X237872976Y-122309621D01*
X237849127Y-122326605D01*
X237827011Y-122345770D01*
X237821007Y-122346633D01*
X237816065Y-122350153D01*
X237786825Y-122351548D01*
X237757853Y-122355714D01*
X237750784Y-122353267D01*
X237746275Y-122353483D01*
X237713522Y-122340373D01*
X237713508Y-122340368D01*
X237701091Y-122333200D01*
X237697908Y-122331362D01*
X237697905Y-122331359D01*
X237697900Y-122331358D01*
X237647785Y-122302423D01*
X237495057Y-122261499D01*
X237336943Y-122261499D01*
X237329347Y-122261499D01*
X237329331Y-122261500D01*
X236171126Y-122261500D01*
X236104087Y-122241815D01*
X236058332Y-122189011D01*
X236047836Y-122150751D01*
X236046091Y-122134516D01*
X235995797Y-121999671D01*
X235995793Y-121999664D01*
X235909547Y-121884455D01*
X235909544Y-121884452D01*
X235794335Y-121798206D01*
X235794328Y-121798202D01*
X235659482Y-121747908D01*
X235659483Y-121747908D01*
X235599883Y-121741501D01*
X235599881Y-121741500D01*
X235599873Y-121741500D01*
X235599864Y-121741500D01*
X233284129Y-121741500D01*
X233284123Y-121741501D01*
X233224516Y-121747908D01*
X233089671Y-121798202D01*
X233089664Y-121798206D01*
X232974455Y-121884452D01*
X232974452Y-121884455D01*
X232888206Y-121999664D01*
X232888202Y-121999671D01*
X232837908Y-122134517D01*
X232831501Y-122194116D01*
X232831500Y-122194135D01*
X232831500Y-123529870D01*
X232831501Y-123529876D01*
X232837908Y-123589483D01*
X232888202Y-123724328D01*
X232888206Y-123724335D01*
X232974452Y-123839544D01*
X232974453Y-123839544D01*
X232974454Y-123839546D01*
X232992070Y-123852733D01*
X232992071Y-123852734D01*
X233033941Y-123908668D01*
X233038925Y-123978360D01*
X233005439Y-124039683D01*
X232992071Y-124051266D01*
X232974452Y-124064455D01*
X232888206Y-124179664D01*
X232888202Y-124179671D01*
X232837908Y-124314517D01*
X232831501Y-124374116D01*
X232831500Y-124374135D01*
X232831500Y-125709870D01*
X232831501Y-125709876D01*
X232837908Y-125769483D01*
X232888202Y-125904328D01*
X232888206Y-125904335D01*
X232974452Y-126019544D01*
X232974455Y-126019547D01*
X233089664Y-126105793D01*
X233089671Y-126105797D01*
X233224517Y-126156091D01*
X233224516Y-126156091D01*
X233231444Y-126156835D01*
X233284127Y-126162500D01*
X235599872Y-126162499D01*
X235659483Y-126156091D01*
X235794331Y-126105796D01*
X235909546Y-126019546D01*
X235995796Y-125904331D01*
X236046091Y-125769483D01*
X236047837Y-125753242D01*
X236074574Y-125688694D01*
X236131967Y-125648846D01*
X236171126Y-125642500D01*
X237329331Y-125642500D01*
X237329347Y-125642501D01*
X237336943Y-125642501D01*
X237495054Y-125642501D01*
X237495057Y-125642501D01*
X237647785Y-125601577D01*
X237697904Y-125572639D01*
X237713500Y-125563634D01*
X237781399Y-125547162D01*
X237847426Y-125570014D01*
X237890616Y-125624935D01*
X237899499Y-125671022D01*
X237899499Y-125813046D01*
X237899500Y-125813059D01*
X237899500Y-126672939D01*
X237899499Y-126672943D01*
X237899499Y-126831057D01*
X237899500Y-126831060D01*
X237899500Y-127721903D01*
X237879815Y-127788942D01*
X237863185Y-127809579D01*
X237792839Y-127879926D01*
X237731515Y-127913410D01*
X237729350Y-127913861D01*
X237574008Y-127944761D01*
X237573998Y-127944764D01*
X237428327Y-128005102D01*
X237428314Y-128005109D01*
X237297211Y-128092710D01*
X237297207Y-128092713D01*
X237185713Y-128204207D01*
X237185710Y-128204211D01*
X237098109Y-128335314D01*
X237098102Y-128335327D01*
X237037764Y-128480998D01*
X237037761Y-128481010D01*
X237007000Y-128635653D01*
X237007000Y-128793346D01*
X237037761Y-128947989D01*
X237037763Y-128947997D01*
X237063180Y-129009359D01*
X237063964Y-129011252D01*
X237071432Y-129080722D01*
X237040156Y-129143201D01*
X236980067Y-129178853D01*
X236910242Y-129176358D01*
X236861721Y-129146385D01*
X236774817Y-129059481D01*
X236774816Y-129059480D01*
X236688004Y-129009360D01*
X236688004Y-129009359D01*
X236688000Y-129009358D01*
X236637885Y-128980423D01*
X236485157Y-128939499D01*
X236327043Y-128939499D01*
X236319447Y-128939499D01*
X236319431Y-128939500D01*
X231753197Y-128939500D01*
X231686158Y-128919815D01*
X231665516Y-128903181D01*
X229520369Y-126758034D01*
X229486884Y-126696711D01*
X229484050Y-126670353D01*
X229484050Y-119439510D01*
X229484051Y-119439497D01*
X229484051Y-119271395D01*
X229484051Y-119271393D01*
X229443127Y-119118665D01*
X229364070Y-118981734D01*
X221086819Y-110704483D01*
X221053334Y-110643160D01*
X221050500Y-110616802D01*
X221050500Y-98025815D01*
X221070185Y-97958776D01*
X221122989Y-97913021D01*
X221192147Y-97903077D01*
X221221949Y-97911253D01*
X221254503Y-97924737D01*
X221368995Y-97947511D01*
X221409153Y-97955499D01*
X221409156Y-97955500D01*
X221409158Y-97955500D01*
X221566844Y-97955500D01*
X221566845Y-97955499D01*
X221721497Y-97924737D01*
X221867179Y-97864394D01*
X221901607Y-97841390D01*
X221998875Y-97776398D01*
X222065553Y-97755520D01*
X222067766Y-97755500D01*
X226943908Y-97755500D01*
X226987241Y-97763318D01*
X227057417Y-97789492D01*
X227117027Y-97795901D01*
X227337401Y-97795900D01*
X227404440Y-97815584D01*
X227450195Y-97868388D01*
X227461401Y-97919900D01*
X227461401Y-98336058D01*
X227441716Y-98403097D01*
X227402498Y-98441596D01*
X227372312Y-98460215D01*
X227307342Y-98500289D01*
X227183289Y-98624342D01*
X227091187Y-98773663D01*
X227091185Y-98773668D01*
X227079973Y-98807504D01*
X227036001Y-98940203D01*
X227036001Y-98940204D01*
X227036000Y-98940204D01*
X227025500Y-99042983D01*
X227025500Y-100093001D01*
X227025501Y-100093019D01*
X227036000Y-100195796D01*
X227036001Y-100195799D01*
X227071684Y-100303482D01*
X227091186Y-100362334D01*
X227183288Y-100511656D01*
X227307344Y-100635712D01*
X227456666Y-100727814D01*
X227623203Y-100782999D01*
X227725991Y-100793500D01*
X228326008Y-100793499D01*
X228326016Y-100793498D01*
X228326019Y-100793498D01*
X228382302Y-100787748D01*
X228428797Y-100782999D01*
X228595334Y-100727814D01*
X228744656Y-100635712D01*
X228868712Y-100511656D01*
X228960814Y-100362334D01*
X229015999Y-100195797D01*
X229026500Y-100093009D01*
X229026499Y-99042992D01*
X229015999Y-98940203D01*
X228972027Y-98807504D01*
X228971047Y-98779039D01*
X228966995Y-98750853D01*
X228969862Y-98744574D01*
X228969625Y-98737676D01*
X228984188Y-98713204D01*
X228996020Y-98687297D01*
X229001827Y-98683564D01*
X229005357Y-98677634D01*
X229030839Y-98664920D01*
X229054798Y-98649523D01*
X229064493Y-98648128D01*
X229067877Y-98646441D01*
X229089733Y-98644500D01*
X229234330Y-98644500D01*
X229234346Y-98644501D01*
X229241942Y-98644501D01*
X229400053Y-98644501D01*
X229400056Y-98644501D01*
X229552784Y-98603577D01*
X229552786Y-98603575D01*
X229552788Y-98603575D01*
X229552789Y-98603574D01*
X229603639Y-98574216D01*
X229603640Y-98574215D01*
X229689715Y-98524520D01*
X229801519Y-98412716D01*
X229801520Y-98412714D01*
X230198120Y-98016115D01*
X230277177Y-97879183D01*
X230281141Y-97864390D01*
X230282102Y-97860805D01*
X230318468Y-97801146D01*
X230381315Y-97770617D01*
X230401876Y-97768901D01*
X231137855Y-97768901D01*
X231204894Y-97788586D01*
X231250649Y-97841390D01*
X231255560Y-97853894D01*
X231286171Y-97946272D01*
X231287186Y-97949333D01*
X231287187Y-97949336D01*
X231304212Y-97976938D01*
X231379288Y-98098656D01*
X231503344Y-98222712D01*
X231652666Y-98314814D01*
X231819203Y-98369999D01*
X231921991Y-98380500D01*
X232522008Y-98380499D01*
X232532574Y-98379419D01*
X232601266Y-98392186D01*
X232632860Y-98415096D01*
X233504284Y-99286520D01*
X233504286Y-99286521D01*
X233504290Y-99286524D01*
X233641209Y-99365573D01*
X233641216Y-99365577D01*
X233793943Y-99406501D01*
X233793945Y-99406501D01*
X233959654Y-99406501D01*
X233959670Y-99406500D01*
X235157903Y-99406500D01*
X235224942Y-99426185D01*
X235245584Y-99442819D01*
X235485478Y-99682713D01*
X235485480Y-99682716D01*
X235597284Y-99794520D01*
X235597286Y-99794521D01*
X235639645Y-99836880D01*
X235673130Y-99898203D01*
X235673219Y-99950507D01*
X235672001Y-99956195D01*
X235661500Y-100058983D01*
X235661500Y-101109001D01*
X235661501Y-101109019D01*
X235672000Y-101211796D01*
X235672001Y-101211799D01*
X235727185Y-101378331D01*
X235727187Y-101378336D01*
X235762069Y-101434888D01*
X235819288Y-101527656D01*
X235943344Y-101651712D01*
X236002596Y-101688258D01*
X236049321Y-101740204D01*
X236061500Y-101793797D01*
X236061500Y-103433234D01*
X236041815Y-103500273D01*
X236040602Y-103502125D01*
X235952609Y-103633814D01*
X235952602Y-103633827D01*
X235892264Y-103779498D01*
X235892261Y-103779510D01*
X235861500Y-103934153D01*
X235861500Y-104091846D01*
X235892225Y-104246309D01*
X235885998Y-104315900D01*
X235843135Y-104371078D01*
X235777245Y-104394322D01*
X235770608Y-104394500D01*
X230473749Y-104394500D01*
X230406710Y-104374815D01*
X230360955Y-104322011D01*
X230349749Y-104270500D01*
X230349749Y-103422129D01*
X230349748Y-103422123D01*
X230349747Y-103422116D01*
X230343341Y-103362517D01*
X230339500Y-103352220D01*
X230293047Y-103227671D01*
X230293043Y-103227664D01*
X230206797Y-103112455D01*
X230206794Y-103112452D01*
X230091585Y-103026206D01*
X230091578Y-103026202D01*
X229956732Y-102975908D01*
X229956733Y-102975908D01*
X229897133Y-102969501D01*
X229897131Y-102969500D01*
X229897123Y-102969500D01*
X229897114Y-102969500D01*
X226801379Y-102969500D01*
X226801373Y-102969501D01*
X226741766Y-102975908D01*
X226606921Y-103026202D01*
X226606914Y-103026206D01*
X226491705Y-103112452D01*
X226491702Y-103112455D01*
X226405456Y-103227664D01*
X226405452Y-103227671D01*
X226355158Y-103362517D01*
X226348751Y-103422116D01*
X226348751Y-103422123D01*
X226348750Y-103422135D01*
X226348750Y-106567870D01*
X226348751Y-106567876D01*
X226355158Y-106627483D01*
X226405452Y-106762328D01*
X226405456Y-106762335D01*
X226491702Y-106877544D01*
X226491705Y-106877547D01*
X226606914Y-106963793D01*
X226606921Y-106963797D01*
X226741767Y-107014091D01*
X226741766Y-107014091D01*
X226748694Y-107014835D01*
X226801377Y-107020500D01*
X229897122Y-107020499D01*
X229956733Y-107014091D01*
X230091581Y-106963796D01*
X230206796Y-106877546D01*
X230293046Y-106762331D01*
X230343341Y-106627483D01*
X230349750Y-106567873D01*
X230349750Y-105719500D01*
X230369435Y-105652461D01*
X230422239Y-105606706D01*
X230473750Y-105595500D01*
X239596331Y-105595500D01*
X239596347Y-105595501D01*
X239603943Y-105595501D01*
X239762054Y-105595501D01*
X239762057Y-105595501D01*
X239914785Y-105554577D01*
X239964904Y-105525639D01*
X240051716Y-105475520D01*
X240163520Y-105363716D01*
X240163520Y-105363714D01*
X240173728Y-105353507D01*
X240173730Y-105353504D01*
X242293506Y-103233728D01*
X242293511Y-103233724D01*
X242303714Y-103223520D01*
X242303716Y-103223520D01*
X242415520Y-103111716D01*
X242468925Y-103019215D01*
X242494577Y-102974785D01*
X242497546Y-102963704D01*
X242503739Y-102951754D01*
X242518959Y-102935858D01*
X242530413Y-102917063D01*
X242542651Y-102911116D01*
X242552061Y-102901289D01*
X242573459Y-102896145D01*
X242593256Y-102886526D01*
X242612305Y-102886808D01*
X242619996Y-102884960D01*
X242625878Y-102887009D01*
X242638026Y-102887190D01*
X242745155Y-102908500D01*
X242745158Y-102908500D01*
X242902844Y-102908500D01*
X242902845Y-102908499D01*
X243057497Y-102877737D01*
X243203179Y-102817394D01*
X243251617Y-102785029D01*
X243334875Y-102729398D01*
X243401553Y-102708520D01*
X243403766Y-102708500D01*
X244007331Y-102708500D01*
X244007347Y-102708501D01*
X244014943Y-102708501D01*
X244173054Y-102708501D01*
X244173057Y-102708501D01*
X244325785Y-102667577D01*
X244375904Y-102638639D01*
X244462716Y-102588520D01*
X244574520Y-102476716D01*
X244574520Y-102476714D01*
X244584728Y-102466507D01*
X244584729Y-102466504D01*
X245251662Y-101799572D01*
X245312983Y-101766089D01*
X245315150Y-101765638D01*
X245373085Y-101754113D01*
X245470497Y-101734737D01*
X245616179Y-101674394D01*
X245747289Y-101586789D01*
X245858789Y-101475289D01*
X245946394Y-101344179D01*
X245948845Y-101338263D01*
X246001228Y-101211796D01*
X246006737Y-101198497D01*
X246037500Y-101043842D01*
X246037500Y-100886158D01*
X246037500Y-100886155D01*
X246037499Y-100886153D01*
X246019069Y-100793499D01*
X246006737Y-100731503D01*
X246005208Y-100727812D01*
X245946397Y-100585827D01*
X245946390Y-100585814D01*
X245858789Y-100454711D01*
X245858786Y-100454707D01*
X245747292Y-100343213D01*
X245747288Y-100343210D01*
X245616185Y-100255609D01*
X245616172Y-100255602D01*
X245470501Y-100195264D01*
X245470489Y-100195261D01*
X245315845Y-100164500D01*
X245315842Y-100164500D01*
X245158158Y-100164500D01*
X245158155Y-100164500D01*
X245003510Y-100195261D01*
X245003498Y-100195264D01*
X244857827Y-100255602D01*
X244857814Y-100255609D01*
X244726711Y-100343210D01*
X244726707Y-100343213D01*
X244615213Y-100454707D01*
X244615210Y-100454711D01*
X244527609Y-100585814D01*
X244527602Y-100585827D01*
X244467264Y-100731498D01*
X244467261Y-100731508D01*
X244436361Y-100886850D01*
X244403976Y-100948761D01*
X244402425Y-100950339D01*
X243881584Y-101471181D01*
X243820261Y-101504666D01*
X243793903Y-101507500D01*
X243403766Y-101507500D01*
X243336727Y-101487815D01*
X243334875Y-101486602D01*
X243203185Y-101398609D01*
X243203172Y-101398602D01*
X243057501Y-101338264D01*
X243057489Y-101338261D01*
X242902845Y-101307500D01*
X242902842Y-101307500D01*
X242745158Y-101307500D01*
X242745155Y-101307500D01*
X242683691Y-101319726D01*
X242614100Y-101313499D01*
X242558922Y-101270636D01*
X242535678Y-101204746D01*
X242535500Y-101198109D01*
X242535500Y-94281943D01*
X242529690Y-94260263D01*
X242528147Y-94254503D01*
X242519114Y-94220789D01*
X242494577Y-94129216D01*
X242482798Y-94108814D01*
X242415524Y-93992290D01*
X242415521Y-93992286D01*
X242415520Y-93992284D01*
X242303716Y-93880480D01*
X242303715Y-93880479D01*
X242299385Y-93876149D01*
X242299374Y-93876139D01*
X240009590Y-91586355D01*
X240009588Y-91586352D01*
X239890717Y-91467481D01*
X239890716Y-91467480D01*
X239803904Y-91417360D01*
X239803904Y-91417359D01*
X239803900Y-91417358D01*
X239753785Y-91388423D01*
X239601057Y-91347499D01*
X239442943Y-91347499D01*
X239435347Y-91347499D01*
X239435331Y-91347500D01*
X231877097Y-91347500D01*
X231810058Y-91327815D01*
X231789416Y-91311181D01*
X230596414Y-90118179D01*
X230562929Y-90056856D01*
X230567913Y-89987164D01*
X230609785Y-89931231D01*
X230675249Y-89906814D01*
X230684095Y-89906498D01*
X231002871Y-89906498D01*
X231002872Y-89906498D01*
X231062483Y-89900090D01*
X231096667Y-89887339D01*
X231166358Y-89882356D01*
X231183327Y-89887337D01*
X231217517Y-89900090D01*
X231277127Y-89906499D01*
X232272872Y-89906498D01*
X232332483Y-89900090D01*
X232366667Y-89887339D01*
X232436358Y-89882356D01*
X232453327Y-89887337D01*
X232487517Y-89900090D01*
X232547127Y-89906499D01*
X233542872Y-89906498D01*
X233602483Y-89900090D01*
X233636667Y-89887339D01*
X233706358Y-89882356D01*
X233723327Y-89887337D01*
X233757517Y-89900090D01*
X233817127Y-89906499D01*
X234812872Y-89906498D01*
X234872483Y-89900090D01*
X234906667Y-89887339D01*
X234976358Y-89882356D01*
X234993327Y-89887337D01*
X235027517Y-89900090D01*
X235087127Y-89906499D01*
X236082872Y-89906498D01*
X236142483Y-89900090D01*
X236277331Y-89849795D01*
X236392546Y-89763545D01*
X236478796Y-89648330D01*
X236529091Y-89513482D01*
X236535500Y-89453872D01*
X236535499Y-88480497D01*
X236555183Y-88413459D01*
X236607987Y-88367704D01*
X236659494Y-88356498D01*
X238147872Y-88356498D01*
X238207483Y-88350090D01*
X238342331Y-88299795D01*
X238457546Y-88213545D01*
X238543796Y-88098330D01*
X238544576Y-88096236D01*
X238547960Y-88087167D01*
X238589831Y-88031233D01*
X238655296Y-88006816D01*
X238664142Y-88006500D01*
X239405331Y-88006500D01*
X239405347Y-88006501D01*
X239412943Y-88006501D01*
X239571054Y-88006501D01*
X239571057Y-88006501D01*
X239723785Y-87965577D01*
X239773904Y-87936639D01*
X239860716Y-87886520D01*
X239972520Y-87774716D01*
X239972520Y-87774714D01*
X239982728Y-87764507D01*
X239982730Y-87764504D01*
X245976506Y-81770728D01*
X245976511Y-81770724D01*
X245986714Y-81760520D01*
X245986716Y-81760520D01*
X246098520Y-81648716D01*
X246153278Y-81553871D01*
X246177577Y-81511785D01*
X246218500Y-81359058D01*
X246218500Y-81200943D01*
X246218500Y-78404499D01*
X246238185Y-78337460D01*
X246290989Y-78291705D01*
X246342500Y-78280499D01*
X246465871Y-78280499D01*
X246465872Y-78280499D01*
X246525483Y-78274091D01*
X246660331Y-78223796D01*
X246775546Y-78137546D01*
X246861796Y-78022331D01*
X246912091Y-77887483D01*
X246918500Y-77827873D01*
X246918499Y-75552128D01*
X246912091Y-75492517D01*
X246906726Y-75478134D01*
X246861797Y-75357671D01*
X246861793Y-75357664D01*
X246775547Y-75242455D01*
X246775544Y-75242452D01*
X246660335Y-75156206D01*
X246660328Y-75156202D01*
X246525482Y-75105908D01*
X246525483Y-75105908D01*
X246465883Y-75099501D01*
X246465881Y-75099500D01*
X246465873Y-75099500D01*
X246465865Y-75099500D01*
X246342500Y-75099500D01*
X246275461Y-75079815D01*
X246229706Y-75027011D01*
X246218500Y-74975500D01*
X246218500Y-73854585D01*
X246238185Y-73787546D01*
X246290989Y-73741791D01*
X246303489Y-73736881D01*
X246412334Y-73700814D01*
X246561656Y-73608712D01*
X246685712Y-73484656D01*
X246777814Y-73335334D01*
X246832999Y-73168797D01*
X246843500Y-73066009D01*
X246843499Y-72465992D01*
X246832999Y-72363203D01*
X246777814Y-72196666D01*
X246685712Y-72047344D01*
X246561656Y-71923288D01*
X246412334Y-71831186D01*
X246245797Y-71776001D01*
X246245795Y-71776000D01*
X246143010Y-71765500D01*
X245092998Y-71765500D01*
X245092980Y-71765501D01*
X244990203Y-71776000D01*
X244990200Y-71776001D01*
X244823668Y-71831185D01*
X244823663Y-71831187D01*
X244674342Y-71923289D01*
X244550289Y-72047342D01*
X244458187Y-72196663D01*
X244458185Y-72196668D01*
X244433427Y-72271383D01*
X244403001Y-72363203D01*
X244403001Y-72363204D01*
X244403000Y-72363204D01*
X244392500Y-72465983D01*
X244392500Y-73066001D01*
X244392501Y-73066019D01*
X244403000Y-73168796D01*
X244403001Y-73168799D01*
X244453569Y-73321401D01*
X244458186Y-73335334D01*
X244550288Y-73484656D01*
X244674344Y-73608712D01*
X244823666Y-73700814D01*
X244932505Y-73736879D01*
X244989949Y-73776652D01*
X245016772Y-73841167D01*
X245017500Y-73854585D01*
X245017500Y-74975500D01*
X244997815Y-75042539D01*
X244945011Y-75088294D01*
X244893501Y-75099500D01*
X244770130Y-75099500D01*
X244770123Y-75099501D01*
X244710516Y-75105908D01*
X244575671Y-75156202D01*
X244575664Y-75156206D01*
X244460455Y-75242452D01*
X244460452Y-75242455D01*
X244374206Y-75357664D01*
X244374202Y-75357671D01*
X244323908Y-75492517D01*
X244317501Y-75552116D01*
X244317501Y-75552123D01*
X244317500Y-75552135D01*
X244317500Y-77827870D01*
X244317501Y-77827876D01*
X244323908Y-77887483D01*
X244374202Y-78022328D01*
X244374206Y-78022335D01*
X244460452Y-78137544D01*
X244460455Y-78137547D01*
X244575664Y-78223793D01*
X244575671Y-78223797D01*
X244620618Y-78240561D01*
X244710517Y-78274091D01*
X244770127Y-78280500D01*
X244893500Y-78280499D01*
X244960539Y-78300183D01*
X245006294Y-78352987D01*
X245017500Y-78404499D01*
X245017500Y-80979903D01*
X244997815Y-81046942D01*
X244981181Y-81067584D01*
X240930566Y-85118198D01*
X240869243Y-85151683D01*
X240799551Y-85146699D01*
X240743618Y-85104827D01*
X240719201Y-85039363D01*
X240721268Y-85006325D01*
X240733498Y-84944842D01*
X240733498Y-84787153D01*
X240733497Y-84787151D01*
X240716413Y-84701264D01*
X240702735Y-84632501D01*
X240701763Y-84630155D01*
X240642395Y-84486825D01*
X240642388Y-84486812D01*
X240554787Y-84355709D01*
X240554784Y-84355705D01*
X240443290Y-84244211D01*
X240443286Y-84244208D01*
X240312183Y-84156607D01*
X240312170Y-84156600D01*
X240166499Y-84096262D01*
X240166487Y-84096259D01*
X240011843Y-84065498D01*
X240011840Y-84065498D01*
X239854156Y-84065498D01*
X239854153Y-84065498D01*
X239699508Y-84096259D01*
X239699496Y-84096262D01*
X239553825Y-84156600D01*
X239553812Y-84156607D01*
X239422123Y-84244600D01*
X239355445Y-84265478D01*
X239353232Y-84265498D01*
X238720094Y-84265498D01*
X238653055Y-84245813D01*
X238607300Y-84193009D01*
X238596804Y-84128244D01*
X238600500Y-84093872D01*
X238600499Y-83098127D01*
X238594091Y-83038516D01*
X238581340Y-83004331D01*
X238576357Y-82934641D01*
X238581340Y-82917668D01*
X238594091Y-82883482D01*
X238600500Y-82823872D01*
X238600499Y-81828127D01*
X238594091Y-81768516D01*
X238581340Y-81734331D01*
X238576357Y-81664641D01*
X238581340Y-81647668D01*
X238594091Y-81613482D01*
X238600500Y-81553872D01*
X238600499Y-80558127D01*
X238594091Y-80498516D01*
X238581340Y-80464331D01*
X238576357Y-80394641D01*
X238581340Y-80377668D01*
X238594091Y-80343482D01*
X238600500Y-80283872D01*
X238600499Y-79288127D01*
X238594091Y-79228516D01*
X238581340Y-79194331D01*
X238576357Y-79124641D01*
X238581340Y-79107668D01*
X238594091Y-79073482D01*
X238600500Y-79013872D01*
X238600499Y-78018127D01*
X238594091Y-77958516D01*
X238581340Y-77924331D01*
X238576357Y-77854641D01*
X238581341Y-77837666D01*
X238594091Y-77803482D01*
X238600500Y-77743872D01*
X238600499Y-76748127D01*
X238594091Y-76688516D01*
X238581340Y-76654331D01*
X238576357Y-76584641D01*
X238581340Y-76567668D01*
X238594091Y-76533482D01*
X238600500Y-76473872D01*
X238600499Y-75478127D01*
X238594091Y-75418516D01*
X238581340Y-75384331D01*
X238576357Y-75314641D01*
X238581340Y-75297668D01*
X238594091Y-75263482D01*
X238600500Y-75203872D01*
X238600499Y-74208127D01*
X238594091Y-74148516D01*
X238581340Y-74114331D01*
X238576357Y-74044641D01*
X238581340Y-74027668D01*
X238594091Y-73993482D01*
X238600500Y-73933872D01*
X238600499Y-72938127D01*
X238594091Y-72878516D01*
X238581340Y-72844331D01*
X238576357Y-72774641D01*
X238581340Y-72757668D01*
X238594091Y-72723482D01*
X238600500Y-72663872D01*
X238600499Y-71668127D01*
X238594091Y-71608516D01*
X238588011Y-71592216D01*
X238543797Y-71473670D01*
X238543793Y-71473663D01*
X238457547Y-71358454D01*
X238457544Y-71358451D01*
X238342335Y-71272205D01*
X238342328Y-71272201D01*
X238207482Y-71221907D01*
X238207483Y-71221907D01*
X238147883Y-71215500D01*
X238147881Y-71215499D01*
X238147873Y-71215499D01*
X238147864Y-71215499D01*
X236552129Y-71215499D01*
X236552123Y-71215500D01*
X236492516Y-71221907D01*
X236357671Y-71272201D01*
X236357664Y-71272205D01*
X236242455Y-71358451D01*
X236242452Y-71358454D01*
X236156206Y-71473663D01*
X236156202Y-71473670D01*
X236105908Y-71608516D01*
X236099501Y-71668115D01*
X236099501Y-71668122D01*
X236099500Y-71668134D01*
X236099500Y-72663869D01*
X236099501Y-72663875D01*
X236105908Y-72723480D01*
X236118659Y-72757668D01*
X236123642Y-72827360D01*
X236118659Y-72844330D01*
X236105908Y-72878517D01*
X236099757Y-72935734D01*
X236099501Y-72938122D01*
X236099500Y-72938134D01*
X236099500Y-73933869D01*
X236099501Y-73933875D01*
X236105908Y-73993480D01*
X236118659Y-74027668D01*
X236123642Y-74097360D01*
X236118659Y-74114330D01*
X236105908Y-74148517D01*
X236099501Y-74208115D01*
X236099501Y-74208122D01*
X236099500Y-74208134D01*
X236099500Y-75203869D01*
X236099501Y-75203875D01*
X236105908Y-75263480D01*
X236118659Y-75297668D01*
X236123642Y-75367360D01*
X236118659Y-75384330D01*
X236105908Y-75418517D01*
X236099501Y-75478115D01*
X236099501Y-75478122D01*
X236099500Y-75478134D01*
X236099500Y-76473869D01*
X236099501Y-76473875D01*
X236105908Y-76533480D01*
X236118659Y-76567668D01*
X236123642Y-76637360D01*
X236118659Y-76654330D01*
X236105908Y-76688517D01*
X236099501Y-76748115D01*
X236099501Y-76748122D01*
X236099500Y-76748134D01*
X236099500Y-77743869D01*
X236099501Y-77743875D01*
X236105908Y-77803480D01*
X236118659Y-77837668D01*
X236123642Y-77907360D01*
X236118659Y-77924330D01*
X236105908Y-77958517D01*
X236099744Y-78015858D01*
X236099501Y-78018122D01*
X236099500Y-78018134D01*
X236099500Y-79013869D01*
X236099501Y-79013875D01*
X236105908Y-79073480D01*
X236118659Y-79107668D01*
X236123642Y-79177360D01*
X236118659Y-79194330D01*
X236105908Y-79228517D01*
X236099501Y-79288115D01*
X236099501Y-79288122D01*
X236099500Y-79288134D01*
X236099500Y-80283869D01*
X236099501Y-80283875D01*
X236105908Y-80343480D01*
X236118659Y-80377668D01*
X236123642Y-80447360D01*
X236118659Y-80464330D01*
X236105908Y-80498517D01*
X236099501Y-80558115D01*
X236099501Y-80558122D01*
X236099500Y-80558134D01*
X236099501Y-81553867D01*
X236099501Y-81553871D01*
X236105908Y-81613480D01*
X236118659Y-81647668D01*
X236123642Y-81717360D01*
X236118659Y-81734330D01*
X236105908Y-81768517D01*
X236099501Y-81828115D01*
X236099501Y-81828122D01*
X236099500Y-81828134D01*
X236099500Y-82823869D01*
X236099501Y-82823875D01*
X236103196Y-82858246D01*
X236100416Y-82873651D01*
X236102644Y-82889146D01*
X236094338Y-82907331D01*
X236090789Y-82927005D01*
X236080122Y-82938461D01*
X236073619Y-82952702D01*
X236056800Y-82963510D01*
X236043178Y-82978142D01*
X236027222Y-82982518D01*
X236014841Y-82990476D01*
X235979906Y-82995499D01*
X235943940Y-82995499D01*
X235876901Y-82975814D01*
X235856259Y-82959180D01*
X235841292Y-82944213D01*
X235841288Y-82944210D01*
X235710185Y-82856609D01*
X235710172Y-82856602D01*
X235564501Y-82796264D01*
X235564489Y-82796261D01*
X235409845Y-82765500D01*
X235409842Y-82765500D01*
X235252158Y-82765500D01*
X235252155Y-82765500D01*
X235097510Y-82796261D01*
X235097498Y-82796264D01*
X234951827Y-82856602D01*
X234951814Y-82856609D01*
X234820711Y-82944210D01*
X234820707Y-82944213D01*
X234709213Y-83055707D01*
X234709210Y-83055711D01*
X234621609Y-83186814D01*
X234621602Y-83186827D01*
X234561264Y-83332498D01*
X234561261Y-83332510D01*
X234530500Y-83487153D01*
X234530500Y-83644846D01*
X234561261Y-83799489D01*
X234561264Y-83799501D01*
X234621602Y-83945172D01*
X234621609Y-83945185D01*
X234709210Y-84076288D01*
X234709213Y-84076292D01*
X234820707Y-84187786D01*
X234820711Y-84187789D01*
X234951814Y-84275390D01*
X234951827Y-84275397D01*
X235083220Y-84329821D01*
X235097503Y-84335737D01*
X235252153Y-84366499D01*
X235252156Y-84366500D01*
X235252158Y-84366500D01*
X235409844Y-84366500D01*
X235409845Y-84366499D01*
X235564497Y-84335737D01*
X235710179Y-84275394D01*
X235796978Y-84217397D01*
X235815024Y-84211746D01*
X235830934Y-84201522D01*
X235861895Y-84197070D01*
X235863656Y-84196519D01*
X235865869Y-84196499D01*
X235979906Y-84196499D01*
X236046945Y-84216184D01*
X236092700Y-84268988D01*
X236103195Y-84333751D01*
X236099500Y-84368126D01*
X236099500Y-84368130D01*
X236099500Y-84368131D01*
X236099500Y-85363869D01*
X236099501Y-85363875D01*
X236103196Y-85398246D01*
X236100416Y-85413651D01*
X236102644Y-85429146D01*
X236094338Y-85447331D01*
X236090789Y-85467005D01*
X236080122Y-85478461D01*
X236073619Y-85492702D01*
X236056800Y-85503510D01*
X236043178Y-85518142D01*
X236027222Y-85522518D01*
X236014841Y-85530476D01*
X235979906Y-85535499D01*
X235943940Y-85535499D01*
X235876901Y-85515814D01*
X235856259Y-85499180D01*
X235841292Y-85484213D01*
X235841288Y-85484210D01*
X235710185Y-85396609D01*
X235710172Y-85396602D01*
X235564501Y-85336264D01*
X235564489Y-85336261D01*
X235409845Y-85305500D01*
X235409842Y-85305500D01*
X235252158Y-85305500D01*
X235252155Y-85305500D01*
X235097510Y-85336261D01*
X235097498Y-85336264D01*
X234951827Y-85396602D01*
X234951814Y-85396609D01*
X234820711Y-85484210D01*
X234820707Y-85484213D01*
X234709213Y-85595707D01*
X234709210Y-85595711D01*
X234621609Y-85726814D01*
X234621602Y-85726827D01*
X234561264Y-85872498D01*
X234561261Y-85872510D01*
X234530500Y-86027153D01*
X234530500Y-86184846D01*
X234561261Y-86339489D01*
X234561264Y-86339501D01*
X234621602Y-86485172D01*
X234621609Y-86485185D01*
X234709210Y-86616288D01*
X234709213Y-86616292D01*
X234820707Y-86727786D01*
X234820711Y-86727789D01*
X234951814Y-86815390D01*
X234951827Y-86815397D01*
X235092713Y-86873753D01*
X235097503Y-86875737D01*
X235215082Y-86899125D01*
X235252153Y-86906499D01*
X235252156Y-86906500D01*
X235252158Y-86906500D01*
X235409844Y-86906500D01*
X235409845Y-86906499D01*
X235564497Y-86875737D01*
X235710179Y-86815394D01*
X235796978Y-86757397D01*
X235815024Y-86751746D01*
X235830934Y-86741522D01*
X235861895Y-86737070D01*
X235863656Y-86736519D01*
X235865869Y-86736499D01*
X235979906Y-86736499D01*
X236046945Y-86756184D01*
X236092700Y-86808988D01*
X236103195Y-86873751D01*
X236099500Y-86908126D01*
X236099500Y-86908127D01*
X236099500Y-86908131D01*
X236099500Y-87281499D01*
X236079815Y-87348538D01*
X236027011Y-87394293D01*
X235975500Y-87405499D01*
X235087129Y-87405499D01*
X235087123Y-87405500D01*
X235027518Y-87411907D01*
X234993331Y-87424658D01*
X234923639Y-87429641D01*
X234906669Y-87424658D01*
X234872480Y-87411907D01*
X234872482Y-87411907D01*
X234812883Y-87405500D01*
X234812881Y-87405499D01*
X234812873Y-87405499D01*
X234812864Y-87405499D01*
X233817129Y-87405499D01*
X233817123Y-87405500D01*
X233757518Y-87411907D01*
X233723331Y-87424658D01*
X233653639Y-87429641D01*
X233636669Y-87424658D01*
X233602480Y-87411907D01*
X233602482Y-87411907D01*
X233542883Y-87405500D01*
X233542881Y-87405499D01*
X233542873Y-87405499D01*
X233542864Y-87405499D01*
X232547129Y-87405499D01*
X232547123Y-87405500D01*
X232487518Y-87411907D01*
X232453331Y-87424658D01*
X232383639Y-87429641D01*
X232366669Y-87424658D01*
X232332480Y-87411907D01*
X232332482Y-87411907D01*
X232272883Y-87405500D01*
X232272881Y-87405499D01*
X232272873Y-87405499D01*
X232272864Y-87405499D01*
X231277129Y-87405499D01*
X231277123Y-87405500D01*
X231217518Y-87411907D01*
X231183331Y-87424658D01*
X231113639Y-87429641D01*
X231096669Y-87424658D01*
X231062480Y-87411907D01*
X231062482Y-87411907D01*
X231002883Y-87405500D01*
X231002881Y-87405499D01*
X231002873Y-87405499D01*
X231002864Y-87405499D01*
X230007129Y-87405499D01*
X230007123Y-87405500D01*
X229947518Y-87411907D01*
X229913331Y-87424658D01*
X229843639Y-87429641D01*
X229826669Y-87424658D01*
X229792480Y-87411907D01*
X229792482Y-87411907D01*
X229732883Y-87405500D01*
X229732881Y-87405499D01*
X229732873Y-87405499D01*
X229732864Y-87405499D01*
X228737129Y-87405499D01*
X228737123Y-87405500D01*
X228702753Y-87409195D01*
X228633994Y-87396788D01*
X228582857Y-87349177D01*
X228565500Y-87285905D01*
X228565500Y-86050765D01*
X228585185Y-85983726D01*
X228586398Y-85981874D01*
X228603528Y-85956238D01*
X228674394Y-85850179D01*
X228734737Y-85704497D01*
X228765500Y-85549842D01*
X228765500Y-85392158D01*
X228765500Y-85392155D01*
X228765499Y-85392153D01*
X228754381Y-85336261D01*
X228734737Y-85237503D01*
X228727193Y-85219289D01*
X228674397Y-85091827D01*
X228674390Y-85091814D01*
X228586789Y-84960711D01*
X228586786Y-84960707D01*
X228475292Y-84849213D01*
X228475288Y-84849210D01*
X228344185Y-84761609D01*
X228344172Y-84761602D01*
X228198501Y-84701264D01*
X228198489Y-84701261D01*
X228043845Y-84670500D01*
X228043842Y-84670500D01*
X227886158Y-84670500D01*
X227886155Y-84670500D01*
X227731510Y-84701261D01*
X227731498Y-84701264D01*
X227585827Y-84761602D01*
X227585814Y-84761609D01*
X227454711Y-84849210D01*
X227454707Y-84849213D01*
X227417681Y-84886240D01*
X227356358Y-84919725D01*
X227286666Y-84914741D01*
X227242319Y-84886240D01*
X227205292Y-84849213D01*
X227205288Y-84849210D01*
X227074185Y-84761609D01*
X227074172Y-84761602D01*
X226928501Y-84701264D01*
X226928489Y-84701261D01*
X226773845Y-84670500D01*
X226773842Y-84670500D01*
X226616158Y-84670500D01*
X226616155Y-84670500D01*
X226461510Y-84701261D01*
X226461498Y-84701264D01*
X226315827Y-84761602D01*
X226315814Y-84761609D01*
X226184711Y-84849210D01*
X226184706Y-84849214D01*
X226138358Y-84895562D01*
X226077035Y-84929046D01*
X226007343Y-84924061D01*
X225951410Y-84882189D01*
X225926994Y-84816725D01*
X225928421Y-84793984D01*
X225927638Y-84793907D01*
X225928235Y-84787844D01*
X225928235Y-84630155D01*
X225928234Y-84630153D01*
X225899723Y-84486819D01*
X225897472Y-84475503D01*
X225852999Y-84368134D01*
X225837132Y-84329827D01*
X225837125Y-84329814D01*
X225749524Y-84198711D01*
X225749521Y-84198707D01*
X225638027Y-84087213D01*
X225638023Y-84087210D01*
X225506920Y-83999609D01*
X225506907Y-83999602D01*
X225361236Y-83939264D01*
X225361224Y-83939261D01*
X225206580Y-83908500D01*
X225206577Y-83908500D01*
X225048893Y-83908500D01*
X225048890Y-83908500D01*
X224894245Y-83939261D01*
X224894233Y-83939264D01*
X224748562Y-83999602D01*
X224748549Y-83999609D01*
X224617446Y-84087210D01*
X224617442Y-84087213D01*
X224505948Y-84198707D01*
X224505945Y-84198711D01*
X224418344Y-84329814D01*
X224418337Y-84329827D01*
X224357999Y-84475498D01*
X224357996Y-84475510D01*
X224327235Y-84630153D01*
X224327235Y-84787846D01*
X224357996Y-84942489D01*
X224357999Y-84942501D01*
X224418337Y-85088172D01*
X224418344Y-85088185D01*
X224506337Y-85219874D01*
X224527215Y-85286551D01*
X224527235Y-85288765D01*
X224527235Y-85609969D01*
X224507550Y-85677008D01*
X224506337Y-85678860D01*
X224418344Y-85810549D01*
X224418337Y-85810562D01*
X224357999Y-85956233D01*
X224357996Y-85956245D01*
X224327235Y-86110888D01*
X224327235Y-86268581D01*
X224357996Y-86423224D01*
X224357999Y-86423236D01*
X224418337Y-86568907D01*
X224418344Y-86568920D01*
X224505945Y-86700023D01*
X224505948Y-86700027D01*
X224617442Y-86811521D01*
X224617446Y-86811524D01*
X224748549Y-86899125D01*
X224748562Y-86899132D01*
X224894233Y-86959470D01*
X224894238Y-86959472D01*
X225048888Y-86990234D01*
X225048891Y-86990235D01*
X225048893Y-86990235D01*
X225206579Y-86990235D01*
X225206580Y-86990234D01*
X225361232Y-86959472D01*
X225506914Y-86899129D01*
X225638024Y-86811524D01*
X225749524Y-86700024D01*
X225837129Y-86568914D01*
X225837130Y-86568911D01*
X225837132Y-86568908D01*
X225855939Y-86523503D01*
X225899779Y-86469099D01*
X225966073Y-86447034D01*
X226033773Y-86464313D01*
X226081384Y-86515450D01*
X226094500Y-86570955D01*
X226094500Y-87285905D01*
X226074815Y-87352944D01*
X226022011Y-87398699D01*
X225957247Y-87409194D01*
X225922873Y-87405499D01*
X225922865Y-87405499D01*
X224927129Y-87405499D01*
X224927123Y-87405500D01*
X224867518Y-87411907D01*
X224833331Y-87424658D01*
X224763639Y-87429641D01*
X224746669Y-87424658D01*
X224712480Y-87411907D01*
X224712482Y-87411907D01*
X224652883Y-87405500D01*
X224652881Y-87405499D01*
X224652873Y-87405499D01*
X224652864Y-87405499D01*
X223657129Y-87405499D01*
X223657123Y-87405500D01*
X223597518Y-87411907D01*
X223563331Y-87424658D01*
X223493639Y-87429641D01*
X223476669Y-87424658D01*
X223442480Y-87411907D01*
X223442482Y-87411907D01*
X223382883Y-87405500D01*
X223382881Y-87405499D01*
X223382873Y-87405499D01*
X223382864Y-87405499D01*
X222387129Y-87405499D01*
X222387123Y-87405500D01*
X222327518Y-87411907D01*
X222293331Y-87424658D01*
X222223639Y-87429641D01*
X222206669Y-87424658D01*
X222172480Y-87411907D01*
X222172482Y-87411907D01*
X222112883Y-87405500D01*
X222112881Y-87405499D01*
X222112873Y-87405499D01*
X222112865Y-87405499D01*
X221224499Y-87405499D01*
X221157460Y-87385814D01*
X221111705Y-87333010D01*
X221100499Y-87281499D01*
X221100499Y-86908128D01*
X221100498Y-86908122D01*
X221099531Y-86899129D01*
X221094091Y-86848516D01*
X221081340Y-86814331D01*
X221076357Y-86744641D01*
X221081338Y-86727671D01*
X221094091Y-86693482D01*
X221100500Y-86633872D01*
X221100499Y-85638127D01*
X221094091Y-85578516D01*
X221081340Y-85544331D01*
X221079455Y-85517973D01*
X221073839Y-85492153D01*
X221076676Y-85479108D01*
X221076357Y-85474641D01*
X221081341Y-85457666D01*
X221094091Y-85423482D01*
X221094091Y-85423480D01*
X221094617Y-85422071D01*
X221136489Y-85366138D01*
X221148800Y-85358017D01*
X221168716Y-85346519D01*
X221280520Y-85234715D01*
X221280520Y-85234713D01*
X221290724Y-85224510D01*
X221290727Y-85224505D01*
X224762520Y-81752715D01*
X224841577Y-81615783D01*
X224882501Y-81463056D01*
X224882501Y-81304941D01*
X224882501Y-81297346D01*
X224882500Y-81297328D01*
X224882500Y-76246096D01*
X224902185Y-76179057D01*
X224918814Y-76158420D01*
X233329416Y-67747817D01*
X233390739Y-67714333D01*
X233417097Y-67711499D01*
X234180002Y-67711499D01*
X234180008Y-67711499D01*
X234282797Y-67700999D01*
X234449334Y-67645814D01*
X234598656Y-67553712D01*
X234722712Y-67429656D01*
X234814814Y-67280334D01*
X234869999Y-67113797D01*
X234880500Y-67011009D01*
X234880499Y-66385992D01*
X234869999Y-66283203D01*
X234814814Y-66116666D01*
X234722712Y-65967344D01*
X234629049Y-65873681D01*
X234595564Y-65812358D01*
X234600548Y-65742666D01*
X234629049Y-65698319D01*
X234722712Y-65604656D01*
X234814814Y-65455334D01*
X234869999Y-65288797D01*
X234880500Y-65186009D01*
X234880499Y-64560992D01*
X234869999Y-64458203D01*
X234814814Y-64291666D01*
X234722712Y-64142344D01*
X234598656Y-64018288D01*
X234449334Y-63926186D01*
X234365495Y-63898404D01*
X234308051Y-63858632D01*
X234281228Y-63794116D01*
X234280500Y-63780699D01*
X234280500Y-62912180D01*
X234300185Y-62845141D01*
X234330187Y-62812914D01*
X234437546Y-62732546D01*
X234523796Y-62617331D01*
X234574091Y-62482483D01*
X234580500Y-62422873D01*
X234580499Y-61527128D01*
X234574091Y-61467517D01*
X234523796Y-61332669D01*
X234523795Y-61332668D01*
X234523793Y-61332664D01*
X234437547Y-61217455D01*
X234437544Y-61217452D01*
X234322335Y-61131206D01*
X234322328Y-61131202D01*
X234187482Y-61080908D01*
X234187483Y-61080908D01*
X234127883Y-61074501D01*
X234127881Y-61074500D01*
X234127873Y-61074500D01*
X234127864Y-61074500D01*
X233232129Y-61074500D01*
X233232123Y-61074501D01*
X233172516Y-61080908D01*
X233037671Y-61131202D01*
X233037664Y-61131206D01*
X232922455Y-61217452D01*
X232922452Y-61217455D01*
X232836206Y-61332664D01*
X232836202Y-61332671D01*
X232785908Y-61467517D01*
X232779501Y-61527116D01*
X232779501Y-61527123D01*
X232779500Y-61527135D01*
X232779500Y-62422870D01*
X232779501Y-62422876D01*
X232785908Y-62482483D01*
X232836202Y-62617328D01*
X232836206Y-62617335D01*
X232905358Y-62709709D01*
X232922454Y-62732546D01*
X233029811Y-62812914D01*
X233071682Y-62868847D01*
X233079500Y-62912180D01*
X233079500Y-63780699D01*
X233059815Y-63847738D01*
X233007011Y-63893493D01*
X232994507Y-63898403D01*
X232961962Y-63909188D01*
X232910668Y-63926185D01*
X232910663Y-63926187D01*
X232761342Y-64018289D01*
X232637289Y-64142342D01*
X232545187Y-64291663D01*
X232545186Y-64291666D01*
X232490001Y-64458203D01*
X232490001Y-64458204D01*
X232490000Y-64458204D01*
X232479500Y-64560983D01*
X232479500Y-65186001D01*
X232479501Y-65186019D01*
X232490000Y-65288796D01*
X232490001Y-65288799D01*
X232545185Y-65455331D01*
X232545187Y-65455336D01*
X232637289Y-65604657D01*
X232730951Y-65698319D01*
X232764436Y-65759642D01*
X232759452Y-65829334D01*
X232730951Y-65873681D01*
X232637289Y-65967342D01*
X232545187Y-66116663D01*
X232545186Y-66116666D01*
X232490001Y-66283203D01*
X232490001Y-66283204D01*
X232490000Y-66283204D01*
X232479500Y-66385983D01*
X232479500Y-66847902D01*
X232459815Y-66914941D01*
X232443181Y-66935583D01*
X224586181Y-74792583D01*
X224524858Y-74826068D01*
X224455166Y-74821084D01*
X224399233Y-74779212D01*
X224374816Y-74713748D01*
X224374500Y-74704902D01*
X224374500Y-73452096D01*
X224394185Y-73385057D01*
X224410814Y-73364420D01*
X230027416Y-67747817D01*
X230088739Y-67714333D01*
X230115097Y-67711499D01*
X230793335Y-67711499D01*
X230793341Y-67711499D01*
X230896130Y-67700999D01*
X231062667Y-67645814D01*
X231211989Y-67553712D01*
X231336045Y-67429656D01*
X231428147Y-67280334D01*
X231483332Y-67113797D01*
X231493833Y-67011009D01*
X231493832Y-66385992D01*
X231483332Y-66283203D01*
X231428147Y-66116666D01*
X231336045Y-65967344D01*
X231242382Y-65873681D01*
X231208897Y-65812358D01*
X231213881Y-65742666D01*
X231242382Y-65698319D01*
X231336045Y-65604656D01*
X231428147Y-65455334D01*
X231483332Y-65288797D01*
X231493833Y-65186009D01*
X231493832Y-64560992D01*
X231483332Y-64458203D01*
X231428147Y-64291666D01*
X231336045Y-64142344D01*
X231211989Y-64018288D01*
X231062667Y-63926186D01*
X230978828Y-63898404D01*
X230921384Y-63858632D01*
X230894561Y-63794116D01*
X230893833Y-63780699D01*
X230893833Y-62912180D01*
X230913518Y-62845141D01*
X230943520Y-62812914D01*
X231050879Y-62732546D01*
X231137129Y-62617331D01*
X231187424Y-62482483D01*
X231193833Y-62422873D01*
X231193832Y-61527128D01*
X231187424Y-61467517D01*
X231137129Y-61332669D01*
X231137128Y-61332668D01*
X231137126Y-61332664D01*
X231050880Y-61217455D01*
X231050877Y-61217452D01*
X230935668Y-61131206D01*
X230935661Y-61131202D01*
X230800815Y-61080908D01*
X230800816Y-61080908D01*
X230741216Y-61074501D01*
X230741214Y-61074500D01*
X230741206Y-61074500D01*
X230741197Y-61074500D01*
X229845462Y-61074500D01*
X229845456Y-61074501D01*
X229785849Y-61080908D01*
X229651004Y-61131202D01*
X229650997Y-61131206D01*
X229535788Y-61217452D01*
X229535785Y-61217455D01*
X229449539Y-61332664D01*
X229449535Y-61332671D01*
X229399241Y-61467517D01*
X229392834Y-61527116D01*
X229392834Y-61527123D01*
X229392833Y-61527135D01*
X229392833Y-62422870D01*
X229392834Y-62422876D01*
X229399241Y-62482483D01*
X229449535Y-62617328D01*
X229449539Y-62617335D01*
X229518691Y-62709709D01*
X229535787Y-62732546D01*
X229643144Y-62812914D01*
X229685015Y-62868847D01*
X229692833Y-62912180D01*
X229692833Y-63780699D01*
X229673148Y-63847738D01*
X229620344Y-63893493D01*
X229607840Y-63898403D01*
X229575295Y-63909188D01*
X229524001Y-63926185D01*
X229523996Y-63926187D01*
X229374675Y-64018289D01*
X229250622Y-64142342D01*
X229158520Y-64291663D01*
X229158519Y-64291666D01*
X229103334Y-64458203D01*
X229103334Y-64458204D01*
X229103333Y-64458204D01*
X229092833Y-64560983D01*
X229092833Y-65186001D01*
X229092834Y-65186019D01*
X229103333Y-65288796D01*
X229103334Y-65288799D01*
X229158518Y-65455331D01*
X229158520Y-65455336D01*
X229250622Y-65604657D01*
X229344284Y-65698319D01*
X229377769Y-65759642D01*
X229372785Y-65829334D01*
X229344284Y-65873681D01*
X229250622Y-65967342D01*
X229158520Y-66116663D01*
X229158519Y-66116666D01*
X229103334Y-66283203D01*
X229103334Y-66283204D01*
X229103333Y-66283204D01*
X229092833Y-66385983D01*
X229092833Y-66932569D01*
X229073148Y-66999608D01*
X229056514Y-67020250D01*
X224078181Y-71998583D01*
X224016858Y-72032068D01*
X223947166Y-72027084D01*
X223891233Y-71985212D01*
X223866816Y-71919748D01*
X223866500Y-71910902D01*
X223866500Y-70658097D01*
X223886185Y-70591058D01*
X223902819Y-70570416D01*
X226725417Y-67747818D01*
X226786740Y-67714333D01*
X226813098Y-67711499D01*
X227406669Y-67711499D01*
X227406675Y-67711499D01*
X227509464Y-67700999D01*
X227676001Y-67645814D01*
X227825323Y-67553712D01*
X227949379Y-67429656D01*
X228041481Y-67280334D01*
X228096666Y-67113797D01*
X228107167Y-67011009D01*
X228107166Y-66385992D01*
X228096666Y-66283203D01*
X228041481Y-66116666D01*
X227949379Y-65967344D01*
X227855716Y-65873681D01*
X227822231Y-65812358D01*
X227827215Y-65742666D01*
X227855716Y-65698319D01*
X227949379Y-65604656D01*
X228041481Y-65455334D01*
X228096666Y-65288797D01*
X228107167Y-65186009D01*
X228107166Y-64560992D01*
X228096666Y-64458203D01*
X228041481Y-64291666D01*
X227949379Y-64142344D01*
X227825323Y-64018288D01*
X227676001Y-63926186D01*
X227592162Y-63898404D01*
X227534718Y-63858632D01*
X227507895Y-63794116D01*
X227507167Y-63780699D01*
X227507167Y-62912180D01*
X227526852Y-62845141D01*
X227556854Y-62812914D01*
X227664213Y-62732546D01*
X227750463Y-62617331D01*
X227800758Y-62482483D01*
X227807167Y-62422873D01*
X227807166Y-61527128D01*
X227800758Y-61467517D01*
X227750463Y-61332669D01*
X227750462Y-61332668D01*
X227750460Y-61332664D01*
X227664214Y-61217455D01*
X227664211Y-61217452D01*
X227549002Y-61131206D01*
X227548995Y-61131202D01*
X227414149Y-61080908D01*
X227414150Y-61080908D01*
X227354550Y-61074501D01*
X227354548Y-61074500D01*
X227354540Y-61074500D01*
X227354531Y-61074500D01*
X226458796Y-61074500D01*
X226458790Y-61074501D01*
X226399183Y-61080908D01*
X226264338Y-61131202D01*
X226264331Y-61131206D01*
X226149122Y-61217452D01*
X226149119Y-61217455D01*
X226062873Y-61332664D01*
X226062869Y-61332671D01*
X226012575Y-61467517D01*
X226006168Y-61527116D01*
X226006168Y-61527123D01*
X226006167Y-61527135D01*
X226006167Y-62422870D01*
X226006168Y-62422876D01*
X226012575Y-62482483D01*
X226062869Y-62617328D01*
X226062873Y-62617335D01*
X226132025Y-62709709D01*
X226149121Y-62732546D01*
X226256478Y-62812914D01*
X226298349Y-62868847D01*
X226306167Y-62912180D01*
X226306167Y-63780699D01*
X226286482Y-63847738D01*
X226233678Y-63893493D01*
X226221174Y-63898403D01*
X226188629Y-63909188D01*
X226137335Y-63926185D01*
X226137330Y-63926187D01*
X225988009Y-64018289D01*
X225863956Y-64142342D01*
X225771854Y-64291663D01*
X225771853Y-64291666D01*
X225716668Y-64458203D01*
X225716668Y-64458204D01*
X225716667Y-64458204D01*
X225706167Y-64560983D01*
X225706167Y-65186001D01*
X225706168Y-65186019D01*
X225716667Y-65288796D01*
X225716668Y-65288799D01*
X225771852Y-65455331D01*
X225771854Y-65455336D01*
X225863956Y-65604657D01*
X225957618Y-65698319D01*
X225991103Y-65759642D01*
X225986119Y-65829334D01*
X225957618Y-65873681D01*
X225863956Y-65967342D01*
X225771854Y-66116663D01*
X225771853Y-66116666D01*
X225716668Y-66283203D01*
X225716668Y-66283204D01*
X225716667Y-66283204D01*
X225706167Y-66385983D01*
X225706167Y-66385996D01*
X225706168Y-67014164D01*
X225705353Y-67014164D01*
X225689891Y-67078757D01*
X225669997Y-67104765D01*
X223570181Y-69204582D01*
X223508858Y-69238067D01*
X223439166Y-69233083D01*
X223383233Y-69191211D01*
X223358816Y-69125747D01*
X223358500Y-69116901D01*
X223358500Y-67835499D01*
X223378185Y-67768460D01*
X223430989Y-67722705D01*
X223482500Y-67711499D01*
X224020002Y-67711499D01*
X224020008Y-67711499D01*
X224122797Y-67700999D01*
X224289334Y-67645814D01*
X224438656Y-67553712D01*
X224562712Y-67429656D01*
X224654814Y-67280334D01*
X224709999Y-67113797D01*
X224720500Y-67011009D01*
X224720499Y-66385992D01*
X224709999Y-66283203D01*
X224654814Y-66116666D01*
X224562712Y-65967344D01*
X224469049Y-65873681D01*
X224435564Y-65812358D01*
X224440548Y-65742666D01*
X224469049Y-65698319D01*
X224562712Y-65604656D01*
X224654814Y-65455334D01*
X224709999Y-65288797D01*
X224720500Y-65186009D01*
X224720499Y-64560992D01*
X224709999Y-64458203D01*
X224654814Y-64291666D01*
X224562712Y-64142344D01*
X224438656Y-64018288D01*
X224289334Y-63926186D01*
X224205495Y-63898404D01*
X224148051Y-63858632D01*
X224121228Y-63794116D01*
X224120500Y-63780699D01*
X224120500Y-62912180D01*
X224140185Y-62845141D01*
X224170187Y-62812914D01*
X224277546Y-62732546D01*
X224363796Y-62617331D01*
X224414091Y-62482483D01*
X224420500Y-62422873D01*
X224420499Y-61527128D01*
X224414091Y-61467517D01*
X224363796Y-61332669D01*
X224363795Y-61332668D01*
X224363793Y-61332664D01*
X224277547Y-61217455D01*
X224277544Y-61217452D01*
X224162335Y-61131206D01*
X224162328Y-61131202D01*
X224027482Y-61080908D01*
X224027483Y-61080908D01*
X223967883Y-61074501D01*
X223967881Y-61074500D01*
X223967873Y-61074500D01*
X223967864Y-61074500D01*
X223072129Y-61074500D01*
X223072123Y-61074501D01*
X223012516Y-61080908D01*
X222877671Y-61131202D01*
X222877664Y-61131206D01*
X222762455Y-61217452D01*
X222762452Y-61217455D01*
X222676206Y-61332664D01*
X222676202Y-61332671D01*
X222625908Y-61467517D01*
X222619501Y-61527116D01*
X222619501Y-61527123D01*
X222619500Y-61527135D01*
X222619500Y-62422870D01*
X222619501Y-62422876D01*
X222625908Y-62482483D01*
X222676202Y-62617328D01*
X222676206Y-62617335D01*
X222745358Y-62709709D01*
X222762454Y-62732546D01*
X222869811Y-62812914D01*
X222911682Y-62868847D01*
X222919500Y-62912180D01*
X222919500Y-63780699D01*
X222899815Y-63847738D01*
X222847011Y-63893493D01*
X222834507Y-63898403D01*
X222801962Y-63909188D01*
X222750668Y-63926185D01*
X222750663Y-63926187D01*
X222601342Y-64018289D01*
X222477289Y-64142342D01*
X222385187Y-64291663D01*
X222385186Y-64291666D01*
X222330001Y-64458203D01*
X222330001Y-64458204D01*
X222330000Y-64458204D01*
X222319500Y-64560983D01*
X222319500Y-65186001D01*
X222319501Y-65186019D01*
X222330000Y-65288796D01*
X222330001Y-65288799D01*
X222385185Y-65455331D01*
X222385187Y-65455336D01*
X222477289Y-65604657D01*
X222570951Y-65698319D01*
X222604436Y-65759642D01*
X222599452Y-65829334D01*
X222570951Y-65873681D01*
X222477289Y-65967342D01*
X222385187Y-66116663D01*
X222385186Y-66116666D01*
X222330001Y-66283203D01*
X222330001Y-66283204D01*
X222330000Y-66283204D01*
X222319500Y-66385983D01*
X222319500Y-66998400D01*
X222299989Y-67065169D01*
X222292721Y-67076542D01*
X222277480Y-67091784D01*
X222227360Y-67178595D01*
X222225966Y-67181008D01*
X222225956Y-67181025D01*
X222198425Y-67228709D01*
X222198424Y-67228710D01*
X222184591Y-67280336D01*
X222157499Y-67381443D01*
X222157499Y-67381445D01*
X222157499Y-67549546D01*
X222157500Y-67549559D01*
X222157500Y-71241499D01*
X222137815Y-71308538D01*
X222085011Y-71354293D01*
X222033500Y-71365499D01*
X221917155Y-71365499D01*
X221762510Y-71396260D01*
X221762498Y-71396263D01*
X221616827Y-71456601D01*
X221616814Y-71456608D01*
X221485125Y-71544601D01*
X221418447Y-71565479D01*
X221416234Y-71565499D01*
X221164141Y-71565499D01*
X221097102Y-71545814D01*
X221051347Y-71493010D01*
X221047969Y-71484858D01*
X221043796Y-71473668D01*
X221043793Y-71473664D01*
X221043793Y-71473663D01*
X220957547Y-71358454D01*
X220957544Y-71358451D01*
X220842335Y-71272205D01*
X220842328Y-71272201D01*
X220707482Y-71221907D01*
X220707483Y-71221907D01*
X220647883Y-71215500D01*
X220647881Y-71215499D01*
X220647873Y-71215499D01*
X220647864Y-71215499D01*
X219052129Y-71215499D01*
X219052123Y-71215500D01*
X218992515Y-71221908D01*
X218930708Y-71244960D01*
X218861016Y-71249944D01*
X218799695Y-71216459D01*
X218314819Y-70731583D01*
X218281334Y-70670260D01*
X218278500Y-70643902D01*
X218278500Y-70110585D01*
X218298185Y-70043546D01*
X218350989Y-69997791D01*
X218363489Y-69992881D01*
X218472334Y-69956814D01*
X218621656Y-69864712D01*
X218745712Y-69740656D01*
X218837814Y-69591334D01*
X218892999Y-69424797D01*
X218903500Y-69322009D01*
X218903499Y-68721992D01*
X218892999Y-68619203D01*
X218837814Y-68452666D01*
X218745712Y-68303344D01*
X218621656Y-68179288D01*
X218472334Y-68087186D01*
X218305797Y-68032001D01*
X218305795Y-68032000D01*
X218203010Y-68021500D01*
X217152998Y-68021500D01*
X217152980Y-68021501D01*
X217050203Y-68032000D01*
X217050200Y-68032001D01*
X216883668Y-68087185D01*
X216883663Y-68087187D01*
X216734342Y-68179289D01*
X216622681Y-68290951D01*
X216561358Y-68324436D01*
X216491666Y-68319452D01*
X216447319Y-68290951D01*
X216335657Y-68179289D01*
X216335656Y-68179288D01*
X216186334Y-68087186D01*
X216019797Y-68032001D01*
X216019795Y-68032000D01*
X215917010Y-68021500D01*
X214866998Y-68021500D01*
X214866980Y-68021501D01*
X214764203Y-68032000D01*
X214764200Y-68032001D01*
X214597668Y-68087185D01*
X214597663Y-68087187D01*
X214448342Y-68179289D01*
X214324289Y-68303342D01*
X214287741Y-68362597D01*
X214235793Y-68409321D01*
X214182202Y-68421500D01*
X208248569Y-68421500D01*
X208248553Y-68421499D01*
X208240957Y-68421499D01*
X208082843Y-68421499D01*
X207975487Y-68450265D01*
X207930110Y-68462424D01*
X207930109Y-68462425D01*
X207879996Y-68491359D01*
X207879995Y-68491360D01*
X207836589Y-68516420D01*
X207793185Y-68541479D01*
X207793182Y-68541481D01*
X207681378Y-68653286D01*
X206993082Y-69341581D01*
X206931759Y-69375066D01*
X206905401Y-69377900D01*
X206292998Y-69377900D01*
X206292980Y-69377901D01*
X206190203Y-69388400D01*
X206190200Y-69388401D01*
X206023668Y-69443585D01*
X206023663Y-69443587D01*
X205874342Y-69535689D01*
X205750289Y-69659742D01*
X205658187Y-69809063D01*
X205658186Y-69809066D01*
X205603001Y-69975603D01*
X205603001Y-69975604D01*
X205603000Y-69975604D01*
X205592500Y-70078383D01*
X203700500Y-70078383D01*
X203700500Y-55758711D01*
X206429500Y-55758711D01*
X206429500Y-56001288D01*
X206461161Y-56241785D01*
X206523947Y-56476104D01*
X206616773Y-56700205D01*
X206616776Y-56700212D01*
X206738064Y-56910289D01*
X206738066Y-56910292D01*
X206738067Y-56910293D01*
X206885733Y-57102736D01*
X206885739Y-57102743D01*
X207057256Y-57274260D01*
X207057262Y-57274265D01*
X207249711Y-57421936D01*
X207459788Y-57543224D01*
X207683900Y-57636054D01*
X207918211Y-57698838D01*
X208098586Y-57722584D01*
X208158711Y-57730500D01*
X208158712Y-57730500D01*
X208401289Y-57730500D01*
X208449388Y-57724167D01*
X208641789Y-57698838D01*
X208876100Y-57636054D01*
X209100212Y-57543224D01*
X209310289Y-57421936D01*
X209502738Y-57274265D01*
X209674265Y-57102738D01*
X209821936Y-56910289D01*
X209943224Y-56700212D01*
X210036054Y-56476100D01*
X210098838Y-56241789D01*
X210130500Y-56001288D01*
X210130500Y-55758712D01*
X210130500Y-55758711D01*
X247069500Y-55758711D01*
X247069500Y-56001288D01*
X247101161Y-56241785D01*
X247163947Y-56476104D01*
X247256773Y-56700205D01*
X247256776Y-56700212D01*
X247378064Y-56910289D01*
X247378066Y-56910292D01*
X247378067Y-56910293D01*
X247525733Y-57102736D01*
X247525739Y-57102743D01*
X247697256Y-57274260D01*
X247697262Y-57274265D01*
X247889711Y-57421936D01*
X248099788Y-57543224D01*
X248323900Y-57636054D01*
X248558211Y-57698838D01*
X248738586Y-57722584D01*
X248798711Y-57730500D01*
X248798712Y-57730500D01*
X249041289Y-57730500D01*
X249089388Y-57724167D01*
X249281789Y-57698838D01*
X249516100Y-57636054D01*
X249740212Y-57543224D01*
X249950289Y-57421936D01*
X250142738Y-57274265D01*
X250314265Y-57102738D01*
X250461936Y-56910289D01*
X250583224Y-56700212D01*
X250676054Y-56476100D01*
X250738838Y-56241789D01*
X250770500Y-56001288D01*
X250770500Y-55758712D01*
X250738838Y-55518211D01*
X250676054Y-55283900D01*
X250583224Y-55059788D01*
X250461936Y-54849711D01*
X250314265Y-54657262D01*
X250314260Y-54657256D01*
X250142743Y-54485739D01*
X250142736Y-54485733D01*
X249950293Y-54338067D01*
X249950292Y-54338066D01*
X249950289Y-54338064D01*
X249740212Y-54216776D01*
X249740205Y-54216773D01*
X249516104Y-54123947D01*
X249281785Y-54061161D01*
X249041289Y-54029500D01*
X249041288Y-54029500D01*
X248798712Y-54029500D01*
X248798711Y-54029500D01*
X248558214Y-54061161D01*
X248323895Y-54123947D01*
X248099794Y-54216773D01*
X248099785Y-54216777D01*
X247889706Y-54338067D01*
X247697263Y-54485733D01*
X247697256Y-54485739D01*
X247525739Y-54657256D01*
X247525733Y-54657263D01*
X247378067Y-54849706D01*
X247256777Y-55059785D01*
X247256773Y-55059794D01*
X247163947Y-55283895D01*
X247101161Y-55518214D01*
X247069500Y-55758711D01*
X210130500Y-55758711D01*
X210098838Y-55518211D01*
X210036054Y-55283900D01*
X209943224Y-55059788D01*
X209821936Y-54849711D01*
X209674265Y-54657262D01*
X209674260Y-54657256D01*
X209502743Y-54485739D01*
X209502736Y-54485733D01*
X209310293Y-54338067D01*
X209310292Y-54338066D01*
X209310289Y-54338064D01*
X209100212Y-54216776D01*
X209100205Y-54216773D01*
X208876104Y-54123947D01*
X208641785Y-54061161D01*
X208401289Y-54029500D01*
X208401288Y-54029500D01*
X208158712Y-54029500D01*
X208158711Y-54029500D01*
X207918214Y-54061161D01*
X207683895Y-54123947D01*
X207459794Y-54216773D01*
X207459785Y-54216777D01*
X207249706Y-54338067D01*
X207057263Y-54485733D01*
X207057256Y-54485739D01*
X206885739Y-54657256D01*
X206885733Y-54657263D01*
X206738067Y-54849706D01*
X206616777Y-55059785D01*
X206616773Y-55059794D01*
X206523947Y-55283895D01*
X206461161Y-55518214D01*
X206429500Y-55758711D01*
X203700500Y-55758711D01*
X203700500Y-51424500D01*
X203720185Y-51357461D01*
X203772989Y-51311706D01*
X203824500Y-51300500D01*
X253375500Y-51300500D01*
X253442539Y-51320185D01*
G37*
%TD.AperFunction*%
%TD*%
M02*
