%TF.GenerationSoftware,KiCad,Pcbnew,9.0.6*%
%TF.CreationDate,2026-03-03T19:55:54-06:00*%
%TF.ProjectId,CASE,43415345-2e6b-4696-9361-645f70636258,rev?*%
%TF.SameCoordinates,Original*%
%TF.FileFunction,Copper,L2,Bot*%
%TF.FilePolarity,Positive*%
%FSLAX46Y46*%
G04 Gerber Fmt 4.6, Leading zero omitted, Abs format (unit mm)*
G04 Created by KiCad (PCBNEW 9.0.6) date 2026-03-03 19:55:54*
%MOMM*%
%LPD*%
G01*
G04 APERTURE LIST*
%TA.AperFunction,ComponentPad*%
%ADD10C,0.500000*%
%TD*%
%TA.AperFunction,ComponentPad*%
%ADD11R,1.308000X1.308000*%
%TD*%
%TA.AperFunction,ComponentPad*%
%ADD12C,1.308000*%
%TD*%
%TA.AperFunction,HeatsinkPad*%
%ADD13C,0.600000*%
%TD*%
%TA.AperFunction,ComponentPad*%
%ADD14R,1.875000X1.875000*%
%TD*%
%TA.AperFunction,ComponentPad*%
%ADD15C,1.875000*%
%TD*%
%TA.AperFunction,HeatsinkPad*%
%ADD16O,1.000000X2.100000*%
%TD*%
%TA.AperFunction,HeatsinkPad*%
%ADD17O,1.000000X1.800000*%
%TD*%
%TA.AperFunction,ViaPad*%
%ADD18C,0.600000*%
%TD*%
%TA.AperFunction,Conductor*%
%ADD19C,0.200000*%
%TD*%
G04 APERTURE END LIST*
D10*
%TO.P,U105,11,PGND*%
%TO.N,GND*%
X239325000Y-123910000D03*
X239900000Y-122960000D03*
X239900000Y-124860000D03*
X240475000Y-123910000D03*
%TD*%
D11*
%TO.P,J101,1,1*%
%TO.N,GND*%
X218440000Y-139700000D03*
D12*
%TO.P,J101,2,2*%
%TO.N,/BAT_PWR*%
X216440000Y-139700000D03*
%TD*%
D13*
%TO.P,U103,41,EPAD*%
%TO.N,GND*%
X225700000Y-77915999D03*
X225700000Y-79315999D03*
X226400000Y-77215999D03*
X226400000Y-78615999D03*
X226400000Y-80015999D03*
X227100000Y-77915999D03*
X227100000Y-79315999D03*
X227800000Y-77215999D03*
X227800000Y-78615999D03*
X227800000Y-80015999D03*
X228500000Y-77915999D03*
X228500000Y-79315999D03*
%TD*%
D14*
%TO.P,J102,1,1*%
%TO.N,+5V*%
X208280000Y-132080000D03*
D15*
%TO.P,J102,2,2*%
%TO.N,/TVC_X*%
X208280000Y-129540000D03*
%TO.P,J102,3,3*%
%TO.N,GND*%
X208280000Y-127000000D03*
%TD*%
D16*
%TO.P,J104,S1,SHIELD*%
%TO.N,GND*%
X224280000Y-145680000D03*
D17*
X224280000Y-149860000D03*
D16*
X232920000Y-145680000D03*
D17*
X232920000Y-149860000D03*
%TD*%
D14*
%TO.P,J103,1,1*%
%TO.N,+5V*%
X248920000Y-132080000D03*
D15*
%TO.P,J103,2,2*%
%TO.N,/TVC_Y*%
X248920000Y-129540000D03*
%TO.P,J103,3,3*%
%TO.N,GND*%
X248920000Y-127000000D03*
%TD*%
D18*
%TO.N,GND*%
X245872000Y-109728000D03*
X227628000Y-132632000D03*
X207264000Y-91440000D03*
X238760000Y-58928000D03*
X216662000Y-76200000D03*
X214884000Y-109728000D03*
X242316000Y-106172000D03*
X242316000Y-137488500D03*
X240538000Y-64262000D03*
X232156000Y-100076000D03*
X211328000Y-109728000D03*
X243586000Y-97536000D03*
X251714000Y-93218000D03*
X248158000Y-91440000D03*
X209042000Y-93218000D03*
X251714000Y-91440000D03*
X225044000Y-73660000D03*
X234950000Y-145542000D03*
X244094000Y-107950000D03*
X249936000Y-93218000D03*
X217170000Y-121412000D03*
X222758000Y-99568000D03*
X249936000Y-89662000D03*
X238760000Y-62484000D03*
X223774000Y-68326000D03*
X240538000Y-66040000D03*
X242824000Y-101092000D03*
X209042000Y-89662000D03*
X218440000Y-58928000D03*
X205486000Y-89662000D03*
X242316000Y-58928000D03*
X242316000Y-107950000D03*
X242316000Y-64262000D03*
X213106000Y-107950000D03*
X224282000Y-142494000D03*
X223520000Y-99568000D03*
X213106000Y-109728000D03*
X214884000Y-62484000D03*
X221996000Y-99568000D03*
X213106000Y-106172000D03*
X216662000Y-76962000D03*
X217170000Y-120142000D03*
X221488000Y-134366000D03*
X238760000Y-66040000D03*
X238760000Y-64262000D03*
X241554000Y-128016000D03*
X238252000Y-103886000D03*
X211836000Y-122936000D03*
X241300000Y-78232000D03*
X245872000Y-107950000D03*
X218948000Y-125730000D03*
X211328000Y-107950000D03*
X240538000Y-67818000D03*
X242316000Y-60706000D03*
X216662000Y-60706000D03*
X240538000Y-58928000D03*
X249936000Y-91440000D03*
X240538000Y-62484000D03*
X248158000Y-93218000D03*
X242316000Y-67818000D03*
X214884000Y-107950000D03*
X235458000Y-97282000D03*
X214884000Y-106172000D03*
X209042000Y-91440000D03*
X239900000Y-123910000D03*
X225044000Y-70358000D03*
X241300000Y-79756000D03*
X244094000Y-109728000D03*
X241300000Y-78994000D03*
X243586000Y-90932000D03*
X218440000Y-60706000D03*
X240538000Y-60706000D03*
X216662000Y-62484000D03*
X238760000Y-67818000D03*
X242316000Y-66040000D03*
X207264000Y-93218000D03*
X244094000Y-103124000D03*
X238760000Y-60706000D03*
X216662000Y-75438000D03*
X234188000Y-144272000D03*
X205486000Y-91440000D03*
X244094000Y-106172000D03*
X242316000Y-62484000D03*
X213563200Y-70866000D03*
X214884000Y-58928000D03*
X214884000Y-60706000D03*
X248158000Y-89662000D03*
X216662000Y-58928000D03*
X205486000Y-93218000D03*
X228600000Y-96520000D03*
X245872000Y-106172000D03*
X218440000Y-62484000D03*
X211328000Y-106172000D03*
X242316000Y-109728000D03*
X239268000Y-100838000D03*
X251714000Y-89662000D03*
X207264000Y-89662000D03*
%TO.N,+3V3*%
X227330000Y-90297000D03*
X236662000Y-116205000D03*
X221996000Y-72165999D03*
X236662000Y-104013000D03*
%TO.N,/RAW_PWR*%
X237807500Y-128714500D03*
X235204000Y-131318000D03*
%TO.N,/TVC_X*%
X226695000Y-85471000D03*
%TO.N,/TVC_Y*%
X227965000Y-85471000D03*
%TO.N,/USB_D-*%
X220450000Y-95250000D03*
X218694000Y-95250000D03*
%TO.N,/MISO*%
X234696000Y-95631000D03*
X237617000Y-93980000D03*
X235331000Y-83566000D03*
X226441000Y-95668399D03*
%TO.N,/SCK*%
X242824000Y-102108000D03*
X239932998Y-84865998D03*
X225552000Y-95631000D03*
X237490000Y-102108000D03*
X245237000Y-100965000D03*
%TO.N,/BMP_CS*%
X226568000Y-93599000D03*
X237236000Y-97155000D03*
%TO.N,/MOSI*%
X233172000Y-94488000D03*
X235331000Y-86106000D03*
X227203000Y-94869000D03*
X239395000Y-93980000D03*
%TO.N,/BMP_INT*%
X240030000Y-98679000D03*
X221615000Y-91694000D03*
%TO.N,/BMI_INT1*%
X221488000Y-97155000D03*
X218694000Y-97155000D03*
%TO.N,/BMI_INT2*%
X221136999Y-79785999D03*
X226441000Y-90297000D03*
X225127735Y-86189735D03*
X225127735Y-84709000D03*
%TD*%
D19*
%TO.N,GND*%
X239900000Y-126362000D02*
X241554000Y-128016000D01*
X239900000Y-123910000D02*
X239900000Y-126362000D01*
%TO.N,+3V3*%
X227330000Y-83947000D02*
X227330000Y-90297000D01*
X221996000Y-78613000D02*
X227330000Y-83947000D01*
X221996000Y-72165999D02*
X221996000Y-78613000D01*
X236662000Y-116205000D02*
X236662000Y-104013000D01*
%TO.N,/RAW_PWR*%
X235204000Y-131318000D02*
X237807500Y-128714500D01*
%TO.N,/TVC_X*%
X205740000Y-103378000D02*
X205740000Y-127000000D01*
X223647000Y-85471000D02*
X205740000Y-103378000D01*
X226695000Y-85471000D02*
X223647000Y-85471000D01*
X205740000Y-127000000D02*
X208280000Y-129540000D01*
%TO.N,/TVC_Y*%
X251714000Y-108712000D02*
X251714000Y-126746000D01*
X228473000Y-85471000D02*
X237016000Y-94014000D01*
X251714000Y-126746000D02*
X248920000Y-129540000D01*
X237016000Y-94228943D02*
X237368057Y-94581000D01*
X237368057Y-94581000D02*
X237583000Y-94581000D01*
X237583000Y-94581000D02*
X251714000Y-108712000D01*
X227965000Y-85471000D02*
X228473000Y-85471000D01*
X237016000Y-94014000D02*
X237016000Y-94228943D01*
%TO.N,/USB_D-*%
X218694000Y-95250000D02*
X220450000Y-95250000D01*
%TO.N,/MISO*%
X234479399Y-95668399D02*
X234516798Y-95631000D01*
X237080500Y-93443500D02*
X237080500Y-93431530D01*
X237080500Y-93431530D02*
X232537000Y-88888030D01*
X232537000Y-88888030D02*
X232537000Y-86360000D01*
X237617000Y-93980000D02*
X237080500Y-93443500D01*
X234516798Y-95631000D02*
X234696000Y-95631000D01*
X226441000Y-95668399D02*
X234479399Y-95668399D01*
X232537000Y-86360000D02*
X235331000Y-83566000D01*
%TO.N,/SCK*%
X242824000Y-102108000D02*
X237490000Y-102108000D01*
X225552000Y-95631000D02*
X232029000Y-102108000D01*
X245237000Y-90170000D02*
X245237000Y-100965000D01*
X232029000Y-102108000D02*
X237490000Y-102108000D01*
X239932998Y-84865998D02*
X245237000Y-90170000D01*
%TO.N,/BMP_CS*%
X226568000Y-93599000D02*
X233680000Y-93599000D01*
X233680000Y-93599000D02*
X237236000Y-97155000D01*
%TO.N,/MOSI*%
X234188000Y-87249000D02*
X235331000Y-86106000D01*
X239395000Y-93980000D02*
X234188000Y-88773000D01*
X232791000Y-94869000D02*
X227203000Y-94869000D01*
X234188000Y-88773000D02*
X234188000Y-87249000D01*
X233172000Y-94488000D02*
X232791000Y-94869000D01*
%TO.N,/BMP_INT*%
X233045000Y-91694000D02*
X221615000Y-91694000D01*
X240030000Y-98679000D02*
X233045000Y-91694000D01*
%TO.N,/BMI_INT1*%
X221488000Y-97155000D02*
X218567000Y-97155000D01*
%TO.N,/BMI_INT2*%
X226441000Y-87468000D02*
X226441000Y-90297000D01*
X225127735Y-83776735D02*
X221136999Y-79785999D01*
X225127735Y-84709000D02*
X225127735Y-83776735D01*
X225127735Y-86189735D02*
X225996500Y-87058500D01*
X225996500Y-87058500D02*
X226031500Y-87058500D01*
X226031500Y-87058500D02*
X226441000Y-87468000D01*
%TD*%
%TA.AperFunction,Conductor*%
%TO.N,GND*%
G36*
X235388756Y-96172837D02*
G01*
X235433103Y-96201338D01*
X236401425Y-97169660D01*
X236434910Y-97230983D01*
X236435361Y-97233149D01*
X236466261Y-97388491D01*
X236466264Y-97388501D01*
X236526602Y-97534172D01*
X236526609Y-97534185D01*
X236614210Y-97665288D01*
X236614213Y-97665292D01*
X236725707Y-97776786D01*
X236725711Y-97776789D01*
X236856814Y-97864390D01*
X236856827Y-97864397D01*
X237002498Y-97924735D01*
X237002503Y-97924737D01*
X237157153Y-97955499D01*
X237157156Y-97955500D01*
X237157158Y-97955500D01*
X237314844Y-97955500D01*
X237314845Y-97955499D01*
X237469497Y-97924737D01*
X237615179Y-97864394D01*
X237746289Y-97776789D01*
X237857789Y-97665289D01*
X237872264Y-97643624D01*
X237897720Y-97605529D01*
X237951332Y-97560723D01*
X238020657Y-97552016D01*
X238083684Y-97582170D01*
X238088503Y-97586738D01*
X239195425Y-98693660D01*
X239228910Y-98754983D01*
X239229361Y-98757149D01*
X239260261Y-98912491D01*
X239260264Y-98912501D01*
X239320602Y-99058172D01*
X239320609Y-99058185D01*
X239408210Y-99189288D01*
X239408213Y-99189292D01*
X239519707Y-99300786D01*
X239519711Y-99300789D01*
X239650814Y-99388390D01*
X239650827Y-99388397D01*
X239796498Y-99448735D01*
X239796503Y-99448737D01*
X239951153Y-99479499D01*
X239951156Y-99479500D01*
X239951158Y-99479500D01*
X240108844Y-99479500D01*
X240108845Y-99479499D01*
X240263497Y-99448737D01*
X240409179Y-99388394D01*
X240540289Y-99300789D01*
X240651789Y-99189289D01*
X240739394Y-99058179D01*
X240799737Y-98912497D01*
X240799738Y-98912491D01*
X240801480Y-98906750D01*
X240839774Y-98848309D01*
X240903585Y-98819849D01*
X240972652Y-98830406D01*
X241007823Y-98855058D01*
X243362271Y-101209506D01*
X243395756Y-101270829D01*
X243390772Y-101340521D01*
X243348900Y-101396454D01*
X243283436Y-101420871D01*
X243215163Y-101406019D01*
X243205701Y-101400290D01*
X243203188Y-101398611D01*
X243203172Y-101398602D01*
X243057501Y-101338264D01*
X243057489Y-101338261D01*
X242902845Y-101307500D01*
X242902842Y-101307500D01*
X242745158Y-101307500D01*
X242745155Y-101307500D01*
X242590510Y-101338261D01*
X242590498Y-101338264D01*
X242444827Y-101398602D01*
X242444814Y-101398609D01*
X242313125Y-101486602D01*
X242246447Y-101507480D01*
X242244234Y-101507500D01*
X238069766Y-101507500D01*
X238002727Y-101487815D01*
X238000875Y-101486602D01*
X237869185Y-101398609D01*
X237869172Y-101398602D01*
X237723501Y-101338264D01*
X237723489Y-101338261D01*
X237568845Y-101307500D01*
X237568842Y-101307500D01*
X237411158Y-101307500D01*
X237411155Y-101307500D01*
X237256510Y-101338261D01*
X237256498Y-101338264D01*
X237110827Y-101398602D01*
X237110814Y-101398609D01*
X236979125Y-101486602D01*
X236912447Y-101507480D01*
X236910234Y-101507500D01*
X232329097Y-101507500D01*
X232262058Y-101487815D01*
X232241416Y-101471181D01*
X227250815Y-96480580D01*
X227217330Y-96419257D01*
X227222314Y-96349565D01*
X227264186Y-96293632D01*
X227329650Y-96269215D01*
X227338496Y-96268899D01*
X234172206Y-96268899D01*
X234239245Y-96288584D01*
X234241097Y-96289797D01*
X234316821Y-96340394D01*
X234316822Y-96340394D01*
X234316823Y-96340395D01*
X234462498Y-96400735D01*
X234462503Y-96400737D01*
X234555609Y-96419257D01*
X234617153Y-96431499D01*
X234617156Y-96431500D01*
X234617158Y-96431500D01*
X234774844Y-96431500D01*
X234774845Y-96431499D01*
X234929497Y-96400737D01*
X235075179Y-96340394D01*
X235206289Y-96252789D01*
X235206292Y-96252786D01*
X235257741Y-96201338D01*
X235319064Y-96167853D01*
X235388756Y-96172837D01*
G37*
%TD.AperFunction*%
%TA.AperFunction,Conductor*%
G36*
X253442539Y-51320185D02*
G01*
X253488294Y-51372989D01*
X253499500Y-51424500D01*
X253499500Y-151775500D01*
X253479815Y-151842539D01*
X253427011Y-151888294D01*
X253375500Y-151899500D01*
X203824500Y-151899500D01*
X203757461Y-151879815D01*
X203711706Y-151827011D01*
X203700500Y-151775500D01*
X203700500Y-147198711D01*
X206429500Y-147198711D01*
X206429500Y-147441288D01*
X206461161Y-147681785D01*
X206523947Y-147916104D01*
X206616773Y-148140205D01*
X206616776Y-148140212D01*
X206738064Y-148350289D01*
X206738066Y-148350292D01*
X206738067Y-148350293D01*
X206885733Y-148542736D01*
X206885739Y-148542743D01*
X207057256Y-148714260D01*
X207057262Y-148714265D01*
X207249711Y-148861936D01*
X207459788Y-148983224D01*
X207683900Y-149076054D01*
X207918211Y-149138838D01*
X208098586Y-149162584D01*
X208158711Y-149170500D01*
X208158712Y-149170500D01*
X208401289Y-149170500D01*
X208449388Y-149164167D01*
X208641789Y-149138838D01*
X208876100Y-149076054D01*
X209100212Y-148983224D01*
X209310289Y-148861936D01*
X209502738Y-148714265D01*
X209674265Y-148542738D01*
X209821936Y-148350289D01*
X209943224Y-148140212D01*
X210036054Y-147916100D01*
X210098838Y-147681789D01*
X210130500Y-147441288D01*
X210130500Y-147198712D01*
X210130500Y-147198711D01*
X247069500Y-147198711D01*
X247069500Y-147441288D01*
X247101161Y-147681785D01*
X247163947Y-147916104D01*
X247256773Y-148140205D01*
X247256776Y-148140212D01*
X247378064Y-148350289D01*
X247378066Y-148350292D01*
X247378067Y-148350293D01*
X247525733Y-148542736D01*
X247525739Y-148542743D01*
X247697256Y-148714260D01*
X247697262Y-148714265D01*
X247889711Y-148861936D01*
X248099788Y-148983224D01*
X248323900Y-149076054D01*
X248558211Y-149138838D01*
X248738586Y-149162584D01*
X248798711Y-149170500D01*
X248798712Y-149170500D01*
X249041289Y-149170500D01*
X249089388Y-149164167D01*
X249281789Y-149138838D01*
X249516100Y-149076054D01*
X249740212Y-148983224D01*
X249950289Y-148861936D01*
X250142738Y-148714265D01*
X250314265Y-148542738D01*
X250461936Y-148350289D01*
X250583224Y-148140212D01*
X250676054Y-147916100D01*
X250738838Y-147681789D01*
X250770500Y-147441288D01*
X250770500Y-147198712D01*
X250738838Y-146958211D01*
X250676054Y-146723900D01*
X250583224Y-146499788D01*
X250461936Y-146289711D01*
X250371301Y-146171593D01*
X250314266Y-146097263D01*
X250314260Y-146097256D01*
X250142743Y-145925739D01*
X250142736Y-145925733D01*
X249950293Y-145778067D01*
X249950292Y-145778066D01*
X249950289Y-145778064D01*
X249740212Y-145656776D01*
X249708690Y-145643719D01*
X249516104Y-145563947D01*
X249281785Y-145501161D01*
X249041289Y-145469500D01*
X249041288Y-145469500D01*
X248798712Y-145469500D01*
X248798711Y-145469500D01*
X248558214Y-145501161D01*
X248323895Y-145563947D01*
X248099794Y-145656773D01*
X248099785Y-145656777D01*
X247889706Y-145778067D01*
X247697263Y-145925733D01*
X247697256Y-145925739D01*
X247525739Y-146097256D01*
X247525733Y-146097263D01*
X247378067Y-146289706D01*
X247256777Y-146499785D01*
X247256773Y-146499794D01*
X247163947Y-146723895D01*
X247101161Y-146958214D01*
X247069500Y-147198711D01*
X210130500Y-147198711D01*
X210098838Y-146958211D01*
X210036054Y-146723900D01*
X209943224Y-146499788D01*
X209821936Y-146289711D01*
X209719296Y-146155948D01*
X209679615Y-146104234D01*
X225134500Y-146104234D01*
X225134500Y-146255766D01*
X225154109Y-146328950D01*
X225173719Y-146402136D01*
X225211602Y-146467750D01*
X225249485Y-146533365D01*
X225356635Y-146640515D01*
X225487865Y-146716281D01*
X225634234Y-146755500D01*
X225634236Y-146755500D01*
X225785764Y-146755500D01*
X225785766Y-146755500D01*
X225932135Y-146716281D01*
X226063365Y-146640515D01*
X226170515Y-146533365D01*
X226246281Y-146402135D01*
X226285500Y-146255766D01*
X226285500Y-146104234D01*
X230914500Y-146104234D01*
X230914500Y-146255766D01*
X230934109Y-146328950D01*
X230953719Y-146402136D01*
X230991602Y-146467750D01*
X231029485Y-146533365D01*
X231136635Y-146640515D01*
X231267865Y-146716281D01*
X231414234Y-146755500D01*
X231414236Y-146755500D01*
X231565764Y-146755500D01*
X231565766Y-146755500D01*
X231712135Y-146716281D01*
X231843365Y-146640515D01*
X231950515Y-146533365D01*
X232026281Y-146402135D01*
X232065500Y-146255766D01*
X232065500Y-146104234D01*
X232026281Y-145957865D01*
X231950515Y-145826635D01*
X231843365Y-145719485D01*
X231777750Y-145681602D01*
X231712136Y-145643719D01*
X231638950Y-145624109D01*
X231565766Y-145604500D01*
X231414234Y-145604500D01*
X231267863Y-145643719D01*
X231136635Y-145719485D01*
X231136632Y-145719487D01*
X231029487Y-145826632D01*
X231029485Y-145826635D01*
X230953719Y-145957863D01*
X230916370Y-146097256D01*
X230914500Y-146104234D01*
X226285500Y-146104234D01*
X226246281Y-145957865D01*
X226170515Y-145826635D01*
X226063365Y-145719485D01*
X225997750Y-145681602D01*
X225932136Y-145643719D01*
X225858950Y-145624109D01*
X225785766Y-145604500D01*
X225634234Y-145604500D01*
X225487863Y-145643719D01*
X225356635Y-145719485D01*
X225356632Y-145719487D01*
X225249487Y-145826632D01*
X225249485Y-145826635D01*
X225173719Y-145957863D01*
X225136370Y-146097256D01*
X225134500Y-146104234D01*
X209679615Y-146104234D01*
X209674266Y-146097263D01*
X209674260Y-146097256D01*
X209502743Y-145925739D01*
X209502736Y-145925733D01*
X209310293Y-145778067D01*
X209310292Y-145778066D01*
X209310289Y-145778064D01*
X209100212Y-145656776D01*
X209068690Y-145643719D01*
X208876104Y-145563947D01*
X208641785Y-145501161D01*
X208401289Y-145469500D01*
X208401288Y-145469500D01*
X208158712Y-145469500D01*
X208158711Y-145469500D01*
X207918214Y-145501161D01*
X207683895Y-145563947D01*
X207459794Y-145656773D01*
X207459785Y-145656777D01*
X207249706Y-145778067D01*
X207057263Y-145925733D01*
X207057256Y-145925739D01*
X206885739Y-146097256D01*
X206885733Y-146097263D01*
X206738067Y-146289706D01*
X206616777Y-146499785D01*
X206616773Y-146499794D01*
X206523947Y-146723895D01*
X206461161Y-146958214D01*
X206429500Y-147198711D01*
X203700500Y-147198711D01*
X203700500Y-139609139D01*
X215285500Y-139609139D01*
X215285500Y-139790860D01*
X215313928Y-139970347D01*
X215313928Y-139970350D01*
X215370081Y-140143171D01*
X215370083Y-140143174D01*
X215452583Y-140305090D01*
X215559397Y-140452106D01*
X215687894Y-140580603D01*
X215834910Y-140687417D01*
X215996826Y-140769917D01*
X215996828Y-140769918D01*
X216158029Y-140822294D01*
X216169654Y-140826072D01*
X216349139Y-140854500D01*
X216349140Y-140854500D01*
X216530860Y-140854500D01*
X216530861Y-140854500D01*
X216710346Y-140826072D01*
X216710349Y-140826071D01*
X216710350Y-140826071D01*
X216883171Y-140769918D01*
X216883171Y-140769917D01*
X216883174Y-140769917D01*
X217045090Y-140687417D01*
X217192106Y-140580603D01*
X217320603Y-140452106D01*
X217427417Y-140305090D01*
X217509917Y-140143174D01*
X217566072Y-139970346D01*
X217594500Y-139790861D01*
X217594500Y-139609139D01*
X217566072Y-139429654D01*
X217566071Y-139429650D01*
X217566071Y-139429649D01*
X217509918Y-139256828D01*
X217509916Y-139256825D01*
X217427416Y-139094909D01*
X217320603Y-138947894D01*
X217192106Y-138819397D01*
X217045090Y-138712583D01*
X216883174Y-138630083D01*
X216883171Y-138630081D01*
X216710348Y-138573928D01*
X216590689Y-138554976D01*
X216530861Y-138545500D01*
X216349139Y-138545500D01*
X216289310Y-138554976D01*
X216169652Y-138573928D01*
X216169649Y-138573928D01*
X215996828Y-138630081D01*
X215996825Y-138630083D01*
X215834909Y-138712583D01*
X215751030Y-138773525D01*
X215687894Y-138819397D01*
X215687892Y-138819399D01*
X215687891Y-138819399D01*
X215559399Y-138947891D01*
X215559399Y-138947892D01*
X215559397Y-138947894D01*
X215513525Y-139011030D01*
X215452583Y-139094909D01*
X215370083Y-139256825D01*
X215370081Y-139256828D01*
X215313928Y-139429649D01*
X215313928Y-139429652D01*
X215285500Y-139609139D01*
X203700500Y-139609139D01*
X203700500Y-127079054D01*
X205139498Y-127079054D01*
X205180423Y-127231785D01*
X205209358Y-127281900D01*
X205209359Y-127281904D01*
X205209360Y-127281904D01*
X205259479Y-127368714D01*
X205259481Y-127368717D01*
X205378349Y-127487585D01*
X205378355Y-127487590D01*
X206876800Y-128986035D01*
X206910285Y-129047358D01*
X206907050Y-129112033D01*
X206877408Y-129203263D01*
X206842000Y-129426821D01*
X206842000Y-129653178D01*
X206877407Y-129876733D01*
X206947354Y-130092005D01*
X207050112Y-130293676D01*
X207183155Y-130476794D01*
X207183157Y-130476796D01*
X207185802Y-130479441D01*
X207219287Y-130540764D01*
X207214303Y-130610456D01*
X207172431Y-130666389D01*
X207141457Y-130683303D01*
X207100172Y-130698702D01*
X207100164Y-130698706D01*
X206984955Y-130784952D01*
X206984952Y-130784955D01*
X206898706Y-130900164D01*
X206898702Y-130900171D01*
X206848408Y-131035017D01*
X206842001Y-131094616D01*
X206842001Y-131094623D01*
X206842000Y-131094635D01*
X206842000Y-133065370D01*
X206842001Y-133065376D01*
X206848408Y-133124983D01*
X206898702Y-133259828D01*
X206898706Y-133259835D01*
X206984952Y-133375044D01*
X206984955Y-133375047D01*
X207100164Y-133461293D01*
X207100171Y-133461297D01*
X207235017Y-133511591D01*
X207235016Y-133511591D01*
X207241944Y-133512335D01*
X207294627Y-133518000D01*
X209265372Y-133517999D01*
X209324983Y-133511591D01*
X209459831Y-133461296D01*
X209575046Y-133375046D01*
X209661296Y-133259831D01*
X209711591Y-133124983D01*
X209718000Y-133065373D01*
X209717999Y-131239153D01*
X234403500Y-131239153D01*
X234403500Y-131396846D01*
X234434261Y-131551489D01*
X234434264Y-131551501D01*
X234494602Y-131697172D01*
X234494609Y-131697185D01*
X234582210Y-131828288D01*
X234582213Y-131828292D01*
X234693707Y-131939786D01*
X234693711Y-131939789D01*
X234824814Y-132027390D01*
X234824827Y-132027397D01*
X234970498Y-132087735D01*
X234970503Y-132087737D01*
X235125153Y-132118499D01*
X235125156Y-132118500D01*
X235125158Y-132118500D01*
X235282844Y-132118500D01*
X235282845Y-132118499D01*
X235437497Y-132087737D01*
X235583179Y-132027394D01*
X235714289Y-131939789D01*
X235825789Y-131828289D01*
X235913394Y-131697179D01*
X235973737Y-131551497D01*
X235993113Y-131454085D01*
X236004638Y-131396150D01*
X236037023Y-131334239D01*
X236038518Y-131332716D01*
X237822162Y-129549072D01*
X237883483Y-129515589D01*
X237885650Y-129515138D01*
X237943585Y-129503613D01*
X238040997Y-129484237D01*
X238186679Y-129423894D01*
X238317789Y-129336289D01*
X238429289Y-129224789D01*
X238516894Y-129093679D01*
X238577237Y-128947997D01*
X238608000Y-128793342D01*
X238608000Y-128635658D01*
X238608000Y-128635655D01*
X238607999Y-128635653D01*
X238577238Y-128481010D01*
X238577238Y-128481008D01*
X238577237Y-128481003D01*
X238561560Y-128443155D01*
X238516897Y-128335327D01*
X238516890Y-128335314D01*
X238429289Y-128204211D01*
X238429286Y-128204207D01*
X238317792Y-128092713D01*
X238317788Y-128092710D01*
X238186685Y-128005109D01*
X238186672Y-128005102D01*
X238041001Y-127944764D01*
X238040989Y-127944761D01*
X237886345Y-127914000D01*
X237886342Y-127914000D01*
X237728658Y-127914000D01*
X237728655Y-127914000D01*
X237574010Y-127944761D01*
X237573998Y-127944764D01*
X237428327Y-128005102D01*
X237428314Y-128005109D01*
X237297211Y-128092710D01*
X237297207Y-128092713D01*
X237185713Y-128204207D01*
X237185710Y-128204211D01*
X237098109Y-128335314D01*
X237098102Y-128335327D01*
X237037764Y-128480998D01*
X237037761Y-128481008D01*
X237006861Y-128636350D01*
X236974476Y-128698261D01*
X236972925Y-128699839D01*
X235189339Y-130483425D01*
X235128016Y-130516910D01*
X235125850Y-130517361D01*
X234970508Y-130548261D01*
X234970498Y-130548264D01*
X234824827Y-130608602D01*
X234824814Y-130608609D01*
X234693711Y-130696210D01*
X234693707Y-130696213D01*
X234582213Y-130807707D01*
X234582210Y-130807711D01*
X234494609Y-130938814D01*
X234494602Y-130938827D01*
X234434264Y-131084498D01*
X234434261Y-131084510D01*
X234403500Y-131239153D01*
X209717999Y-131239153D01*
X209717999Y-131094628D01*
X209711591Y-131035017D01*
X209675714Y-130938827D01*
X209661297Y-130900171D01*
X209661293Y-130900164D01*
X209575047Y-130784955D01*
X209575044Y-130784952D01*
X209459835Y-130698706D01*
X209459825Y-130698701D01*
X209418543Y-130683303D01*
X209362610Y-130641431D01*
X209338194Y-130575967D01*
X209353046Y-130507694D01*
X209374201Y-130479437D01*
X209376845Y-130476794D01*
X209509888Y-130293676D01*
X209612647Y-130092001D01*
X209682592Y-129876733D01*
X209718000Y-129653178D01*
X209718000Y-129426821D01*
X209682592Y-129203266D01*
X209612645Y-128987994D01*
X209558436Y-128881605D01*
X209509888Y-128786324D01*
X209376845Y-128603206D01*
X209216794Y-128443155D01*
X209033676Y-128310112D01*
X208832005Y-128207354D01*
X208616733Y-128137407D01*
X208393178Y-128102000D01*
X208393173Y-128102000D01*
X208166827Y-128102000D01*
X208166822Y-128102000D01*
X207943263Y-128137408D01*
X207852033Y-128167050D01*
X207782192Y-128169045D01*
X207726035Y-128136800D01*
X206376819Y-126787584D01*
X206343334Y-126726261D01*
X206340500Y-126699903D01*
X206340500Y-103934153D01*
X235861500Y-103934153D01*
X235861500Y-104091846D01*
X235892261Y-104246489D01*
X235892264Y-104246501D01*
X235952602Y-104392172D01*
X235952609Y-104392185D01*
X236040602Y-104523874D01*
X236061480Y-104590551D01*
X236061500Y-104592765D01*
X236061500Y-115625234D01*
X236041815Y-115692273D01*
X236040602Y-115694125D01*
X235952609Y-115825814D01*
X235952602Y-115825827D01*
X235892264Y-115971498D01*
X235892261Y-115971510D01*
X235861500Y-116126153D01*
X235861500Y-116283846D01*
X235892261Y-116438489D01*
X235892264Y-116438501D01*
X235952602Y-116584172D01*
X235952609Y-116584185D01*
X236040210Y-116715288D01*
X236040213Y-116715292D01*
X236151707Y-116826786D01*
X236151711Y-116826789D01*
X236282814Y-116914390D01*
X236282827Y-116914397D01*
X236428498Y-116974735D01*
X236428503Y-116974737D01*
X236583153Y-117005499D01*
X236583156Y-117005500D01*
X236583158Y-117005500D01*
X236740844Y-117005500D01*
X236740845Y-117005499D01*
X236895497Y-116974737D01*
X237041179Y-116914394D01*
X237172289Y-116826789D01*
X237283789Y-116715289D01*
X237371394Y-116584179D01*
X237431737Y-116438497D01*
X237462500Y-116283842D01*
X237462500Y-116126158D01*
X237462500Y-116126155D01*
X237462499Y-116126153D01*
X237431738Y-115971510D01*
X237431737Y-115971503D01*
X237431735Y-115971498D01*
X237371397Y-115825827D01*
X237371390Y-115825814D01*
X237283398Y-115694125D01*
X237262520Y-115627447D01*
X237262500Y-115625234D01*
X237262500Y-104592765D01*
X237282185Y-104525726D01*
X237283398Y-104523874D01*
X237371390Y-104392185D01*
X237371390Y-104392184D01*
X237371394Y-104392179D01*
X237431737Y-104246497D01*
X237462500Y-104091842D01*
X237462500Y-103934158D01*
X237462500Y-103934155D01*
X237462499Y-103934153D01*
X237431738Y-103779510D01*
X237431737Y-103779503D01*
X237389734Y-103678097D01*
X237371397Y-103633827D01*
X237371390Y-103633814D01*
X237283789Y-103502711D01*
X237283786Y-103502707D01*
X237172292Y-103391213D01*
X237172288Y-103391210D01*
X237041185Y-103303609D01*
X237041172Y-103303602D01*
X236895501Y-103243264D01*
X236895489Y-103243261D01*
X236740845Y-103212500D01*
X236740842Y-103212500D01*
X236583158Y-103212500D01*
X236583155Y-103212500D01*
X236428510Y-103243261D01*
X236428498Y-103243264D01*
X236282827Y-103303602D01*
X236282814Y-103303609D01*
X236151711Y-103391210D01*
X236151707Y-103391213D01*
X236040213Y-103502707D01*
X236040210Y-103502711D01*
X235952609Y-103633814D01*
X235952602Y-103633827D01*
X235892264Y-103779498D01*
X235892261Y-103779510D01*
X235861500Y-103934153D01*
X206340500Y-103934153D01*
X206340500Y-103678097D01*
X206360185Y-103611058D01*
X206376819Y-103590416D01*
X212891082Y-97076153D01*
X217893500Y-97076153D01*
X217893500Y-97233846D01*
X217924261Y-97388489D01*
X217924264Y-97388501D01*
X217984602Y-97534172D01*
X217984609Y-97534185D01*
X218072210Y-97665288D01*
X218072213Y-97665292D01*
X218183707Y-97776786D01*
X218183711Y-97776789D01*
X218314814Y-97864390D01*
X218314827Y-97864397D01*
X218460498Y-97924735D01*
X218460503Y-97924737D01*
X218615153Y-97955499D01*
X218615156Y-97955500D01*
X218615158Y-97955500D01*
X218772844Y-97955500D01*
X218772845Y-97955499D01*
X218927497Y-97924737D01*
X219073179Y-97864394D01*
X219073185Y-97864390D01*
X219204875Y-97776398D01*
X219271553Y-97755520D01*
X219273766Y-97755500D01*
X220908234Y-97755500D01*
X220975273Y-97775185D01*
X220977125Y-97776398D01*
X221108814Y-97864390D01*
X221108827Y-97864397D01*
X221254498Y-97924735D01*
X221254503Y-97924737D01*
X221409153Y-97955499D01*
X221409156Y-97955500D01*
X221409158Y-97955500D01*
X221566844Y-97955500D01*
X221566845Y-97955499D01*
X221721497Y-97924737D01*
X221867179Y-97864394D01*
X221998289Y-97776789D01*
X222109789Y-97665289D01*
X222197394Y-97534179D01*
X222257737Y-97388497D01*
X222288500Y-97233842D01*
X222288500Y-97076158D01*
X222288500Y-97076155D01*
X222288499Y-97076153D01*
X222257738Y-96921510D01*
X222257737Y-96921503D01*
X222257735Y-96921498D01*
X222197397Y-96775827D01*
X222197390Y-96775814D01*
X222109789Y-96644711D01*
X222109786Y-96644707D01*
X221998292Y-96533213D01*
X221998288Y-96533210D01*
X221867185Y-96445609D01*
X221867172Y-96445602D01*
X221721501Y-96385264D01*
X221721489Y-96385261D01*
X221566845Y-96354500D01*
X221566842Y-96354500D01*
X221409158Y-96354500D01*
X221409155Y-96354500D01*
X221254510Y-96385261D01*
X221254498Y-96385264D01*
X221108827Y-96445602D01*
X221108814Y-96445609D01*
X220977125Y-96533602D01*
X220910447Y-96554480D01*
X220908234Y-96554500D01*
X219273766Y-96554500D01*
X219206727Y-96534815D01*
X219204875Y-96533602D01*
X219073185Y-96445609D01*
X219073172Y-96445602D01*
X218927501Y-96385264D01*
X218927489Y-96385261D01*
X218772845Y-96354500D01*
X218772842Y-96354500D01*
X218615158Y-96354500D01*
X218615155Y-96354500D01*
X218460510Y-96385261D01*
X218460498Y-96385264D01*
X218314827Y-96445602D01*
X218314814Y-96445609D01*
X218183711Y-96533210D01*
X218183707Y-96533213D01*
X218072213Y-96644707D01*
X218072210Y-96644711D01*
X217984609Y-96775814D01*
X217984602Y-96775827D01*
X217924264Y-96921498D01*
X217924261Y-96921510D01*
X217893500Y-97076153D01*
X212891082Y-97076153D01*
X214796082Y-95171153D01*
X217893500Y-95171153D01*
X217893500Y-95328846D01*
X217924261Y-95483489D01*
X217924264Y-95483501D01*
X217984602Y-95629172D01*
X217984609Y-95629185D01*
X218072210Y-95760288D01*
X218072213Y-95760292D01*
X218183707Y-95871786D01*
X218183711Y-95871789D01*
X218314814Y-95959390D01*
X218314827Y-95959397D01*
X218437442Y-96010185D01*
X218460503Y-96019737D01*
X218615153Y-96050499D01*
X218615156Y-96050500D01*
X218615158Y-96050500D01*
X218772844Y-96050500D01*
X218772845Y-96050499D01*
X218927497Y-96019737D01*
X219073179Y-95959394D01*
X219073185Y-95959390D01*
X219204875Y-95871398D01*
X219271553Y-95850520D01*
X219273766Y-95850500D01*
X219870234Y-95850500D01*
X219937273Y-95870185D01*
X219939125Y-95871398D01*
X220070814Y-95959390D01*
X220070827Y-95959397D01*
X220193442Y-96010185D01*
X220216503Y-96019737D01*
X220371153Y-96050499D01*
X220371156Y-96050500D01*
X220371158Y-96050500D01*
X220528844Y-96050500D01*
X220528845Y-96050499D01*
X220683497Y-96019737D01*
X220829179Y-95959394D01*
X220960289Y-95871789D01*
X221071789Y-95760289D01*
X221159394Y-95629179D01*
X221219737Y-95483497D01*
X221250500Y-95328842D01*
X221250500Y-95171158D01*
X221250500Y-95171155D01*
X221250499Y-95171153D01*
X221240465Y-95120711D01*
X221219737Y-95016503D01*
X221180428Y-94921602D01*
X221159397Y-94870827D01*
X221159390Y-94870814D01*
X221071789Y-94739711D01*
X221071786Y-94739707D01*
X220960292Y-94628213D01*
X220960288Y-94628210D01*
X220829185Y-94540609D01*
X220829172Y-94540602D01*
X220683501Y-94480264D01*
X220683489Y-94480261D01*
X220528845Y-94449500D01*
X220528842Y-94449500D01*
X220371158Y-94449500D01*
X220371155Y-94449500D01*
X220216510Y-94480261D01*
X220216498Y-94480264D01*
X220070827Y-94540602D01*
X220070814Y-94540609D01*
X219939125Y-94628602D01*
X219872447Y-94649480D01*
X219870234Y-94649500D01*
X219273766Y-94649500D01*
X219206727Y-94629815D01*
X219204875Y-94628602D01*
X219073185Y-94540609D01*
X219073172Y-94540602D01*
X218927501Y-94480264D01*
X218927489Y-94480261D01*
X218772845Y-94449500D01*
X218772842Y-94449500D01*
X218615158Y-94449500D01*
X218615155Y-94449500D01*
X218460510Y-94480261D01*
X218460498Y-94480264D01*
X218314827Y-94540602D01*
X218314814Y-94540609D01*
X218183711Y-94628210D01*
X218183707Y-94628213D01*
X218072213Y-94739707D01*
X218072210Y-94739711D01*
X217984609Y-94870814D01*
X217984602Y-94870827D01*
X217924264Y-95016498D01*
X217924261Y-95016510D01*
X217893500Y-95171153D01*
X214796082Y-95171153D01*
X223859416Y-86107819D01*
X223920739Y-86074334D01*
X223947097Y-86071500D01*
X224203235Y-86071500D01*
X224270274Y-86091185D01*
X224316029Y-86143989D01*
X224327235Y-86195500D01*
X224327235Y-86268581D01*
X224357996Y-86423224D01*
X224357999Y-86423236D01*
X224418337Y-86568907D01*
X224418344Y-86568920D01*
X224505945Y-86700023D01*
X224505948Y-86700027D01*
X224617442Y-86811521D01*
X224617446Y-86811524D01*
X224748549Y-86899125D01*
X224748562Y-86899132D01*
X224894233Y-86959470D01*
X224894238Y-86959472D01*
X224958882Y-86972330D01*
X225049584Y-86990373D01*
X225111495Y-87022758D01*
X225113074Y-87024309D01*
X225511639Y-87422874D01*
X225511649Y-87422885D01*
X225515979Y-87427215D01*
X225515980Y-87427216D01*
X225627784Y-87539020D01*
X225696461Y-87578670D01*
X225722139Y-87598374D01*
X225804181Y-87680416D01*
X225837666Y-87741739D01*
X225840500Y-87768097D01*
X225840500Y-89717234D01*
X225820815Y-89784273D01*
X225819602Y-89786125D01*
X225731609Y-89917814D01*
X225731602Y-89917827D01*
X225671264Y-90063498D01*
X225671261Y-90063510D01*
X225640500Y-90218153D01*
X225640500Y-90375846D01*
X225671261Y-90530489D01*
X225671264Y-90530501D01*
X225731602Y-90676172D01*
X225731609Y-90676185D01*
X225819210Y-90807288D01*
X225819213Y-90807292D01*
X225893740Y-90881819D01*
X225927225Y-90943142D01*
X225922241Y-91012834D01*
X225880369Y-91068767D01*
X225814905Y-91093184D01*
X225806059Y-91093500D01*
X222194766Y-91093500D01*
X222127727Y-91073815D01*
X222125875Y-91072602D01*
X221994185Y-90984609D01*
X221994172Y-90984602D01*
X221848501Y-90924264D01*
X221848489Y-90924261D01*
X221693845Y-90893500D01*
X221693842Y-90893500D01*
X221536158Y-90893500D01*
X221536155Y-90893500D01*
X221381510Y-90924261D01*
X221381498Y-90924264D01*
X221235827Y-90984602D01*
X221235814Y-90984609D01*
X221104711Y-91072210D01*
X221104707Y-91072213D01*
X220993213Y-91183707D01*
X220993210Y-91183711D01*
X220905609Y-91314814D01*
X220905602Y-91314827D01*
X220845264Y-91460498D01*
X220845261Y-91460510D01*
X220814500Y-91615153D01*
X220814500Y-91772846D01*
X220845261Y-91927489D01*
X220845264Y-91927501D01*
X220905602Y-92073172D01*
X220905609Y-92073185D01*
X220993210Y-92204288D01*
X220993213Y-92204292D01*
X221104707Y-92315786D01*
X221104711Y-92315789D01*
X221235814Y-92403390D01*
X221235827Y-92403397D01*
X221381498Y-92463735D01*
X221381503Y-92463737D01*
X221536153Y-92494499D01*
X221536156Y-92494500D01*
X221536158Y-92494500D01*
X221693844Y-92494500D01*
X221693845Y-92494499D01*
X221848497Y-92463737D01*
X221994179Y-92403394D01*
X221994185Y-92403390D01*
X222125875Y-92315398D01*
X222192553Y-92294520D01*
X222194766Y-92294500D01*
X232744903Y-92294500D01*
X232811942Y-92314185D01*
X232832584Y-92330819D01*
X233288584Y-92786819D01*
X233322069Y-92848142D01*
X233317085Y-92917834D01*
X233275213Y-92973767D01*
X233209749Y-92998184D01*
X233200903Y-92998500D01*
X227147766Y-92998500D01*
X227080727Y-92978815D01*
X227078875Y-92977602D01*
X226947185Y-92889609D01*
X226947172Y-92889602D01*
X226801501Y-92829264D01*
X226801489Y-92829261D01*
X226646845Y-92798500D01*
X226646842Y-92798500D01*
X226489158Y-92798500D01*
X226489155Y-92798500D01*
X226334510Y-92829261D01*
X226334498Y-92829264D01*
X226188827Y-92889602D01*
X226188814Y-92889609D01*
X226057711Y-92977210D01*
X226057707Y-92977213D01*
X225946213Y-93088707D01*
X225946210Y-93088711D01*
X225858609Y-93219814D01*
X225858602Y-93219827D01*
X225798264Y-93365498D01*
X225798261Y-93365510D01*
X225767500Y-93520153D01*
X225767500Y-93677846D01*
X225798261Y-93832489D01*
X225798264Y-93832501D01*
X225858602Y-93978172D01*
X225858609Y-93978185D01*
X225946210Y-94109288D01*
X225946213Y-94109292D01*
X226057707Y-94220786D01*
X226057711Y-94220789D01*
X226188814Y-94308390D01*
X226188827Y-94308397D01*
X226311442Y-94359185D01*
X226334503Y-94368737D01*
X226334507Y-94368737D01*
X226334508Y-94368738D01*
X226379641Y-94377716D01*
X226441552Y-94410101D01*
X226476126Y-94470817D01*
X226472386Y-94540586D01*
X226470010Y-94546785D01*
X226433264Y-94635498D01*
X226433261Y-94635508D01*
X226404224Y-94781485D01*
X226371839Y-94843396D01*
X226311123Y-94877970D01*
X226306799Y-94878910D01*
X226207508Y-94898660D01*
X226207498Y-94898663D01*
X226076959Y-94952734D01*
X226007490Y-94960203D01*
X225960616Y-94941275D01*
X225931179Y-94921606D01*
X225931172Y-94921602D01*
X225785501Y-94861264D01*
X225785489Y-94861261D01*
X225630845Y-94830500D01*
X225630842Y-94830500D01*
X225473158Y-94830500D01*
X225473155Y-94830500D01*
X225318510Y-94861261D01*
X225318498Y-94861264D01*
X225172827Y-94921602D01*
X225172814Y-94921609D01*
X225041711Y-95009210D01*
X225041707Y-95009213D01*
X224930213Y-95120707D01*
X224930210Y-95120711D01*
X224842609Y-95251814D01*
X224842602Y-95251827D01*
X224782264Y-95397498D01*
X224782261Y-95397510D01*
X224751500Y-95552153D01*
X224751500Y-95709846D01*
X224782261Y-95864489D01*
X224782264Y-95864501D01*
X224842602Y-96010172D01*
X224842609Y-96010185D01*
X224930210Y-96141288D01*
X224930213Y-96141292D01*
X225041707Y-96252786D01*
X225041711Y-96252789D01*
X225172814Y-96340390D01*
X225172827Y-96340397D01*
X225318498Y-96400735D01*
X225318503Y-96400737D01*
X225383147Y-96413595D01*
X225473849Y-96431638D01*
X225535760Y-96464023D01*
X225537339Y-96465574D01*
X231544139Y-102472374D01*
X231544149Y-102472385D01*
X231548479Y-102476715D01*
X231548480Y-102476716D01*
X231660284Y-102588520D01*
X231711845Y-102618288D01*
X231747095Y-102638639D01*
X231747097Y-102638641D01*
X231797213Y-102667576D01*
X231797215Y-102667577D01*
X231949942Y-102708500D01*
X231949943Y-102708500D01*
X236910234Y-102708500D01*
X236977273Y-102728185D01*
X236979125Y-102729398D01*
X237110814Y-102817390D01*
X237110827Y-102817397D01*
X237256498Y-102877735D01*
X237256503Y-102877737D01*
X237411153Y-102908499D01*
X237411156Y-102908500D01*
X237411158Y-102908500D01*
X237568844Y-102908500D01*
X237568845Y-102908499D01*
X237723497Y-102877737D01*
X237869179Y-102817394D01*
X237869185Y-102817390D01*
X238000875Y-102729398D01*
X238067553Y-102708520D01*
X238069766Y-102708500D01*
X242244234Y-102708500D01*
X242311273Y-102728185D01*
X242313125Y-102729398D01*
X242444814Y-102817390D01*
X242444827Y-102817397D01*
X242590498Y-102877735D01*
X242590503Y-102877737D01*
X242745153Y-102908499D01*
X242745156Y-102908500D01*
X242745158Y-102908500D01*
X242902844Y-102908500D01*
X242902845Y-102908499D01*
X243057497Y-102877737D01*
X243203179Y-102817394D01*
X243334289Y-102729789D01*
X243445789Y-102618289D01*
X243533394Y-102487179D01*
X243593737Y-102341497D01*
X243624500Y-102186842D01*
X243624500Y-102029158D01*
X243624500Y-102029155D01*
X243624499Y-102029153D01*
X243593738Y-101874510D01*
X243593737Y-101874503D01*
X243570127Y-101817503D01*
X243533397Y-101728827D01*
X243533392Y-101728818D01*
X243531711Y-101726302D01*
X243531234Y-101724781D01*
X243530521Y-101723446D01*
X243530774Y-101723310D01*
X243510832Y-101659625D01*
X243529315Y-101592244D01*
X243581293Y-101545553D01*
X243650263Y-101534375D01*
X243714327Y-101562260D01*
X243722493Y-101569728D01*
X251077181Y-108924416D01*
X251110666Y-108985739D01*
X251113500Y-109012097D01*
X251113500Y-126445902D01*
X251093815Y-126512941D01*
X251077181Y-126533583D01*
X249473963Y-128136800D01*
X249412640Y-128170285D01*
X249347964Y-128167050D01*
X249256736Y-128137408D01*
X249033178Y-128102000D01*
X249033173Y-128102000D01*
X248806827Y-128102000D01*
X248806822Y-128102000D01*
X248583266Y-128137407D01*
X248367994Y-128207354D01*
X248166323Y-128310112D01*
X247983203Y-128443157D01*
X247823157Y-128603203D01*
X247690112Y-128786323D01*
X247587354Y-128987994D01*
X247517407Y-129203266D01*
X247482000Y-129426821D01*
X247482000Y-129653178D01*
X247517407Y-129876733D01*
X247587354Y-130092005D01*
X247690112Y-130293676D01*
X247823155Y-130476794D01*
X247823157Y-130476796D01*
X247825802Y-130479441D01*
X247859287Y-130540764D01*
X247854303Y-130610456D01*
X247812431Y-130666389D01*
X247781457Y-130683303D01*
X247740172Y-130698702D01*
X247740164Y-130698706D01*
X247624955Y-130784952D01*
X247624952Y-130784955D01*
X247538706Y-130900164D01*
X247538702Y-130900171D01*
X247488408Y-131035017D01*
X247482001Y-131094616D01*
X247482001Y-131094623D01*
X247482000Y-131094635D01*
X247482000Y-133065370D01*
X247482001Y-133065376D01*
X247488408Y-133124983D01*
X247538702Y-133259828D01*
X247538706Y-133259835D01*
X247624952Y-133375044D01*
X247624955Y-133375047D01*
X247740164Y-133461293D01*
X247740171Y-133461297D01*
X247875017Y-133511591D01*
X247875016Y-133511591D01*
X247881944Y-133512335D01*
X247934627Y-133518000D01*
X249905372Y-133517999D01*
X249964983Y-133511591D01*
X250099831Y-133461296D01*
X250215046Y-133375046D01*
X250301296Y-133259831D01*
X250351591Y-133124983D01*
X250358000Y-133065373D01*
X250357999Y-131094628D01*
X250351591Y-131035017D01*
X250315714Y-130938827D01*
X250301297Y-130900171D01*
X250301293Y-130900164D01*
X250215047Y-130784955D01*
X250215044Y-130784952D01*
X250099835Y-130698706D01*
X250099825Y-130698701D01*
X250058543Y-130683303D01*
X250002610Y-130641431D01*
X249978194Y-130575967D01*
X249993046Y-130507694D01*
X250014201Y-130479437D01*
X250016845Y-130476794D01*
X250149888Y-130293676D01*
X250252647Y-130092001D01*
X250322592Y-129876733D01*
X250358000Y-129653178D01*
X250358000Y-129426821D01*
X250326001Y-129224792D01*
X250322592Y-129203267D01*
X250292947Y-129112033D01*
X250290953Y-129042193D01*
X250323196Y-128986037D01*
X252194520Y-127114716D01*
X252273577Y-126977784D01*
X252314501Y-126825057D01*
X252314501Y-126666942D01*
X252314501Y-126659347D01*
X252314500Y-126659329D01*
X252314500Y-108801059D01*
X252314501Y-108801046D01*
X252314501Y-108632945D01*
X252314501Y-108632943D01*
X252273577Y-108480215D01*
X252244639Y-108430095D01*
X252194520Y-108343284D01*
X252082716Y-108231480D01*
X252082715Y-108231479D01*
X252078385Y-108227149D01*
X252078374Y-108227139D01*
X245668738Y-101817503D01*
X245635253Y-101756180D01*
X245640237Y-101686488D01*
X245682109Y-101630555D01*
X245687529Y-101626720D01*
X245739125Y-101592244D01*
X245747289Y-101586789D01*
X245858789Y-101475289D01*
X245946394Y-101344179D01*
X245948845Y-101338263D01*
X246006735Y-101198501D01*
X246006737Y-101198497D01*
X246037500Y-101043842D01*
X246037500Y-100886158D01*
X246037500Y-100886155D01*
X246037499Y-100886153D01*
X246006738Y-100731510D01*
X246006737Y-100731503D01*
X245972915Y-100649849D01*
X245946397Y-100585827D01*
X245946390Y-100585814D01*
X245858398Y-100454125D01*
X245837520Y-100387447D01*
X245837500Y-100385234D01*
X245837500Y-90259060D01*
X245837501Y-90259047D01*
X245837501Y-90090944D01*
X245796576Y-89938214D01*
X245796573Y-89938209D01*
X245717524Y-89801290D01*
X245717518Y-89801282D01*
X240767571Y-84851335D01*
X240734086Y-84790012D01*
X240733635Y-84787845D01*
X240716413Y-84701264D01*
X240702735Y-84632501D01*
X240701763Y-84630155D01*
X240642395Y-84486825D01*
X240642388Y-84486812D01*
X240554787Y-84355709D01*
X240554784Y-84355705D01*
X240443290Y-84244211D01*
X240443286Y-84244208D01*
X240312183Y-84156607D01*
X240312170Y-84156600D01*
X240166499Y-84096262D01*
X240166487Y-84096259D01*
X240011843Y-84065498D01*
X240011840Y-84065498D01*
X239854156Y-84065498D01*
X239854153Y-84065498D01*
X239699508Y-84096259D01*
X239699496Y-84096262D01*
X239553825Y-84156600D01*
X239553812Y-84156607D01*
X239422709Y-84244208D01*
X239422705Y-84244211D01*
X239311211Y-84355705D01*
X239311208Y-84355709D01*
X239223607Y-84486812D01*
X239223600Y-84486825D01*
X239163262Y-84632496D01*
X239163259Y-84632508D01*
X239132498Y-84787151D01*
X239132498Y-84944844D01*
X239163259Y-85099487D01*
X239163262Y-85099499D01*
X239223600Y-85245170D01*
X239223607Y-85245183D01*
X239311208Y-85376286D01*
X239311211Y-85376290D01*
X239422705Y-85487784D01*
X239422709Y-85487787D01*
X239553812Y-85575388D01*
X239553825Y-85575395D01*
X239699496Y-85635733D01*
X239699501Y-85635735D01*
X239764145Y-85648593D01*
X239854847Y-85666636D01*
X239916758Y-85699021D01*
X239918337Y-85700572D01*
X244600181Y-90382416D01*
X244633666Y-90443739D01*
X244636500Y-90470097D01*
X244636500Y-100385234D01*
X244631171Y-100403379D01*
X244630834Y-100422288D01*
X244617335Y-100450501D01*
X244616815Y-100452273D01*
X244615601Y-100454126D01*
X244575278Y-100514472D01*
X244521666Y-100559276D01*
X244452340Y-100567983D01*
X244389313Y-100537828D01*
X244384496Y-100533261D01*
X238351011Y-94499776D01*
X238317526Y-94438453D01*
X238322510Y-94368761D01*
X238324131Y-94364643D01*
X238372772Y-94247211D01*
X238386737Y-94213497D01*
X238386739Y-94213489D01*
X238387340Y-94211510D01*
X238387938Y-94210596D01*
X238389068Y-94207870D01*
X238389585Y-94208084D01*
X238425637Y-94153072D01*
X238489450Y-94124615D01*
X238558517Y-94135176D01*
X238610910Y-94181401D01*
X238624660Y-94211510D01*
X238625262Y-94213497D01*
X238685602Y-94359172D01*
X238685609Y-94359185D01*
X238773210Y-94490288D01*
X238773213Y-94490292D01*
X238884707Y-94601786D01*
X238884711Y-94601789D01*
X239015814Y-94689390D01*
X239015827Y-94689397D01*
X239137288Y-94739707D01*
X239161503Y-94749737D01*
X239316153Y-94780499D01*
X239316156Y-94780500D01*
X239316158Y-94780500D01*
X239473844Y-94780500D01*
X239473845Y-94780499D01*
X239628497Y-94749737D01*
X239774179Y-94689394D01*
X239905289Y-94601789D01*
X240016789Y-94490289D01*
X240104394Y-94359179D01*
X240164737Y-94213497D01*
X240195500Y-94058842D01*
X240195500Y-93901158D01*
X240195500Y-93901155D01*
X240195499Y-93901153D01*
X240164738Y-93746510D01*
X240164737Y-93746503D01*
X240136297Y-93677842D01*
X240104397Y-93600827D01*
X240104390Y-93600814D01*
X240016789Y-93469711D01*
X240016786Y-93469707D01*
X239905292Y-93358213D01*
X239905288Y-93358210D01*
X239774185Y-93270609D01*
X239774172Y-93270602D01*
X239628501Y-93210264D01*
X239628491Y-93210261D01*
X239473149Y-93179361D01*
X239411238Y-93146976D01*
X239409660Y-93145425D01*
X234824819Y-88560584D01*
X234791334Y-88499261D01*
X234788500Y-88472903D01*
X234788500Y-87549097D01*
X234808185Y-87482058D01*
X234824819Y-87461416D01*
X234958178Y-87328057D01*
X235345662Y-86940572D01*
X235406983Y-86907089D01*
X235409150Y-86906638D01*
X235467085Y-86895113D01*
X235564497Y-86875737D01*
X235710179Y-86815394D01*
X235841289Y-86727789D01*
X235952789Y-86616289D01*
X236040394Y-86485179D01*
X236100737Y-86339497D01*
X236131500Y-86184842D01*
X236131500Y-86027158D01*
X236131500Y-86027155D01*
X236131499Y-86027153D01*
X236124364Y-85991282D01*
X236100737Y-85872503D01*
X236100735Y-85872498D01*
X236040397Y-85726827D01*
X236040390Y-85726814D01*
X235952789Y-85595711D01*
X235952786Y-85595707D01*
X235841292Y-85484213D01*
X235841288Y-85484210D01*
X235710185Y-85396609D01*
X235710172Y-85396602D01*
X235564501Y-85336264D01*
X235564489Y-85336261D01*
X235409845Y-85305500D01*
X235409842Y-85305500D01*
X235252158Y-85305500D01*
X235252155Y-85305500D01*
X235097510Y-85336261D01*
X235097498Y-85336264D01*
X234951827Y-85396602D01*
X234951814Y-85396609D01*
X234820711Y-85484210D01*
X234820707Y-85484213D01*
X234709213Y-85595707D01*
X234709210Y-85595711D01*
X234621609Y-85726814D01*
X234621602Y-85726827D01*
X234561264Y-85872498D01*
X234561261Y-85872508D01*
X234530361Y-86027850D01*
X234497976Y-86089761D01*
X234496425Y-86091339D01*
X233707481Y-86880282D01*
X233707475Y-86880290D01*
X233661761Y-86959471D01*
X233661761Y-86959472D01*
X233628423Y-87017215D01*
X233587499Y-87169943D01*
X233587499Y-87169945D01*
X233587499Y-87338046D01*
X233587500Y-87338059D01*
X233587500Y-88693939D01*
X233587499Y-88693943D01*
X233587499Y-88789933D01*
X233567814Y-88856972D01*
X233515009Y-88902727D01*
X233455795Y-88911240D01*
X233445852Y-88912670D01*
X233445851Y-88912669D01*
X233445851Y-88912670D01*
X233416826Y-88899414D01*
X233382296Y-88883645D01*
X233375818Y-88877613D01*
X233173819Y-88675614D01*
X233140334Y-88614291D01*
X233137500Y-88587933D01*
X233137500Y-86660097D01*
X233157185Y-86593058D01*
X233173819Y-86572416D01*
X234258451Y-85487784D01*
X235345664Y-84400571D01*
X235406985Y-84367088D01*
X235409152Y-84366637D01*
X235409841Y-84366500D01*
X235409842Y-84366500D01*
X235564497Y-84335737D01*
X235710179Y-84275394D01*
X235841289Y-84187789D01*
X235952789Y-84076289D01*
X236040394Y-83945179D01*
X236100737Y-83799497D01*
X236131500Y-83644842D01*
X236131500Y-83487158D01*
X236131500Y-83487155D01*
X236131499Y-83487153D01*
X236100738Y-83332510D01*
X236100738Y-83332508D01*
X236100737Y-83332503D01*
X236069648Y-83257447D01*
X236040397Y-83186827D01*
X236040390Y-83186814D01*
X235952789Y-83055711D01*
X235952786Y-83055707D01*
X235841292Y-82944213D01*
X235841288Y-82944210D01*
X235710185Y-82856609D01*
X235710172Y-82856602D01*
X235564501Y-82796264D01*
X235564489Y-82796261D01*
X235409845Y-82765500D01*
X235409842Y-82765500D01*
X235252158Y-82765500D01*
X235252155Y-82765500D01*
X235097510Y-82796261D01*
X235097498Y-82796264D01*
X234951827Y-82856602D01*
X234951814Y-82856609D01*
X234820711Y-82944210D01*
X234820707Y-82944213D01*
X234709213Y-83055707D01*
X234709210Y-83055711D01*
X234621609Y-83186814D01*
X234621602Y-83186827D01*
X234561264Y-83332498D01*
X234561261Y-83332508D01*
X234530362Y-83487848D01*
X234497977Y-83549759D01*
X234496426Y-83551337D01*
X232168286Y-85879478D01*
X232056481Y-85991282D01*
X232056475Y-85991290D01*
X232010168Y-86071498D01*
X232010168Y-86071499D01*
X231977423Y-86128214D01*
X231977423Y-86128215D01*
X231936499Y-86280943D01*
X231936499Y-86280945D01*
X231936499Y-86449046D01*
X231936500Y-86449059D01*
X231936500Y-87785903D01*
X231916815Y-87852942D01*
X231864011Y-87898697D01*
X231794853Y-87908641D01*
X231731297Y-87879616D01*
X231724819Y-87873584D01*
X228960590Y-85109355D01*
X228960588Y-85109352D01*
X228841717Y-84990481D01*
X228841709Y-84990475D01*
X228737078Y-84930067D01*
X228704788Y-84911424D01*
X228704787Y-84911423D01*
X228643693Y-84895053D01*
X228552057Y-84870499D01*
X228552054Y-84870499D01*
X228544764Y-84870499D01*
X228477725Y-84850814D01*
X228475873Y-84849601D01*
X228344185Y-84761609D01*
X228344172Y-84761602D01*
X228198501Y-84701264D01*
X228198489Y-84701261D01*
X228043841Y-84670499D01*
X228042338Y-84670351D01*
X228041601Y-84670053D01*
X228037868Y-84669311D01*
X228038008Y-84668602D01*
X227977552Y-84644186D01*
X227937197Y-84587149D01*
X227930500Y-84546949D01*
X227930500Y-83867945D01*
X227930500Y-83867943D01*
X227911701Y-83797784D01*
X227889577Y-83715215D01*
X227848947Y-83644842D01*
X227810520Y-83578284D01*
X227698716Y-83466480D01*
X227698715Y-83466479D01*
X227694385Y-83462149D01*
X227694374Y-83462139D01*
X222632819Y-78400584D01*
X222599334Y-78339261D01*
X222596500Y-78312903D01*
X222596500Y-72745764D01*
X222616185Y-72678725D01*
X222617398Y-72676873D01*
X222705390Y-72545184D01*
X222705390Y-72545183D01*
X222705394Y-72545178D01*
X222765737Y-72399496D01*
X222796500Y-72244841D01*
X222796500Y-72087157D01*
X222796500Y-72087154D01*
X222796499Y-72087152D01*
X222765738Y-71932509D01*
X222765737Y-71932502D01*
X222765735Y-71932497D01*
X222705397Y-71786826D01*
X222705390Y-71786813D01*
X222617789Y-71655710D01*
X222617786Y-71655706D01*
X222506292Y-71544212D01*
X222506288Y-71544209D01*
X222375185Y-71456608D01*
X222375172Y-71456601D01*
X222229501Y-71396263D01*
X222229489Y-71396260D01*
X222074845Y-71365499D01*
X222074842Y-71365499D01*
X221917158Y-71365499D01*
X221917155Y-71365499D01*
X221762510Y-71396260D01*
X221762498Y-71396263D01*
X221616827Y-71456601D01*
X221616814Y-71456608D01*
X221485711Y-71544209D01*
X221485707Y-71544212D01*
X221374213Y-71655706D01*
X221374210Y-71655710D01*
X221286609Y-71786813D01*
X221286602Y-71786826D01*
X221226264Y-71932497D01*
X221226261Y-71932509D01*
X221195500Y-72087152D01*
X221195500Y-72244845D01*
X221226261Y-72399488D01*
X221226264Y-72399500D01*
X221286602Y-72545171D01*
X221286609Y-72545184D01*
X221374602Y-72676873D01*
X221395480Y-72743550D01*
X221395500Y-72745764D01*
X221395500Y-78526330D01*
X221395499Y-78526348D01*
X221395499Y-78692054D01*
X221395498Y-78692054D01*
X221437058Y-78847153D01*
X221435395Y-78917003D01*
X221396233Y-78974866D01*
X221332005Y-79002370D01*
X221293092Y-79000865D01*
X221247719Y-78991840D01*
X221215841Y-78985499D01*
X221058157Y-78985499D01*
X221058154Y-78985499D01*
X220903509Y-79016260D01*
X220903497Y-79016263D01*
X220757826Y-79076601D01*
X220757813Y-79076608D01*
X220626710Y-79164209D01*
X220626706Y-79164212D01*
X220515212Y-79275706D01*
X220515209Y-79275710D01*
X220427608Y-79406813D01*
X220427601Y-79406826D01*
X220367263Y-79552497D01*
X220367260Y-79552509D01*
X220336499Y-79707152D01*
X220336499Y-79864845D01*
X220367260Y-80019488D01*
X220367263Y-80019500D01*
X220427601Y-80165171D01*
X220427608Y-80165184D01*
X220515209Y-80296287D01*
X220515212Y-80296291D01*
X220626706Y-80407785D01*
X220626710Y-80407788D01*
X220757813Y-80495389D01*
X220757826Y-80495396D01*
X220903497Y-80555734D01*
X220903502Y-80555736D01*
X220968146Y-80568594D01*
X221058848Y-80586637D01*
X221120759Y-80619022D01*
X221122338Y-80620573D01*
X224490916Y-83989151D01*
X224505619Y-84016078D01*
X224522212Y-84041897D01*
X224523103Y-84048097D01*
X224524401Y-84050474D01*
X224527235Y-84076832D01*
X224527235Y-84129234D01*
X224507550Y-84196273D01*
X224506337Y-84198125D01*
X224418344Y-84329814D01*
X224418337Y-84329827D01*
X224357999Y-84475498D01*
X224357996Y-84475510D01*
X224327235Y-84630153D01*
X224327235Y-84746500D01*
X224307550Y-84813539D01*
X224254746Y-84859294D01*
X224203235Y-84870500D01*
X223726057Y-84870500D01*
X223567942Y-84870500D01*
X223415215Y-84911423D01*
X223415214Y-84911423D01*
X223415212Y-84911424D01*
X223415211Y-84911424D01*
X223382922Y-84930067D01*
X223278287Y-84990477D01*
X223278282Y-84990481D01*
X205259481Y-103009282D01*
X205259479Y-103009285D01*
X205209361Y-103096094D01*
X205209359Y-103096096D01*
X205180425Y-103146209D01*
X205180424Y-103146210D01*
X205180423Y-103146215D01*
X205139499Y-103298943D01*
X205139499Y-103457057D01*
X205139499Y-103457059D01*
X205139500Y-103467053D01*
X205139500Y-126913330D01*
X205139499Y-126913348D01*
X205139499Y-127079054D01*
X205139498Y-127079054D01*
X203700500Y-127079054D01*
X203700500Y-55758711D01*
X206429500Y-55758711D01*
X206429500Y-56001288D01*
X206461161Y-56241785D01*
X206523947Y-56476104D01*
X206616773Y-56700205D01*
X206616776Y-56700212D01*
X206738064Y-56910289D01*
X206738066Y-56910292D01*
X206738067Y-56910293D01*
X206885733Y-57102736D01*
X206885739Y-57102743D01*
X207057256Y-57274260D01*
X207057262Y-57274265D01*
X207249711Y-57421936D01*
X207459788Y-57543224D01*
X207683900Y-57636054D01*
X207918211Y-57698838D01*
X208098586Y-57722584D01*
X208158711Y-57730500D01*
X208158712Y-57730500D01*
X208401289Y-57730500D01*
X208449388Y-57724167D01*
X208641789Y-57698838D01*
X208876100Y-57636054D01*
X209100212Y-57543224D01*
X209310289Y-57421936D01*
X209502738Y-57274265D01*
X209674265Y-57102738D01*
X209821936Y-56910289D01*
X209943224Y-56700212D01*
X210036054Y-56476100D01*
X210098838Y-56241789D01*
X210130500Y-56001288D01*
X210130500Y-55758712D01*
X210130500Y-55758711D01*
X247069500Y-55758711D01*
X247069500Y-56001288D01*
X247101161Y-56241785D01*
X247163947Y-56476104D01*
X247256773Y-56700205D01*
X247256776Y-56700212D01*
X247378064Y-56910289D01*
X247378066Y-56910292D01*
X247378067Y-56910293D01*
X247525733Y-57102736D01*
X247525739Y-57102743D01*
X247697256Y-57274260D01*
X247697262Y-57274265D01*
X247889711Y-57421936D01*
X248099788Y-57543224D01*
X248323900Y-57636054D01*
X248558211Y-57698838D01*
X248738586Y-57722584D01*
X248798711Y-57730500D01*
X248798712Y-57730500D01*
X249041289Y-57730500D01*
X249089388Y-57724167D01*
X249281789Y-57698838D01*
X249516100Y-57636054D01*
X249740212Y-57543224D01*
X249950289Y-57421936D01*
X250142738Y-57274265D01*
X250314265Y-57102738D01*
X250461936Y-56910289D01*
X250583224Y-56700212D01*
X250676054Y-56476100D01*
X250738838Y-56241789D01*
X250770500Y-56001288D01*
X250770500Y-55758712D01*
X250738838Y-55518211D01*
X250676054Y-55283900D01*
X250583224Y-55059788D01*
X250461936Y-54849711D01*
X250314265Y-54657262D01*
X250314260Y-54657256D01*
X250142743Y-54485739D01*
X250142736Y-54485733D01*
X249950293Y-54338067D01*
X249950292Y-54338066D01*
X249950289Y-54338064D01*
X249740212Y-54216776D01*
X249740205Y-54216773D01*
X249516104Y-54123947D01*
X249281785Y-54061161D01*
X249041289Y-54029500D01*
X249041288Y-54029500D01*
X248798712Y-54029500D01*
X248798711Y-54029500D01*
X248558214Y-54061161D01*
X248323895Y-54123947D01*
X248099794Y-54216773D01*
X248099785Y-54216777D01*
X247889706Y-54338067D01*
X247697263Y-54485733D01*
X247697256Y-54485739D01*
X247525739Y-54657256D01*
X247525733Y-54657263D01*
X247378067Y-54849706D01*
X247256777Y-55059785D01*
X247256773Y-55059794D01*
X247163947Y-55283895D01*
X247101161Y-55518214D01*
X247069500Y-55758711D01*
X210130500Y-55758711D01*
X210098838Y-55518211D01*
X210036054Y-55283900D01*
X209943224Y-55059788D01*
X209821936Y-54849711D01*
X209674265Y-54657262D01*
X209674260Y-54657256D01*
X209502743Y-54485739D01*
X209502736Y-54485733D01*
X209310293Y-54338067D01*
X209310292Y-54338066D01*
X209310289Y-54338064D01*
X209100212Y-54216776D01*
X209100205Y-54216773D01*
X208876104Y-54123947D01*
X208641785Y-54061161D01*
X208401289Y-54029500D01*
X208401288Y-54029500D01*
X208158712Y-54029500D01*
X208158711Y-54029500D01*
X207918214Y-54061161D01*
X207683895Y-54123947D01*
X207459794Y-54216773D01*
X207459785Y-54216777D01*
X207249706Y-54338067D01*
X207057263Y-54485733D01*
X207057256Y-54485739D01*
X206885739Y-54657256D01*
X206885733Y-54657263D01*
X206738067Y-54849706D01*
X206616777Y-55059785D01*
X206616773Y-55059794D01*
X206523947Y-55283895D01*
X206461161Y-55518214D01*
X206429500Y-55758711D01*
X203700500Y-55758711D01*
X203700500Y-51424500D01*
X203720185Y-51357461D01*
X203772989Y-51311706D01*
X203824500Y-51300500D01*
X253375500Y-51300500D01*
X253442539Y-51320185D01*
G37*
%TD.AperFunction*%
%TD*%
M02*
