%TF.GenerationSoftware,KiCad,Pcbnew,9.0.6*%
%TF.CreationDate,2026-03-03T19:55:54-06:00*%
%TF.ProjectId,CASE,43415345-2e6b-4696-9361-645f70636258,rev?*%
%TF.SameCoordinates,Original*%
%TF.FileFunction,Legend,Top*%
%TF.FilePolarity,Positive*%
%FSLAX46Y46*%
G04 Gerber Fmt 4.6, Leading zero omitted, Abs format (unit mm)*
G04 Created by KiCad (PCBNEW 9.0.6) date 2026-03-03 19:55:54*
%MOMM*%
%LPD*%
G01*
G04 APERTURE LIST*
%ADD10C,0.100000*%
%ADD11C,0.200000*%
%ADD12C,0.400000*%
%ADD13C,0.098425*%
%ADD14C,0.150000*%
%ADD15C,0.120000*%
%ADD16C,0.127000*%
%ADD17C,0.152400*%
%ADD18C,0.000000*%
G04 APERTURE END LIST*
D10*
X234696000Y-60960000D02*
X235712000Y-60960000D01*
X235204000Y-60960000D02*
X235204000Y-62484000D01*
X235712000Y-60960000D02*
X235204000Y-59944000D01*
X235204000Y-59944000D02*
X234696000Y-60960000D01*
D11*
X218059048Y-142234266D02*
X218820953Y-142234266D01*
D12*
X251459999Y-129592057D02*
X251459999Y-130544438D01*
X250793333Y-128544438D02*
X251459999Y-129592057D01*
X251459999Y-129592057D02*
X252126666Y-128544438D01*
D11*
G36*
X222596816Y-55967754D02*
G01*
X223577146Y-56280385D01*
X223437271Y-56685460D01*
X223264511Y-57017552D01*
X223061248Y-57287287D01*
X222827320Y-57502820D01*
X222557005Y-57672762D01*
X222249727Y-57797121D01*
X221899060Y-57874896D01*
X221497113Y-57902157D01*
X221102591Y-57873444D01*
X220746970Y-57790233D01*
X220423976Y-57654723D01*
X220128590Y-57466126D01*
X219857327Y-57220720D01*
X219633691Y-56939467D01*
X219456822Y-56618975D01*
X219326229Y-56253571D01*
X219244116Y-55835945D01*
X219215274Y-55357452D01*
X219244798Y-54848331D01*
X219328389Y-54408787D01*
X219460421Y-54028898D01*
X219637914Y-53700203D01*
X219860686Y-53416027D01*
X220132828Y-53168801D01*
X220433801Y-52977641D01*
X220767658Y-52839362D01*
X221140162Y-52753878D01*
X221558479Y-52724209D01*
X222012073Y-52760787D01*
X222405445Y-52865325D01*
X222749142Y-53033790D01*
X223051108Y-53267344D01*
X223251029Y-53499825D01*
X223422686Y-53802480D01*
X223563407Y-54189666D01*
X222562622Y-54424139D01*
X222479776Y-54178117D01*
X222356534Y-53975584D01*
X222191984Y-53809563D01*
X221993734Y-53685664D01*
X221767889Y-53610168D01*
X221507188Y-53583944D01*
X221236518Y-53610075D01*
X220999906Y-53685460D01*
X220790437Y-53809123D01*
X220603489Y-53984807D01*
X220464651Y-54191044D01*
X220356263Y-54464288D01*
X220283834Y-54821326D01*
X220256970Y-55282347D01*
X220284038Y-55774858D01*
X220356394Y-56150026D01*
X220463405Y-56431344D01*
X220598604Y-56638506D01*
X220783332Y-56816072D01*
X220989558Y-56940579D01*
X221221753Y-57016243D01*
X221486732Y-57042422D01*
X221745515Y-57012996D01*
X221974215Y-56927106D01*
X222180077Y-56783220D01*
X222345464Y-56592307D01*
X222485739Y-56326908D01*
X222596816Y-55967754D01*
G37*
G36*
X228959342Y-57824000D02*
G01*
X227859334Y-57824000D01*
X227422139Y-56690713D01*
X225420874Y-56690713D01*
X225007493Y-57824000D01*
X223934962Y-57824000D01*
X224701414Y-55850517D01*
X225731673Y-55850517D01*
X227097906Y-55850517D01*
X226407920Y-53974732D01*
X225731673Y-55850517D01*
X224701414Y-55850517D01*
X225885241Y-52802367D01*
X226954414Y-52802367D01*
X228959342Y-57824000D01*
G37*
G36*
X229238695Y-56221766D02*
G01*
X230222383Y-56124069D01*
X230308155Y-56434478D01*
X230429427Y-56666054D01*
X230582641Y-56835121D01*
X230775723Y-56956977D01*
X231015809Y-57034165D01*
X231315370Y-57061962D01*
X231635536Y-57035630D01*
X231874674Y-56965063D01*
X232051457Y-56858324D01*
X232192932Y-56709460D01*
X232272695Y-56552629D01*
X232299058Y-56382051D01*
X232272476Y-56218586D01*
X232194949Y-56084380D01*
X232064725Y-55977266D01*
X231831028Y-55870667D01*
X231021668Y-55648406D01*
X230483922Y-55483362D01*
X230117597Y-55314853D01*
X229880748Y-55147403D01*
X229675933Y-54923584D01*
X229533898Y-54682911D01*
X229448782Y-54421153D01*
X229419740Y-54131964D01*
X229443682Y-53881364D01*
X229515220Y-53642458D01*
X229636506Y-53411142D01*
X229799772Y-53207768D01*
X230006116Y-53037778D01*
X230261767Y-52899758D01*
X230539350Y-52805628D01*
X230865009Y-52745564D01*
X231246982Y-52724209D01*
X231725065Y-52754909D01*
X232110384Y-52839357D01*
X232419602Y-52969013D01*
X232666338Y-53139727D01*
X232874979Y-53362918D01*
X233026676Y-53617763D01*
X233124538Y-53910066D01*
X233166731Y-54248284D01*
X232155565Y-54287363D01*
X232090406Y-54040327D01*
X231996499Y-53860578D01*
X231877128Y-53733237D01*
X231725230Y-53645171D01*
X231517452Y-53586441D01*
X231236907Y-53564404D01*
X230947794Y-53587343D01*
X230722218Y-53649914D01*
X230546921Y-53746060D01*
X230456892Y-53833444D01*
X230404376Y-53935530D01*
X230386331Y-54057469D01*
X230422928Y-54220912D01*
X230536540Y-54362468D01*
X230680415Y-54450866D01*
X230966247Y-54562472D01*
X231465579Y-54700439D01*
X232151354Y-54894835D01*
X232556734Y-55064055D01*
X232777513Y-55205120D01*
X232960687Y-55374349D01*
X233109944Y-55573607D01*
X233217913Y-55797366D01*
X233285852Y-56060769D01*
X233309918Y-56372281D01*
X233283505Y-56652661D01*
X233204584Y-56920242D01*
X233070865Y-57179504D01*
X232890880Y-57407388D01*
X232667433Y-57593007D01*
X232394618Y-57738820D01*
X232097472Y-57835974D01*
X231738069Y-57898989D01*
X231304989Y-57921697D01*
X230825732Y-57890238D01*
X230432336Y-57802951D01*
X230109972Y-57667564D01*
X229846554Y-57487555D01*
X229624743Y-57254691D01*
X229449045Y-56972208D01*
X229319112Y-56631686D01*
X229238695Y-56221766D01*
G37*
G36*
X234159883Y-57824000D02*
G01*
X234159883Y-52802367D01*
X237872680Y-52802367D01*
X237872680Y-53642562D01*
X235170743Y-53642562D01*
X235170743Y-54756309D01*
X237684613Y-54756309D01*
X237684613Y-55596505D01*
X235170743Y-55596505D01*
X235170743Y-56983804D01*
X237968240Y-56983804D01*
X237968240Y-57824000D01*
X234159883Y-57824000D01*
G37*
D12*
X205073333Y-128544438D02*
X206406666Y-130544438D01*
X206406666Y-128544438D02*
X205073333Y-130544438D01*
D11*
X216027048Y-142234266D02*
X216788953Y-142234266D01*
X216408000Y-142615219D02*
X216408000Y-141853314D01*
X207518095Y-124644838D02*
X207422857Y-124597219D01*
X207422857Y-124597219D02*
X207280000Y-124597219D01*
X207280000Y-124597219D02*
X207137143Y-124644838D01*
X207137143Y-124644838D02*
X207041905Y-124740076D01*
X207041905Y-124740076D02*
X206994286Y-124835314D01*
X206994286Y-124835314D02*
X206946667Y-125025790D01*
X206946667Y-125025790D02*
X206946667Y-125168647D01*
X206946667Y-125168647D02*
X206994286Y-125359123D01*
X206994286Y-125359123D02*
X207041905Y-125454361D01*
X207041905Y-125454361D02*
X207137143Y-125549600D01*
X207137143Y-125549600D02*
X207280000Y-125597219D01*
X207280000Y-125597219D02*
X207375238Y-125597219D01*
X207375238Y-125597219D02*
X207518095Y-125549600D01*
X207518095Y-125549600D02*
X207565714Y-125501980D01*
X207565714Y-125501980D02*
X207565714Y-125168647D01*
X207565714Y-125168647D02*
X207375238Y-125168647D01*
X207994286Y-125597219D02*
X207994286Y-124597219D01*
X207994286Y-124597219D02*
X208565714Y-125597219D01*
X208565714Y-125597219D02*
X208565714Y-124597219D01*
X209041905Y-125597219D02*
X209041905Y-124597219D01*
X209041905Y-124597219D02*
X209280000Y-124597219D01*
X209280000Y-124597219D02*
X209422857Y-124644838D01*
X209422857Y-124644838D02*
X209518095Y-124740076D01*
X209518095Y-124740076D02*
X209565714Y-124835314D01*
X209565714Y-124835314D02*
X209613333Y-125025790D01*
X209613333Y-125025790D02*
X209613333Y-125168647D01*
X209613333Y-125168647D02*
X209565714Y-125359123D01*
X209565714Y-125359123D02*
X209518095Y-125454361D01*
X209518095Y-125454361D02*
X209422857Y-125549600D01*
X209422857Y-125549600D02*
X209280000Y-125597219D01*
X209280000Y-125597219D02*
X209041905Y-125597219D01*
X248158095Y-124644838D02*
X248062857Y-124597219D01*
X248062857Y-124597219D02*
X247920000Y-124597219D01*
X247920000Y-124597219D02*
X247777143Y-124644838D01*
X247777143Y-124644838D02*
X247681905Y-124740076D01*
X247681905Y-124740076D02*
X247634286Y-124835314D01*
X247634286Y-124835314D02*
X247586667Y-125025790D01*
X247586667Y-125025790D02*
X247586667Y-125168647D01*
X247586667Y-125168647D02*
X247634286Y-125359123D01*
X247634286Y-125359123D02*
X247681905Y-125454361D01*
X247681905Y-125454361D02*
X247777143Y-125549600D01*
X247777143Y-125549600D02*
X247920000Y-125597219D01*
X247920000Y-125597219D02*
X248015238Y-125597219D01*
X248015238Y-125597219D02*
X248158095Y-125549600D01*
X248158095Y-125549600D02*
X248205714Y-125501980D01*
X248205714Y-125501980D02*
X248205714Y-125168647D01*
X248205714Y-125168647D02*
X248015238Y-125168647D01*
X248634286Y-125597219D02*
X248634286Y-124597219D01*
X248634286Y-124597219D02*
X249205714Y-125597219D01*
X249205714Y-125597219D02*
X249205714Y-124597219D01*
X249681905Y-125597219D02*
X249681905Y-124597219D01*
X249681905Y-124597219D02*
X249920000Y-124597219D01*
X249920000Y-124597219D02*
X250062857Y-124644838D01*
X250062857Y-124644838D02*
X250158095Y-124740076D01*
X250158095Y-124740076D02*
X250205714Y-124835314D01*
X250205714Y-124835314D02*
X250253333Y-125025790D01*
X250253333Y-125025790D02*
X250253333Y-125168647D01*
X250253333Y-125168647D02*
X250205714Y-125359123D01*
X250205714Y-125359123D02*
X250158095Y-125454361D01*
X250158095Y-125454361D02*
X250062857Y-125549600D01*
X250062857Y-125549600D02*
X249920000Y-125597219D01*
X249920000Y-125597219D02*
X249681905Y-125597219D01*
D13*
X236319014Y-123682569D02*
X236319014Y-123870045D01*
X236319014Y-123870045D02*
X235925313Y-123870045D01*
X236319014Y-123345111D02*
X236319014Y-123570083D01*
X236319014Y-123457597D02*
X235925313Y-123457597D01*
X235925313Y-123457597D02*
X235981556Y-123495092D01*
X235981556Y-123495092D02*
X236019052Y-123532588D01*
X236019052Y-123532588D02*
X236037799Y-123570083D01*
X235925313Y-123101392D02*
X235925313Y-123063896D01*
X235925313Y-123063896D02*
X235944061Y-123026401D01*
X235944061Y-123026401D02*
X235962809Y-123007653D01*
X235962809Y-123007653D02*
X236000304Y-122988906D01*
X236000304Y-122988906D02*
X236075295Y-122970158D01*
X236075295Y-122970158D02*
X236169033Y-122970158D01*
X236169033Y-122970158D02*
X236244024Y-122988906D01*
X236244024Y-122988906D02*
X236281519Y-123007653D01*
X236281519Y-123007653D02*
X236300267Y-123026401D01*
X236300267Y-123026401D02*
X236319014Y-123063896D01*
X236319014Y-123063896D02*
X236319014Y-123101392D01*
X236319014Y-123101392D02*
X236300267Y-123138887D01*
X236300267Y-123138887D02*
X236281519Y-123157635D01*
X236281519Y-123157635D02*
X236244024Y-123176382D01*
X236244024Y-123176382D02*
X236169033Y-123195130D01*
X236169033Y-123195130D02*
X236075295Y-123195130D01*
X236075295Y-123195130D02*
X236000304Y-123176382D01*
X236000304Y-123176382D02*
X235962809Y-123157635D01*
X235962809Y-123157635D02*
X235944061Y-123138887D01*
X235944061Y-123138887D02*
X235925313Y-123101392D01*
X235962809Y-122820177D02*
X235944061Y-122801429D01*
X235944061Y-122801429D02*
X235925313Y-122763934D01*
X235925313Y-122763934D02*
X235925313Y-122670196D01*
X235925313Y-122670196D02*
X235944061Y-122632700D01*
X235944061Y-122632700D02*
X235962809Y-122613953D01*
X235962809Y-122613953D02*
X236000304Y-122595205D01*
X236000304Y-122595205D02*
X236037799Y-122595205D01*
X236037799Y-122595205D02*
X236094042Y-122613953D01*
X236094042Y-122613953D02*
X236319014Y-122838925D01*
X236319014Y-122838925D02*
X236319014Y-122595205D01*
D14*
X237734699Y-99415819D02*
X237734699Y-99653914D01*
X237496604Y-99558676D02*
X237734699Y-99653914D01*
X237734699Y-99653914D02*
X237972794Y-99558676D01*
X237591842Y-99844390D02*
X237734699Y-99653914D01*
X237734699Y-99653914D02*
X237877556Y-99844390D01*
X237734699Y-99415819D02*
X237734699Y-99653914D01*
X237496604Y-99558676D02*
X237734699Y-99653914D01*
X237734699Y-99653914D02*
X237972794Y-99558676D01*
X237591842Y-99844390D02*
X237734699Y-99653914D01*
X237734699Y-99653914D02*
X237877556Y-99844390D01*
X226529900Y-94873219D02*
X226529900Y-95111314D01*
X226291805Y-95016076D02*
X226529900Y-95111314D01*
X226529900Y-95111314D02*
X226767995Y-95016076D01*
X226387043Y-95301790D02*
X226529900Y-95111314D01*
X226529900Y-95111314D02*
X226672757Y-95301790D01*
X226529900Y-94873219D02*
X226529900Y-95111314D01*
X226291805Y-95016076D02*
X226529900Y-95111314D01*
X226529900Y-95111314D02*
X226767995Y-95016076D01*
X226387043Y-95301790D02*
X226529900Y-95111314D01*
X226529900Y-95111314D02*
X226672757Y-95301790D01*
X226750761Y-109674819D02*
X226274571Y-109674819D01*
X226274571Y-109674819D02*
X226274571Y-108674819D01*
X227036476Y-109627200D02*
X227179333Y-109674819D01*
X227179333Y-109674819D02*
X227417428Y-109674819D01*
X227417428Y-109674819D02*
X227512666Y-109627200D01*
X227512666Y-109627200D02*
X227560285Y-109579580D01*
X227560285Y-109579580D02*
X227607904Y-109484342D01*
X227607904Y-109484342D02*
X227607904Y-109389104D01*
X227607904Y-109389104D02*
X227560285Y-109293866D01*
X227560285Y-109293866D02*
X227512666Y-109246247D01*
X227512666Y-109246247D02*
X227417428Y-109198628D01*
X227417428Y-109198628D02*
X227226952Y-109151009D01*
X227226952Y-109151009D02*
X227131714Y-109103390D01*
X227131714Y-109103390D02*
X227084095Y-109055771D01*
X227084095Y-109055771D02*
X227036476Y-108960533D01*
X227036476Y-108960533D02*
X227036476Y-108865295D01*
X227036476Y-108865295D02*
X227084095Y-108770057D01*
X227084095Y-108770057D02*
X227131714Y-108722438D01*
X227131714Y-108722438D02*
X227226952Y-108674819D01*
X227226952Y-108674819D02*
X227465047Y-108674819D01*
X227465047Y-108674819D02*
X227607904Y-108722438D01*
X228560285Y-109674819D02*
X227988857Y-109674819D01*
X228274571Y-109674819D02*
X228274571Y-108674819D01*
X228274571Y-108674819D02*
X228179333Y-108817676D01*
X228179333Y-108817676D02*
X228084095Y-108912914D01*
X228084095Y-108912914D02*
X227988857Y-108960533D01*
X229179333Y-108674819D02*
X229274571Y-108674819D01*
X229274571Y-108674819D02*
X229369809Y-108722438D01*
X229369809Y-108722438D02*
X229417428Y-108770057D01*
X229417428Y-108770057D02*
X229465047Y-108865295D01*
X229465047Y-108865295D02*
X229512666Y-109055771D01*
X229512666Y-109055771D02*
X229512666Y-109293866D01*
X229512666Y-109293866D02*
X229465047Y-109484342D01*
X229465047Y-109484342D02*
X229417428Y-109579580D01*
X229417428Y-109579580D02*
X229369809Y-109627200D01*
X229369809Y-109627200D02*
X229274571Y-109674819D01*
X229274571Y-109674819D02*
X229179333Y-109674819D01*
X229179333Y-109674819D02*
X229084095Y-109627200D01*
X229084095Y-109627200D02*
X229036476Y-109579580D01*
X229036476Y-109579580D02*
X228988857Y-109484342D01*
X228988857Y-109484342D02*
X228941238Y-109293866D01*
X228941238Y-109293866D02*
X228941238Y-109055771D01*
X228941238Y-109055771D02*
X228988857Y-108865295D01*
X228988857Y-108865295D02*
X229036476Y-108770057D01*
X229036476Y-108770057D02*
X229084095Y-108722438D01*
X229084095Y-108722438D02*
X229179333Y-108674819D01*
X230465047Y-109674819D02*
X229893619Y-109674819D01*
X230179333Y-109674819D02*
X230179333Y-108674819D01*
X230179333Y-108674819D02*
X230084095Y-108817676D01*
X230084095Y-108817676D02*
X229988857Y-108912914D01*
X229988857Y-108912914D02*
X229893619Y-108960533D01*
D15*
%TO.C,C114*%
X207794452Y-73531400D02*
X207271948Y-73531400D01*
X207794452Y-72061400D02*
X207271948Y-72061400D01*
D11*
%TO.C,D102*%
X230393333Y-58925000D02*
G75*
G02*
X230193333Y-58925000I-100000J0D01*
G01*
X230193333Y-58925000D02*
G75*
G02*
X230393333Y-58925000I100000J0D01*
G01*
D15*
%TO.C,C110*%
X233433252Y-96420000D02*
X232910748Y-96420000D01*
X233433252Y-97890000D02*
X232910748Y-97890000D01*
D11*
%TO.C,D103*%
X227006667Y-58925000D02*
G75*
G02*
X226806667Y-58925000I-100000J0D01*
G01*
X226806667Y-58925000D02*
G75*
G02*
X227006667Y-58925000I100000J0D01*
G01*
D15*
%TO.C,R109*%
X224255064Y-131853000D02*
X223800936Y-131853000D01*
X224255064Y-133323000D02*
X223800936Y-133323000D01*
%TO.C,U105*%
X238290000Y-125290000D02*
X238290000Y-125520000D01*
X238290000Y-125520000D02*
X239265000Y-125520000D01*
X238580000Y-122300000D02*
X239265000Y-122300000D01*
X240535000Y-122300000D02*
X241510000Y-122300000D01*
X240535000Y-125520000D02*
X241510000Y-125520000D01*
X241510000Y-122300000D02*
X241510000Y-122530000D01*
X241510000Y-125290000D02*
X241510000Y-125520000D01*
X238260000Y-122300000D02*
X237980000Y-122300000D01*
X238260000Y-122020000D01*
X238260000Y-122300000D01*
G36*
X238260000Y-122300000D02*
G01*
X237980000Y-122300000D01*
X238260000Y-122020000D01*
X238260000Y-122300000D01*
G37*
%TO.C,R128*%
X207745064Y-69843400D02*
X207290936Y-69843400D01*
X207745064Y-71313400D02*
X207290936Y-71313400D01*
%TO.C,C104*%
X221226748Y-120677000D02*
X221749252Y-120677000D01*
X221226748Y-122147000D02*
X221749252Y-122147000D01*
D16*
%TO.C,L102*%
X233342000Y-123802000D02*
X233342000Y-124102000D01*
X235542000Y-123802000D02*
X235542000Y-124102000D01*
%TO.C,J101*%
X214490000Y-136900000D02*
X220390000Y-136900000D01*
X214490000Y-141400000D02*
X214490000Y-136900000D01*
X220390000Y-136900000D02*
X220390000Y-141400000D01*
X220390000Y-141400000D02*
X214490000Y-141400000D01*
D11*
X221090000Y-141050000D02*
G75*
G02*
X220890000Y-141050000I-100000J0D01*
G01*
X220890000Y-141050000D02*
G75*
G02*
X221090000Y-141050000I100000J0D01*
G01*
%TO.C,D101*%
X233780000Y-58925000D02*
G75*
G02*
X233580000Y-58925000I-100000J0D01*
G01*
X233580000Y-58925000D02*
G75*
G02*
X233780000Y-58925000I100000J0D01*
G01*
D15*
%TO.C,U102*%
X238927000Y-137316000D02*
X239002000Y-137316000D01*
X238927000Y-138826305D02*
X238927000Y-137316000D01*
X240772000Y-137316000D02*
X240847000Y-137316000D01*
X240847000Y-137316000D02*
X240847000Y-139036000D01*
X240847000Y-139036000D02*
X240772000Y-139036000D01*
X238997000Y-139176000D02*
X238807000Y-139316000D01*
X238807000Y-139036000D01*
X238997000Y-139176000D01*
G36*
X238997000Y-139176000D02*
G01*
X238807000Y-139316000D01*
X238807000Y-139036000D01*
X238997000Y-139176000D01*
G37*
%TO.C,C111*%
X235973252Y-99849000D02*
X235450748Y-99849000D01*
X235973252Y-101319000D02*
X235450748Y-101319000D01*
D17*
%TO.C,U107*%
X238088599Y-99660900D02*
X238088599Y-100286958D01*
X238088599Y-101397042D02*
X238088599Y-102023100D01*
X238088599Y-102023100D02*
X238464658Y-102023100D01*
X238464658Y-99660900D02*
X238088599Y-99660900D01*
X240074740Y-102023100D02*
X240450799Y-102023100D01*
X240450799Y-99660900D02*
X240074740Y-99660900D01*
X240450799Y-100286958D02*
X240450799Y-99660900D01*
X240450799Y-102023100D02*
X240450799Y-101397042D01*
D18*
G36*
X238960200Y-99687999D02*
G01*
X238579200Y-99687999D01*
X238579200Y-99433999D01*
X238960200Y-99433999D01*
X238960200Y-99687999D01*
G37*
D15*
%TO.C,C109*%
X227337252Y-98833000D02*
X226814748Y-98833000D01*
X227337252Y-100303000D02*
X226814748Y-100303000D01*
%TO.C,SW103*%
X209518000Y-78220000D02*
X213138000Y-78220000D01*
X209518000Y-84340000D02*
X209518000Y-78220000D01*
X213138000Y-78220000D02*
X213138000Y-84340000D01*
X213138000Y-84340000D02*
X209518000Y-84340000D01*
%TO.C,R104*%
X229558333Y-66013064D02*
X229558333Y-65558936D01*
X231028333Y-66013064D02*
X231028333Y-65558936D01*
%TO.C,R112*%
X245083064Y-118899000D02*
X244628936Y-118899000D01*
X245083064Y-120369000D02*
X244628936Y-120369000D01*
D11*
%TO.C,D105*%
X237783000Y-133858000D02*
G75*
G02*
X237583000Y-133858000I-100000J0D01*
G01*
X237583000Y-133858000D02*
G75*
G02*
X237783000Y-133858000I100000J0D01*
G01*
D15*
%TO.C,R114*%
X231674936Y-133123000D02*
X232129064Y-133123000D01*
X231674936Y-134593000D02*
X232129064Y-134593000D01*
%TO.C,C107*%
X244594748Y-125503000D02*
X245117252Y-125503000D01*
X244594748Y-126973000D02*
X245117252Y-126973000D01*
%TO.C,R106*%
X226171667Y-66013064D02*
X226171667Y-65558936D01*
X227641667Y-66013064D02*
X227641667Y-65558936D01*
%TO.C,R107*%
X222785000Y-66013064D02*
X222785000Y-65558936D01*
X224255000Y-66013064D02*
X224255000Y-65558936D01*
%TO.C,U103*%
X219400000Y-69505999D02*
X237800000Y-69505999D01*
X219400000Y-70255999D02*
X219050000Y-70255999D01*
X219400000Y-70255999D02*
X219400000Y-69505999D01*
X219400000Y-88105999D02*
X219400000Y-89105999D01*
X219400000Y-89105999D02*
X220900000Y-89105999D01*
X237800000Y-69505999D02*
X237800000Y-70205999D01*
X237800000Y-89105999D02*
X236300000Y-89105999D01*
X237800000Y-89105999D02*
X237800000Y-88105999D01*
D11*
X221250000Y-70995999D02*
G75*
G02*
X221050000Y-70995999I-100000J0D01*
G01*
X221050000Y-70995999D02*
G75*
G02*
X221250000Y-70995999I100000J0D01*
G01*
D15*
%TO.C,SW101*%
X243808000Y-78220000D02*
X247428000Y-78220000D01*
X243808000Y-84340000D02*
X243808000Y-78220000D01*
X247428000Y-78220000D02*
X247428000Y-84340000D01*
X247428000Y-84340000D02*
X243808000Y-84340000D01*
D16*
%TO.C,J102*%
X207010000Y-125730000D02*
X209550000Y-125730000D01*
X207010000Y-133350000D02*
X207010000Y-125730000D01*
X209550000Y-125730000D02*
X209550000Y-133350000D01*
X209550000Y-133350000D02*
X207010000Y-133350000D01*
D11*
X208380000Y-133890000D02*
G75*
G02*
X208180000Y-133890000I-100000J0D01*
G01*
X208180000Y-133890000D02*
G75*
G02*
X208380000Y-133890000I100000J0D01*
G01*
%TO.C,L101*%
X219338500Y-114740000D02*
X215138500Y-114740000D01*
X219338500Y-118940000D02*
X215138500Y-118940000D01*
D15*
%TO.C,R101*%
X227991936Y-138711000D02*
X228446064Y-138711000D01*
X227991936Y-140181000D02*
X228446064Y-140181000D01*
%TO.C,C103*%
X214657000Y-68333252D02*
X214657000Y-67810748D01*
X216127000Y-68333252D02*
X216127000Y-67810748D01*
%TO.C,C108*%
X234469000Y-118879252D02*
X234469000Y-118356748D01*
X235939000Y-118879252D02*
X235939000Y-118356748D01*
%TO.C,C113*%
X244883000Y-71554748D02*
X244883000Y-72077252D01*
X246353000Y-71554748D02*
X246353000Y-72077252D01*
%TO.C,R108*%
X224255064Y-134139000D02*
X223800936Y-134139000D01*
X224255064Y-135609000D02*
X223800936Y-135609000D01*
%TO.C,C102*%
X216943000Y-68333252D02*
X216943000Y-67810748D01*
X218413000Y-68333252D02*
X218413000Y-67810748D01*
%TO.C,R115*%
X217450936Y-126773000D02*
X217905064Y-126773000D01*
X217450936Y-128243000D02*
X217905064Y-128243000D01*
D17*
%TO.C,U106*%
X226936300Y-95097600D02*
X226936300Y-95299618D01*
X226936300Y-97537182D02*
X226936300Y-97739200D01*
X226936300Y-97739200D02*
X227646010Y-97739200D01*
X227646010Y-95097600D02*
X226936300Y-95097600D01*
X229477790Y-97739200D02*
X230187500Y-97739200D01*
X230187500Y-95097600D02*
X229477790Y-95097600D01*
X230187500Y-95299618D02*
X230187500Y-95097600D01*
X230187500Y-97739200D02*
X230187500Y-97537182D01*
D18*
G36*
X230466900Y-96358901D02*
G01*
X230212900Y-96358901D01*
X230212900Y-95977900D01*
X230466900Y-95977900D01*
X230466900Y-96358901D01*
G37*
D15*
%TO.C,C101*%
X210593000Y-71554748D02*
X210593000Y-72077252D01*
X212063000Y-71554748D02*
X212063000Y-72077252D01*
D11*
%TO.C,D104*%
X223620000Y-58925000D02*
G75*
G02*
X223420000Y-58925000I-100000J0D01*
G01*
X223420000Y-58925000D02*
G75*
G02*
X223620000Y-58925000I100000J0D01*
G01*
D15*
%TO.C,U101*%
X216371000Y-122800000D02*
X218371000Y-122800000D01*
X218371000Y-125020000D02*
X216371000Y-125020000D01*
X215971000Y-123070000D02*
X215691000Y-123070000D01*
X215971000Y-122790000D01*
X215971000Y-123070000D01*
G36*
X215971000Y-123070000D02*
G01*
X215691000Y-123070000D01*
X215971000Y-122790000D01*
X215971000Y-123070000D01*
G37*
%TO.C,U104*%
X229018000Y-132964000D02*
X227968000Y-132964000D01*
X229018000Y-135284000D02*
X227718000Y-135284000D01*
X227608000Y-132964000D02*
X227328000Y-132964000D01*
X227608000Y-132684000D01*
X227608000Y-132964000D01*
G36*
X227608000Y-132964000D02*
G01*
X227328000Y-132964000D01*
X227608000Y-132684000D01*
X227608000Y-132964000D01*
G37*
%TO.C,R111*%
X221260936Y-123979000D02*
X221715064Y-123979000D01*
X221260936Y-125449000D02*
X221715064Y-125449000D01*
D11*
%TO.C,D107*%
X238606000Y-113028000D02*
G75*
G02*
X238406000Y-113028000I-100000J0D01*
G01*
X238406000Y-113028000D02*
G75*
G02*
X238606000Y-113028000I100000J0D01*
G01*
D15*
%TO.C,R110*%
X217450936Y-129821000D02*
X217905064Y-129821000D01*
X217450936Y-131291000D02*
X217905064Y-131291000D01*
%TO.C,J104*%
X223930000Y-148685000D02*
X223930000Y-146985000D01*
X233270000Y-148685000D02*
X233270000Y-146985000D01*
%TO.C,C112*%
X238025000Y-97543252D02*
X238025000Y-97020748D01*
X239495000Y-97543252D02*
X239495000Y-97020748D01*
%TO.C,R102*%
X237342936Y-142394000D02*
X237797064Y-142394000D01*
X237342936Y-143864000D02*
X237797064Y-143864000D01*
%TO.C,C106*%
X213113252Y-123725000D02*
X212590748Y-123725000D01*
X213113252Y-125195000D02*
X212590748Y-125195000D01*
%TO.C,C105*%
X213113252Y-120677000D02*
X212590748Y-120677000D01*
X213113252Y-122147000D02*
X212590748Y-122147000D01*
D16*
%TO.C,LS101*%
X220599250Y-104470000D02*
X220599250Y-105470000D01*
X221099250Y-104970000D02*
X220099250Y-104970000D01*
X221099250Y-113720000D02*
X220099250Y-113720000D01*
X223749250Y-109160000D02*
X223759250Y-109650000D01*
X223759250Y-109650000D02*
X223839250Y-110150000D01*
X223779250Y-108650000D02*
X223749250Y-109160000D01*
X223839250Y-110150000D02*
X223939250Y-110550000D01*
X223879250Y-108100000D02*
X223779250Y-108650000D01*
X223939250Y-110550000D02*
X224059250Y-110880000D01*
X223989250Y-107760000D02*
X223879250Y-108100000D01*
X224059250Y-110880000D02*
X224169250Y-111150000D01*
X224109250Y-107440000D02*
X223989250Y-107760000D01*
X224169250Y-111150000D02*
X224339250Y-111480000D01*
X224259250Y-107110000D02*
X224109250Y-107440000D01*
X224339250Y-111480000D02*
X224549250Y-111810000D01*
X224439250Y-106790000D02*
X224259250Y-107110000D01*
X224549250Y-111810000D02*
X224769250Y-112110000D01*
X224689250Y-106430000D02*
X224439250Y-106790000D01*
X224769250Y-112110000D02*
X225009250Y-112380000D01*
X224929250Y-106140000D02*
X224689250Y-106430000D01*
X225009250Y-112380000D02*
X225209250Y-112580000D01*
X225159250Y-105910000D02*
X224929250Y-106140000D01*
X225209250Y-112580000D02*
X225439250Y-112780000D01*
X225439250Y-112780000D02*
X225819250Y-113060000D01*
X225559250Y-105560000D02*
X225159250Y-105910000D01*
X225819250Y-113060000D02*
X226119250Y-113240000D01*
X225849250Y-105360000D02*
X225559250Y-105560000D01*
X226119250Y-113240000D02*
X226329250Y-113350000D01*
X226179250Y-105160000D02*
X225849250Y-105360000D01*
X226329250Y-113350000D02*
X226599250Y-113470000D01*
X226609250Y-104960000D02*
X226179250Y-105160000D01*
X230129250Y-104980000D02*
X230099250Y-104970000D01*
X230299250Y-113390000D02*
X230099250Y-113470000D01*
X230639250Y-105240000D02*
X230129250Y-104980000D01*
X230899250Y-113070000D02*
X230299250Y-113390000D01*
X231049250Y-105490000D02*
X230639250Y-105240000D01*
X231209250Y-105620000D02*
X231049250Y-105490000D01*
X231429250Y-112640000D02*
X230899250Y-113070000D01*
X231679250Y-112370000D02*
X231429250Y-112640000D01*
X231809250Y-106180000D02*
X231209250Y-105620000D01*
X231999250Y-106420000D02*
X231809250Y-106180000D01*
X232009250Y-112000000D02*
X231679250Y-112370000D01*
X232169250Y-106660000D02*
X231999250Y-106420000D01*
X232299250Y-106880000D02*
X232169250Y-106660000D01*
X232359250Y-111500000D02*
X232009250Y-112000000D01*
X232419250Y-107070000D02*
X232299250Y-106880000D01*
X232519250Y-107270000D02*
X232419250Y-107070000D01*
X232589250Y-110970000D02*
X232359250Y-111500000D01*
X232709250Y-107780000D02*
X232519250Y-107270000D01*
X232749250Y-110620000D02*
X232589250Y-110970000D01*
X232799250Y-108020000D02*
X232709250Y-107780000D01*
X232799250Y-110420000D02*
X232749250Y-110620000D01*
X233449250Y-108020000D02*
X232799250Y-108020000D01*
X233449250Y-108020000D02*
X233449250Y-110420000D01*
X233449250Y-110420000D02*
X232799250Y-110420000D01*
%TO.C,J103*%
X247650000Y-125730000D02*
X250190000Y-125730000D01*
X247650000Y-133350000D02*
X247650000Y-125730000D01*
X250190000Y-125730000D02*
X250190000Y-133350000D01*
X250190000Y-133350000D02*
X247650000Y-133350000D01*
D11*
X249020000Y-133890000D02*
G75*
G02*
X248820000Y-133890000I-100000J0D01*
G01*
X248820000Y-133890000D02*
G75*
G02*
X249020000Y-133890000I100000J0D01*
G01*
%TO.C,D106*%
X223813000Y-127508000D02*
G75*
G02*
X223613000Y-127508000I-100000J0D01*
G01*
X223613000Y-127508000D02*
G75*
G02*
X223813000Y-127508000I100000J0D01*
G01*
D15*
%TO.C,R105*%
X232945000Y-66013064D02*
X232945000Y-65558936D01*
X234415000Y-66013064D02*
X234415000Y-65558936D01*
%TO.C,R113*%
X244628936Y-122201000D02*
X245083064Y-122201000D01*
X244628936Y-123671000D02*
X245083064Y-123671000D01*
%TO.C,R116*%
X237771000Y-118845064D02*
X237771000Y-118390936D01*
X239241000Y-118845064D02*
X239241000Y-118390936D01*
%TD*%
M02*
